<svg id="Layer_1" height="512" viewBox="0 0 512 512" width="512" xmlns="http://www.w3.org/2000/svg"><g><g><path d="m464 304v-256c0-8.837-7.163-16-16-16h-384c-8.837 0-16 7.163-16 16v256c0 8.837 7.163 16 16 16h384c8.837 0 16-7.163 16-16z" fill="#5faa46"/></g><g><g><path d="m464 240v-192c0-8.837-7.163-16-16-16h-384c-8.837 0-16 7.163-16 16v192c0 8.837 7.163 16 16 16h384c8.837 0 16-7.163 16-16z" fill="#91c83c"/></g><g><path d="m64 208v-128c0-4.418 3.582-8 8-8 8.837 0 16-7.163 16-16 0-4.418 3.582-8 8-8h320c4.418 0 8 3.582 8 8 0 8.837 7.163 16 16 16 4.418 0 8 3.582 8 8v128c0 4.418-3.582 8-8 8-8.837 0-16 7.163-16 16 0 4.418-3.582 8-8 8h-320c-4.418 0-8-3.582-8-8 0-8.837-7.163-16-16-16-4.418 0-8-3.582-8-8z" fill="#5faa46"/></g><g><circle cx="256" cy="144" fill="#91c83c" r="80"/></g></g><g><path d="m224 32h64v288h-64z" fill="#a5c3dc"/></g><g><path d="m224 32h64v224h-64z" fill="#d7e6f0"/></g><g><g><path d="m128 480c-44.183 0-80-35.817-80-80v-16c0-44.183 35.817-80 80-80 44.183 0 80 35.817 80 80v16c0 44.183-35.817 80-80 80z" fill="#f06423"/></g><g><circle cx="128" cy="384" fill="#faa019" r="80"/></g><g><circle cx="128" cy="384" fill="#f06423" r="64"/></g></g><g><g><path d="m288 480c-44.183 0-80-35.817-80-80v-16c0-44.183 35.817-80 80-80 44.183 0 80 35.817 80 80v16c0 44.183-35.817 80-80 80z" fill="#f06423"/></g><g><circle cx="288" cy="384" fill="#faa019" r="80"/></g><g><circle cx="288" cy="384" fill="#f06423" r="64"/></g></g><g><g><path d="m128 448c-44.183 0-80-35.817-80-80v-16c0-44.183 35.817-80 80-80 44.183 0 80 35.817 80 80v16c0 44.183-35.817 80-80 80z" fill="#f06423"/></g><g><circle cx="128" cy="352" fill="#faa019" r="80"/></g><g><circle cx="128" cy="352" fill="#f06423" r="64"/></g></g><g><g><path d="m128 416c-44.183 0-80-35.817-80-80v-16c0-44.183 35.817-80 80-80 44.183 0 80 35.817 80 80v16c0 44.183-35.817 80-80 80z" fill="#f06423"/></g><g><circle cx="128" cy="320" fill="#faa019" r="80"/></g><g><circle cx="128" cy="320" fill="#f06423" r="64"/></g></g><g><g><path d="m128 384c-44.183 0-80-35.817-80-80v-16c0-44.183 35.817-80 80-80 44.183 0 80 35.817 80 80v16c0 44.183-35.817 80-80 80z" fill="#f06423"/></g><g><circle cx="128" cy="288" fill="#faa019" r="80"/></g><g><circle cx="128" cy="288" fill="#f06423" r="64"/></g></g></g></svg>