<svg id="Flat" height="512" viewBox="0 0 512 512" width="512" xmlns="http://www.w3.org/2000/svg"><path d="m384 56h-224a32 32 0 0 1 32-32h160a32 32 0 0 1 32 32z" fill="#6a7073"/><path d="m384 392a32 32 0 0 1 -32 32h-160a32 32 0 0 1 -32-32z" fill="#6a7073"/><path d="m160 56h224v336h-224z" fill="#e1e3e6"/><path d="m192 120h160v208h-160z" fill="#eb423f"/><g fill="#a3d4f7"><path d="m224 152h32v32h-32z"/><path d="m224 216h32v32h-32z"/><path d="m288 216h32v32h-32z"/><path d="m288 152h32v32h-32z"/><path d="m248 280h48v48h-48z"/></g><path d="m416 288a16 16 0 0 1 16-16 16 16 0 0 1 16 16v100.286l-16 44v55.714h-120v-57.81l-24-41.9v-48c0-22.092 9.909-40 32-40v-100.29a16 16 0 0 1 16-16 16 16 0 0 1 16 16v56a16 16 0 0 1 16-16 16 16 0 0 1 16 16v8a16 16 0 0 1 16-16 16 16 0 0 1 16 16z" fill="#f7cca9"/><circle cx="152" cy="160" fill="#e9eef2" r="72"/><path d="m136 192a7.974 7.974 0 0 1 -5.657-2.343l-16-16a8 8 0 0 1 11.314-11.314l10.343 10.344 42.343-42.344a8 8 0 0 1 11.314 11.314l-48 48a7.974 7.974 0 0 1 -5.657 2.343z" fill="#35a872"/><path d="m352 96h-96a8 8 0 0 1 0-16h96a8 8 0 0 1 0 16z" fill="#6a7073"/><circle cx="224" cy="88" fill="#6a7073" r="8"/><path d="m224 368h-32a8 8 0 0 1 0-16h32a8 8 0 0 1 0 16z" fill="#6a7073"/></svg>