<svg id="_x33_0" enable-background="new 0 0 62 46" height="512" viewBox="0 0 62 46" width="512" xmlns="http://www.w3.org/2000/svg"><g><g><g><path d="m15 46c-8.271 0-15-6.729-15-15s6.729-15 15-15 15 6.729 15 15-6.729 15-15 15z" fill="#f0bc5e"/></g></g><g><path d="m14 8h2v4h-2z"/><path d="m18 4h2v2h-2z"/><path d="m22 4h2v2h-2z"/><path d="m26 4h2v2h-2z"/><path d="m39.586 15h-.586v2h.586c1.179 0 2.287-.459 3.121-1.293l-1.414-1.414c-.456.456-1.063.707-1.707.707z"/><path d="m60 0h-54c-1.103 0-2 .897-2 2v18.836c.611-.661 1.28-1.265 2-1.808v-11.108c3.059-.441 5.479-2.861 5.92-5.92h2.08v4h2v-4h38.08c.441 3.059 2.861 5.479 5.92 5.92v18.16c-3.059.441-5.479 2.861-5.92 5.92h-24.131c-.045.678-.119 1.349-.252 2h30.303c1.103 0 2-.897 2-2v-30c0-1.103-.897-2-2-2zm-54 5.899v-3.899h3.899c-.399 1.956-1.943 3.5-3.899 3.899zm50.101-3.899h3.899v3.899c-1.956-.399-3.5-1.943-3.899-3.899zm0 30c.399-1.956 1.943-3.5 3.899-3.899v3.899z"/><path d="m14 16.051c.332-.022.662-.051 1-.051s.668.029 1 .051v-2.051h-2z"/><path d="m28.326 24.143c.918 1.777 1.484 3.757 1.624 5.857h24.05v-3.877c0-2.616-1.614-4.904-4-5.834v-9.289c0-3.859-3.141-7-7-7h-4c-3.859 0-7 3.141-7 7v6.556c-.591-.344-1.268-.556-2-.556v-1c0-2.206-1.794-4-4-4-1.615 0-3 .966-3.632 2.346-.412-.214-.873-.346-1.368-.346-1.42 0-2.607.994-2.916 2.322.666.14 1.309.337 1.939.562.061-.495.467-.884.977-.884.552 0 1 .448 1 1v.743c.704.373 1.368.808 2 1.285v-1.028-1-1c0-1.103.897-2 2-2s2 .897 2 2v1.556c-1.144.671-1.933 1.886-1.985 3.296.757.821 1.425 1.722 1.985 2.696v-2.548c0-1.103.897-2 2-2 .866 0 1.598.557 1.875 1.328-1.696.703-2.982 2.104-3.549 3.815zm5.674-12.143h1v3.5c0 3.032 2.468 5.5 5.5 5.5 1.328 0 2.548-.474 3.5-1.261v2.967l-2.057 1.175-7.943-3.53zm10 3.5c0 1.93-1.57 3.5-3.5 3.5s-3.5-1.57-3.5-3.5v-3.5h7v3zm2 0v-.5-3h2v8.42l-2 1.143zm-7-9.5h4c2.414 0 4.434 1.721 4.899 4h-13.798c.465-2.279 2.485-4 4.899-4zm-9 20.123c0-1.862 1.201-3.478 2.947-4.053l9.109 4.049 7.052-4.03c1.716.591 2.892 2.192 2.892 4.034v1.877h-22z"/><path d="m10 24.414v7.758c0 1.008-.82 1.828-1.828 1.828h-.344c-1.008 0-1.828-.82-1.828-1.828 0-.481.195-.953.535-1.293l.172-.172-1.414-1.414-.172.172c-.723.723-1.121 1.684-1.121 2.707 0 2.11 1.718 3.828 3.828 3.828h.344c2.11 0 3.828-1.718 3.828-3.828v-7.758c0-.645.251-1.251.707-1.707l-1.414-1.414c-.834.834-1.293 1.942-1.293 3.121z"/><path d="m20 29v-1h-2v1c0 .552-.448 1-1 1s-1-.448-1-1v-4.586c0-.645.251-1.251.707-1.707l-1.414-1.414c-.834.834-1.293 1.942-1.293 3.121v4.586c0 1.654 1.346 3 3 3s3-1.346 3-3z"/><path d="m14 34h2v2h-2z"/><path d="m18 34h2v2h-2z"/><path d="m21.293 27.707c.456.456.707 1.063.707 1.707v4.463c0 1.968-1.333 3.676-3.242 4.153l.484 1.939c2.802-.699 4.758-3.205 4.758-6.092v-4.463c0-1.179-.459-2.287-1.293-3.121z"/></g></g></svg>