<?xml version="1.0" encoding="utf-8"?>
<!-- Generator: Adobe Illustrator 16.0.0, SVG Export Plug-In . SVG Version: 6.00 Build 0)  -->
<!DOCTYPE svg PUBLIC "-//W3C//DTD SVG 1.1//EN" "http://www.w3.org/Graphics/SVG/1.1/DTD/svg11.dtd">
<svg version="1.1" id="Ebene_1" xmlns="http://www.w3.org/2000/svg" xmlns:xlink="http://www.w3.org/1999/xlink" x="0px" y="0px"
	 width="40px" height="40px" viewBox="0 0 40 40" enable-background="new 0 0 40 40" xml:space="preserve">
<image display="none" overflow="visible" enable-background="new    " width="170" height="170" xlink:href="9538C71E.png"  transform="matrix(0.266 0 0 0.266 -4.2246 1)">
</image>
<rect x="15.591" y="25.653" fill="#EF0C23" width="12.968" height="12.325"/>
<g display="none">
	<path display="inline" d="M18.774,6.099c0.941,0,1.883,0,2.822,0c0.159,0.018,0.315,0.039,0.475,0.054
		c1.111,0.112,2.227,0.207,3.334,0.341c0.633,0.077,1.185,0.552,1.193,1.139c0.008,0.575,0.31,0.675,0.741,0.727
		c0.083,0.01,0.165,0.035,0.247,0.056c0.376,0.099,0.734,0.273,0.9,0.623c0.162,0.337,0.404,0.427,0.727,0.454
		c0.094,0.008,0.186,0.031,0.275,0.053c0.729,0.172,1.465,0.333,2.188,0.523c0.419,0.11,0.523,0.328,0.421,0.74
		c-0.049,0.183-0.103,0.362-0.154,0.542c-0.58,1.951-1.394,3.807-2.312,5.619c-0.057,0.112-0.104,0.248-0.1,0.369
		c0.021,0.584,0.067,1.164,0.098,1.747c0.127,2.535,0.265,5.069,0.372,7.605c0.066,1.578,0.085,3.158,0.137,4.735
		c0.002,0.093,0.063,0.224,0.137,0.267c0.877,0.519,1.185,1.759,0.642,2.627c-0.228,0.363-0.578,0.549-0.966,0.685
		c-6.512,0-13.022,0-19.533,0c-0.559-0.198-1.024-0.516-1.128-1.137c-0.062-0.373-0.049-0.769-0.003-1.146
		c0.054-0.447,0.335-0.779,0.737-0.973c0.193-0.093,0.222-0.205,0.227-0.391c0.044-1.738,0.099-3.479,0.138-5.219
		c0.002-0.129-0.066-0.297-0.159-0.381c-0.955-0.865-1.919-1.721-2.886-2.574c-1.012-0.894-1.585-2.006-1.598-3.356
		c-0.023-2.578-0.024-5.156-0.003-7.733c0.012-1.459,1.082-2.483,2.539-2.5c0.31-0.003,0.621,0,0.931,0c0.808,0,1.616,0,2.426,0
		c0.184-0.732,0.665-1.106,1.367-1.233c0.148-0.027,0.292-0.08,0.44-0.096c0.215-0.023,0.291-0.112,0.296-0.341
		c0.021-0.789,0.494-1.329,1.277-1.44c0.791-0.113,1.586-0.193,2.38-0.276C17.858,6.163,18.316,6.136,18.774,6.099z M29.201,31.559
		c0-0.146,0.003-0.269-0.001-0.389c-0.032-1.186-0.052-2.371-0.099-3.555c-0.093-2.322-0.177-4.646-0.311-6.965
		c-0.128-2.188-0.297-4.374-0.482-6.557c-0.121-1.395-0.313-2.784-0.468-4.176c-0.039-0.357-0.229-0.535-0.582-0.622
		C25.573,8.88,23.855,8.658,22.127,8.6c-1.529-0.051-3.066-0.011-4.596,0.053c-1.505,0.063-2.992,0.298-4.457,0.66
		c-0.313,0.077-0.484,0.25-0.522,0.575c-0.128,1.112-0.301,2.219-0.39,3.333c-0.24,2.991-0.493,5.981-0.652,8.976
		c-0.162,3.033-0.219,6.072-0.321,9.109c-0.003,0.079,0,0.16,0,0.252C17.202,31.559,23.184,31.559,29.201,31.559z M20.215,32.514
		c-2.069,0-4.139,0-6.208,0c-1.082,0-2.164-0.002-3.245,0.002c-0.324,0.002-0.521,0.161-0.571,0.436
		c-0.099,0.544,0.002,0.943,0.294,1.06c0.134,0.054,0.294,0.056,0.442,0.056c6.18,0.002,12.361,0.002,18.541,0.002
		c0.095,0,0.198,0.017,0.279-0.021c0.132-0.056,0.302-0.118,0.36-0.229c0.177-0.328,0.168-0.694,0.021-1.031
		c-0.127-0.291-0.417-0.271-0.687-0.271C26.368,32.514,23.291,32.514,20.215,32.514z M11.228,12.554c-0.842,0-1.691,0-2.54,0
		c-0.007,0.048-0.015,0.076-0.015,0.103c0,2.398-0.001,4.796,0,7.193c0,0.34,0.139,0.618,0.393,0.841
		c0.296,0.263,0.59,0.523,0.886,0.785c0.193,0.17,0.387,0.34,0.59,0.518C10.772,18.825,10.999,15.698,11.228,12.554z M11.51,10.543
		c-1.163,0-2.272-0.028-3.38,0.009c-0.852,0.029-1.439,0.654-1.443,1.504c-0.012,2.615-0.009,5.23,0.004,7.847
		c0.005,0.852,0.307,1.626,0.912,2.214c0.89,0.865,1.839,1.668,2.764,2.497c0.011,0.01,0.035,0.006,0.131,0.021
		c0-0.384-0.016-0.756,0.006-1.125c0.012-0.195-0.032-0.328-0.185-0.461c-0.599-0.516-1.178-1.056-1.777-1.568
		c-0.561-0.479-0.817-1.075-0.808-1.812c0.013-1.045,0.003-2.089,0.003-3.133c0-1.439-0.002-2.879,0.001-4.318
		c0.001-0.464,0.167-0.627,0.629-0.631c0.395-0.003,0.791,0,1.186,0c0.601,0,1.201,0,1.826,0
		C11.423,11.236,11.464,10.905,11.51,10.543z M14.667,8.028c3.696-0.57,7.37-0.563,11.047-0.003
		c-0.041-0.418-0.181-0.583-0.532-0.625c-0.804-0.097-1.604-0.216-2.408-0.27c-2.521-0.167-5.038-0.114-7.54,0.265
		C14.855,7.452,14.724,7.583,14.667,8.028z M28.865,10.366c0.176,1.667,0.347,3.273,0.52,4.916c0.482-0.796,1.665-3.904,1.684-4.439
		C30.352,10.688,29.631,10.531,28.865,10.366z"/>
	<path display="inline" fill="#FFFFFF" d="M29.201,31.559c-6.018,0-12,0-18.012,0c0-0.091-0.003-0.172,0-0.252
		c0.102-3.037,0.159-6.076,0.321-9.108c0.16-2.995,0.412-5.985,0.652-8.976c0.089-1.114,0.262-2.221,0.39-3.333
		c0.038-0.326,0.208-0.498,0.522-0.575c1.465-0.361,2.952-0.597,4.457-0.66c1.53-0.063,3.067-0.104,4.596-0.053
		c1.729,0.059,3.446,0.281,5.135,0.698c0.35,0.087,0.541,0.265,0.581,0.622c0.155,1.392,0.347,2.781,0.466,4.176
		c0.188,2.183,0.356,4.369,0.484,6.555c0.135,2.318,0.219,4.643,0.311,6.965c0.047,1.184,0.064,2.367,0.099,3.555
		C29.204,31.29,29.201,31.41,29.201,31.559z M22.16,20.58c0-0.789,0-1.58,0-2.37c0-1.524,0.008-3.048-0.003-4.572
		c-0.005-0.871-0.396-1.533-1.2-1.876c-0.756-0.323-1.476-0.189-2.095,0.364c-0.484,0.431-0.642,0.997-0.642,1.624
		c0.001,3.575,0.001,7.15,0.001,10.727c0,0.986-0.01,1.977,0.002,2.963c0.018,1.479,1.316,2.42,2.657,1.938
		c0.793-0.284,1.278-1.022,1.279-1.967C22.162,25.134,22.16,22.857,22.16,20.58z"/>
	<path display="inline" fill="#FFFFFF" d="M20.215,32.514c3.076,0,6.153,0,9.229,0c0.27,0,0.56-0.02,0.687,0.271
		c0.146,0.337,0.155,0.703-0.021,1.031c-0.061,0.108-0.229,0.174-0.36,0.229c-0.081,0.035-0.187,0.02-0.278,0.02
		c-6.181,0.002-12.361,0.002-18.542-0.002c-0.147,0-0.308-0.002-0.442-0.055c-0.292-0.113-0.393-0.516-0.294-1.06
		c0.05-0.272,0.247-0.433,0.571-0.435c1.082-0.005,2.163-0.002,3.245-0.002C16.077,32.514,18.146,32.514,20.215,32.514z"/>
	<path display="inline" fill="#FFFFFF" d="M11.51,10.543c-0.045,0.362-0.087,0.693-0.131,1.045c-0.625,0-1.226,0-1.826,0
		c-0.395,0-0.791-0.003-1.186,0c-0.462,0.004-0.628,0.167-0.629,0.631c-0.003,1.439-0.001,2.879-0.001,4.318
		c0,1.044,0.01,2.088-0.003,3.133c-0.01,0.734,0.247,1.331,0.808,1.811c0.6,0.516,1.178,1.056,1.777,1.569
		c0.153,0.132,0.197,0.265,0.185,0.461c-0.022,0.369-0.006,0.741-0.006,1.125c-0.097-0.017-0.12-0.013-0.131-0.021
		c-0.924-0.829-1.874-1.633-2.764-2.497c-0.605-0.588-0.907-1.362-0.912-2.214c-0.013-2.617-0.016-5.232-0.004-7.847
		c0.003-0.85,0.591-1.475,1.443-1.504C9.237,10.515,10.347,10.543,11.51,10.543z"/>
	<rect x="17.274" y="10.533" display="inline" width="6.285" height="18.971"/>
	<path display="inline" fill="#FFFFFF" d="M14.667,8.028c0.058-0.445,0.188-0.577,0.567-0.634c2.502-0.378,5.018-0.431,7.54-0.265
		c0.806,0.054,1.604,0.172,2.408,0.27c0.354,0.042,0.491,0.207,0.532,0.625C22.036,7.465,18.362,7.458,14.667,8.028z"/>
	<path display="inline" fill="#FFFFFF" d="M28.865,10.366c0.766,0.166,1.486,0.322,2.203,0.477
		c-0.021,0.535-1.201,3.643-1.686,4.439C29.212,13.639,29.041,12.032,28.865,10.366z"/>
	<path display="inline" d="M22.16,20.58c0,2.277,0.002,4.554-0.001,6.83c-0.001,0.943-0.486,1.683-1.279,1.967
		c-1.34,0.482-2.639-0.459-2.657-1.938c-0.012-0.987-0.002-1.978-0.002-2.963c0-3.576,0-7.15-0.001-10.728
		c0-0.627,0.158-1.193,0.642-1.624c0.619-0.553,1.339-0.687,2.095-0.364c0.807,0.343,1.195,1.006,1.2,1.876
		c0.011,1.523,0.003,3.047,0.003,4.572C22.16,19,22.16,19.791,22.16,20.58z M21.206,25.016c-0.165,0-0.306,0.004-0.442-0.002
		c-0.333-0.01-0.526-0.182-0.529-0.462c-0.003-0.278,0.184-0.45,0.519-0.472c0.146-0.01,0.294-0.001,0.439-0.001
		c0-0.376,0-0.708,0-1.06c-0.17,0-0.322,0.012-0.471-0.002c-0.313-0.024-0.493-0.209-0.489-0.477
		c0.003-0.268,0.193-0.443,0.502-0.461c0.154-0.01,0.313-0.001,0.453-0.001c0-0.379,0-0.713,0-1.05
		c-0.377-0.065-0.924,0.14-0.938-0.463c-0.017-0.651,0.573-0.419,0.938-0.5c0-0.353,0-0.692,0-1.029
		c-0.769-0.054-0.97-0.145-0.951-0.468c0.042-0.644,0.578-0.437,0.958-0.513c0-0.341,0-0.673,0-1.037
		c-0.178,0-0.336,0.011-0.492-0.003c-0.308-0.026-0.482-0.213-0.47-0.486c0.012-0.258,0.194-0.427,0.492-0.44
		c0.154-0.008,0.313-0.002,0.474-0.002c0-0.371,0-0.706,0-1.069c-0.177,0-0.333,0.007-0.49-0.001
		c-0.29-0.015-0.471-0.193-0.475-0.454c-0.003-0.263,0.168-0.444,0.46-0.466c0.164-0.014,0.332-0.003,0.514-0.003
		c0-0.241,0.014-0.439-0.003-0.634c-0.05-0.643-0.683-1.069-1.299-0.884c-0.494,0.147-0.74,0.519-0.741,1.126
		c0,4.562,0,9.126,0,13.688c0,0.074,0,0.148,0.004,0.227c0.044,0.65,0.687,1.096,1.311,0.904c0.593-0.181,0.865-0.758,0.689-1.515
		c-0.123,0-0.252,0.003-0.381-0.001c-0.36-0.011-0.553-0.175-0.555-0.462c0-0.293,0.195-0.459,0.551-0.466
		c0.138-0.003,0.273,0,0.421,0C21.206,25.713,21.206,25.385,21.206,25.016z"/>
</g>
<g>
	<path d="M10.021,19.246c0.656-1.021,1.552-1.49,2.682-1.499c1.771-0.013,3.541-0.005,5.312-0.007
		c2.436-0.002,4.874-0.009,7.309-0.007c1.281,0.001,2.258,0.543,2.891,1.668c0.234,0.418,0.333,0.88,0.34,1.351
		c0.014,1.271,0.002,2.541,0.002,3.813c0,1.089,0.008,2.178,0.008,3.269c0,1.096-0.008,2.192-0.008,3.291
		c0,1.088,0.006,2.178,0.006,3.266c-0.004,1.09-0.006,2.18-0.012,3.269c0,0.287,0,0.575-0.019,0.859
		c-0.019,0.278-0.125,0.407-0.402,0.438c-0.321,0.032-0.647,0.037-0.972,0.037c-1.575,0.001-3.148-0.006-4.725-0.006
		c-1.572,0-3.146,0.006-4.721,0.007C16.942,38.998,16.17,39,15.398,39c-0.496-0.002-0.671-0.164-0.678-0.668
		c-0.013-1.098-0.01-2.191-0.012-3.291c-0.001-1.576,0-3.148,0-4.725s0-3.148,0-4.723c0-1.561,0.01-3.119,0-4.68
		c-0.006-0.9-0.388-1.598-1.232-1.974c-0.649-0.289-1.302-0.243-1.913,0.127c-0.21,0.129-0.418,0.19-0.66,0.181
		C10.625,19.237,10.348,19.246,10.021,19.246z M14.978,18.757c0.037,0.079,0.045,0.109,0.063,0.131
		c0.55,0.696,0.701,1.507,0.699,2.37c-0.007,3.563-0.008,7.129-0.011,10.696c0,0.071,0,0.144,0,0.218c3.956,0,7.875,0,11.811,0
		c0.005-0.09,0.015-0.172,0.015-0.254c0.002-0.506,0.002-1.013,0.002-1.519c0.002-1.576,0.008-3.149,0.006-4.722
		c0-1.58-0.02-3.16-0.017-4.741c0.005-1.273-0.862-2.172-2.133-2.173c-3.099-0.003-6.193-0.003-9.29-0.005
		C15.753,18.757,15.384,18.757,14.978,18.757z M15.756,37.967c0.063,0.007,0.092,0.014,0.121,0.014
		c1.793-0.001,3.585-0.01,5.378-0.01c2.013,0,4.022,0.01,6.036,0.003c0.082,0,0.232-0.108,0.234-0.173
		c0.021-0.443,0.014-0.888,0.014-1.338c-3.936,0-7.856,0-11.783,0C15.756,36.974,15.756,37.463,15.756,37.967z M15.723,33.803
		c0.219,0,0.401,0,0.582,0c1.362,0,2.725,0,4.087,0c1.322,0.002,2.647,0.005,3.974,0.008c0.997,0.001,1.995,0,2.995,0.002
		c0.15,0,0.201-0.07,0.199-0.21c-0.004-0.179-0.006-0.362,0.006-0.543c0.012-0.188-0.057-0.289-0.252-0.289
		c-0.236,0-0.472-0.002-0.705-0.002c-1.354,0-2.709,0.002-4.063,0.004c-1.589,0-3.178,0-4.768,0c-0.598,0-1.195,0-1.792,0.002
		c-0.125,0-0.258,0.003-0.261,0.179C15.718,33.229,15.723,33.506,15.723,33.803z"/>
	<path d="M11.178,21.562c-0.832,0-1.664,0.005-2.497-0.001c-0.309-0.003-0.568,0.039-0.829,0.265
		c-0.672,0.584-1.645,0.295-2.038-0.518c-0.271-0.56,0.059-1.287,0.477-1.581c0.487-0.343,1.156-0.293,1.62,0.092
		c0.145,0.119,0.361,0.214,0.546,0.216c1.565,0.013,3.132,0.001,4.699-0.001c0.204-0.001,0.408,0.01,0.612,0.008
		c0.173-0.003,0.283,0.084,0.302,0.245c0.043,0.367,0.066,0.736,0.097,1.106c0.014,0.167-0.101,0.181-0.222,0.181
		c-0.506,0-1.013-0.001-1.521-0.002c-0.416,0-0.832,0-1.248,0C11.178,21.568,11.178,21.564,11.178,21.562z"/>
	<path d="M9.584,22.392c0.335,0,0.651,0,1,0c0,0.239,0,0.471,0,0.7c-0.001,1.572-0.004,3.146-0.004,4.719
		c0,0.393,0.008,0.785,0.001,1.179c-0.003,0.22,0.094,0.286,0.306,0.282c0.552-0.016,1.104-0.012,1.656-0.008
		c0.34,0.002,0.556,0.16,0.585,0.414c0.039,0.343-0.16,0.591-0.519,0.595c-0.816,0.012-1.633,0.012-2.45-0.002
		c-0.415-0.009-0.581-0.188-0.584-0.617c-0.01-1.021-0.009-2.041-0.009-3.062c0-1.348,0.003-2.692,0.006-4.039
		C9.574,22.51,9.578,22.465,9.584,22.392z"/>
	<path d="M29.091,20.037c0.293,0,0.587-0.016,0.88,0.006c0.348,0.022,0.635-0.104,0.903-0.301c0.628-0.463,1.472-0.261,1.869,0.417
		c0.409,0.699,0.146,1.211-0.356,1.687c-0.477,0.451-1.144,0.389-1.664-0.079c-0.166-0.149-0.349-0.218-0.576-0.205
		c-0.285,0.017-0.574,0.017-0.86,0.003c-0.065-0.002-0.132-0.081-0.187-0.135c-0.02-0.021-0.008-0.074-0.008-0.111
		C29.091,20.903,29.091,20.489,29.091,20.037z"/>
	<path fill="#FFFFFF" d="M14.978,18.757c0.406,0,0.776,0,1.145,0c3.096,0.001,6.191,0.001,9.288,0.005
		c1.271,0.001,2.138,0.9,2.134,2.173c-0.004,1.581,0.016,3.162,0.018,4.742c0,1.572-0.006,3.146-0.008,4.721c0,0.506,0,1.013,0,1.52
		c0,0.082-0.012,0.164-0.017,0.254c-3.937,0-7.854,0-11.81,0c0-0.076,0-0.147,0-0.219c0.002-3.564,0.003-7.131,0.011-10.697
		c0.001-0.86-0.149-1.672-0.699-2.369C15.021,18.866,15.014,18.837,14.978,18.757z"/>
</g>
</svg>
