<?xml version="1.0" encoding="utf-8"?>
<!-- Generator: Adobe Illustrator 16.0.0, SVG Export Plug-In . SVG Version: 6.00 Build 0)  -->
<!DOCTYPE svg PUBLIC "-//W3C//DTD SVG 1.1//EN" "http://www.w3.org/Graphics/SVG/1.1/DTD/svg11.dtd">
<svg version="1.1" id="Layer_1" xmlns="http://www.w3.org/2000/svg" xmlns:xlink="http://www.w3.org/1999/xlink" x="0px" y="0px"
	 width="595.279px" height="841.891px" viewBox="0 0 595.279 841.891" enable-background="new 0 0 595.279 841.891"
	 xml:space="preserve">
<title>Icons</title>
<path fill="none" stroke="#C20E1A" stroke-width="1.4387" stroke-linecap="round" stroke-linejoin="round" d="M248.345,311.835
	c25.238-10.234,53.149-11.854,79.402-4.609"/>
<g>
	<path fill-rule="evenodd" clip-rule="evenodd" d="M178.702,487.246c12.247,0,24.864-0.031,37.48,0.01
		c9.04,0.029,10.352,1.365,10.367,10.426c0.027,15.637,0.133,31.277-0.035,46.912c-0.057,5.158,1.912,12.436-6.61,12.482
		c-8.301,0.047-6.923-6.912-6.94-12.307c-0.045-14.43-0.015-28.857-0.015-43.676c-12.455,0-24.047,0-36.297,0
		c0,14.645,0.003,28.842-0.001,43.037c-0.001,2.299,0.732,5.006-0.228,6.799c-1.319,2.459-4.056,5.986-5.961,5.854
		c-2.578-0.18-5.284-3.109-7.255-5.436c-0.936-1.105-0.383-3.547-0.358-5.381c0.277-19.988,0.825-39.977,0.824-59.967
		c-0.002-23.662-10.444-43.426-24.409-61.59c-3.091-4.02-6.018-7.818-1.468-11.861c4.825-4.286,8.871-1.203,12.13,3.021
		c15.309,19.843,26.214,41.494,27.534,67.078c0.047,0.918,0.09,1.844,0.248,2.745C177.781,485.816,178.12,486.191,178.702,487.246z"
		/>
	<path fill-rule="evenodd" clip-rule="evenodd" d="M416.624,500.689c-11.474,0-22.016-0.205-32.528,0.262
		c-1.319,0.059-3.5,3.648-3.548,5.645c-0.32,13.098-0.142,26.207-0.186,39.313c-0.008,2.053,0.416,4.688-0.649,6.018
		c-1.755,2.189-4.666,4.971-6.899,4.814c-2.129-0.15-5.697-3.699-5.747-5.82c-0.445-19.072-0.355-38.158-0.186-57.238
		c0.05-5.531,4.214-6.434,8.74-6.428c12.865,0.016,25.727,0.004,39.355,0.004c0.353-2.078,0.858-3.954,0.965-5.852
		c1.443-25.625,12.948-47.033,28.13-66.844c2.904-3.792,7.105-5.885,11.312-2.178c4.191,3.692,2.384,7.396-0.792,11.344
		c-12.572,15.626-21.835,32.975-24.414,53.133c-0.834,6.51,0.221,13.25,0.244,19.885c0.061,17.014-0.021,34.029,0.061,51.043
		c0.025,5.188-1.117,9.502-7.314,9.354c-5.866-0.143-6.62-4.398-6.585-9.248C416.695,532.512,416.624,517.129,416.624,500.689z"/>
	<path fill-rule="evenodd" clip-rule="evenodd" d="M165.565,314.082c39.289-21.13,78.581-42.259,119.741-64.396
		c-8.144,13.932-15.245,26.117-22.384,38.28c-4.649,7.923-9.199,15.916-14.146,23.654c-1.142,1.786-3.712,3.755-5.643,3.773
		c-25.737,0.251-51.477,0.167-77.215,0.167C165.8,315.067,165.682,314.574,165.565,314.082z"/>
	<path fill-rule="evenodd" clip-rule="evenodd" d="M255.438,315.083c13.488-22.868,26.467-44.874,39.994-67.808
		c13.606,23.053,26.602,45.068,40.023,67.808C308.654,315.083,282.651,315.083,255.438,315.083z"/>
	<path fill-rule="evenodd" clip-rule="evenodd" d="M307.495,250.777c39.526,21.541,77.907,42.457,117.899,64.25
		c-3.456,0.31-5.137,0.592-6.816,0.591c-23.207-0.023-46.413-0.017-69.616-0.255c-2.099-0.022-5.162-1.084-6.122-2.666
		c-11.775-19.429-23.246-39.043-34.762-58.629C307.781,253.565,307.845,252.85,307.495,250.777z"/>
	<path fill-rule="evenodd" clip-rule="evenodd" fill="#C20E1A" d="M295.227,466.213c-17.706-0.002-35.41,0.049-53.116-0.023
		c-8.295-0.032-11.919-3.24-11.752-10.039c0.146-6.059,4.246-9.494,11.804-9.504c35.411-0.048,70.821-0.004,106.233-0.039
		c5.18-0.006,9.795,0.967,11.604,6.547c2.312,7.133-1.849,12.932-9.588,13.003C332.019,466.33,313.623,466.213,295.227,466.213z"/>
	<path fill-rule="evenodd" clip-rule="evenodd" d="M437.514,323.927c0,5.924,0.127,11.214-0.025,16.497
		c-0.332,11.381-9.742,20.5-20.931,20.443c-11.585-0.059-20.42-8.729-20.706-20.459c-0.134-5.453-0.022-10.912-0.022-16.48
		C410.195,323.927,423.782,323.927,437.514,323.927z"/>
	<path fill-rule="evenodd" clip-rule="evenodd" d="M153.627,323.643c13.734,0,26.948,0,40.621,0c0,6.724,0.569,13.152-0.128,19.44
		c-1.151,10.393-10.175,17.846-20.403,17.735c-10.35-0.112-18.929-7.545-19.979-18.094
		C153.13,336.628,153.627,330.423,153.627,323.643z"/>
	<path fill-rule="evenodd" clip-rule="evenodd" fill="#C20E1A" d="M201.917,323.649c13.882,0,27.062,0,40.859,0
		c0,6.709,0.514,13.112-0.114,19.401c-1.049,10.479-10.473,18.09-21.038,17.745c-10.504-0.345-19.151-8.653-19.658-19.216
		C201.692,335.891,201.917,330.179,201.917,323.649z"/>
	<path fill-rule="evenodd" clip-rule="evenodd" d="M250.532,323.625c13.869,0,26.899,0,40.627,0c0,6.699,0.529,13.118-0.117,19.417
		c-1.083,10.565-10.453,18.097-21.141,17.765c-10.556-0.328-18.932-8.685-19.332-19.548
		C250.36,335.552,250.532,329.831,250.532,323.625z"/>
	<path fill-rule="evenodd" clip-rule="evenodd" fill="#C20E1A" d="M299.027,323.558c13.722,0,26.755,0,40.45,0
		c0,6.829,0.522,13.467-0.122,19.991c-0.986,9.994-10.618,17.626-20.817,17.289c-9.993-0.33-18.65-8.088-19.422-18.031
		C298.64,336.667,299.027,330.46,299.027,323.558z"/>
	<path fill-rule="evenodd" clip-rule="evenodd" d="M347.487,323.532c13.716,0,26.517,0,40.863,0
		c-0.476,7.979,0.01,16.025-1.658,23.598c-1.992,9.044-11.316,14.411-20.585,13.597c-9.663-0.85-17.693-8.013-18.514-17.342
		C347.036,337.046,347.487,330.621,347.487,323.532z"/>
	<path fill-rule="evenodd" clip-rule="evenodd" d="M302.286,440.799c-4.892,0-8.942,0-13.347,0
		c-0.188-1.656-0.514-3.199-0.515-4.741c-0.03-24.137-0.049-48.275,0.008-72.412c0.017-6.855,2.447-9.339,8.585-7.857
		c2.086,0.504,5.018,3.65,5.043,5.621C302.398,387.591,302.286,413.779,302.286,440.799z"/>
	<path fill-rule="evenodd" clip-rule="evenodd" d="M334.768,544.537c-26.99,0-51.977,0-79.23,0
		c10.934-8.221,19.513-17.469,30.099-21.705c7.824-3.129,18.729-3.889,27.046,4.01C319.066,532.906,326.431,537.936,334.768,544.537
		z"/>
	<path fill-rule="evenodd" clip-rule="evenodd" d="M287.683,472.188c5.467,0,10.232,0,15.593,0c0,14.422,0,28.684,0,43.426
		c-5.015,0-10.106,0-15.593,0C287.683,501.074,287.683,486.98,287.683,472.188z"/>
	<path fill-rule="evenodd" clip-rule="evenodd" d="M386.501,594.719c0.516,0,1.03,0,1.546,0c-0.003,0.094-0.006,0.188-0.009,0.283
		c-0.514,0-1.027,0-1.542,0C386.498,594.906,386.5,594.813,386.501,594.719z"/>
	<path fill-rule="evenodd" clip-rule="evenodd" d="M396.615,595.301c-0.244-0.232-0.471-0.447-0.697-0.664
		c0.41-0.057,0.819-0.154,1.229-0.148c0.168,0.004,0.331,0.232,0.499,0.359C397.299,595,396.952,595.152,396.615,595.301z"/>
	<path fill-rule="evenodd" clip-rule="evenodd" d="M415.98,595.316c-0.237-0.236-0.457-0.453-0.677-0.67
		c0.396-0.061,0.795-0.164,1.191-0.16c0.161,0.002,0.318,0.236,0.478,0.363C416.638,595.008,416.301,595.164,415.98,595.316z"/>
</g>
</svg>
