<?xml version="1.0" encoding="utf-8"?>
<!-- Generator: Adobe Illustrator 16.0.0, SVG Export Plug-In . SVG Version: 6.00 Build 0)  -->
<!DOCTYPE svg PUBLIC "-//W3C//DTD SVG 1.1//EN" "http://www.w3.org/Graphics/SVG/1.1/DTD/svg11.dtd">
<svg version="1.1" id="Layer_1" xmlns="http://www.w3.org/2000/svg" xmlns:xlink="http://www.w3.org/1999/xlink" x="0px" y="0px"
	 width="595.279px" height="841.891px" viewBox="0 0 595.279 841.891" enable-background="new 0 0 595.279 841.891"
	 xml:space="preserve">
<title>Icons</title>
<path fill="none" stroke="#C20E1A" stroke-width="1.4387" stroke-linecap="round" stroke-linejoin="round" d="M249.345,308.835
	c25.238-10.234,53.149-11.854,79.402-4.609"/>
<g>
	<path fill-rule="evenodd" clip-rule="evenodd" d="M323.847,321.918c3.247,2.463,6.218,4.591,9.049,6.891
		c6.056,4.919,12.324,9.632,17.918,15.037c2.351,2.272,3.737,5.939,4.648,9.226c2.382,8.585,4.316,17.298,6.318,25.985
		c1.464,6.358,2.672,12.776,4.15,19.131c0.962,4.137,2.205,8.207,3.321,12.308c1.046,3.834,0.418,7.16-2.72,9.897
		c-2.626,2.292-5.642,3.059-8.735,1.727c-3.46-1.493-5.607-4.075-6.097-8.233c-0.517-4.393-1.898-8.688-2.965-13.011
		c-1.017-4.122-2.161-8.214-3.162-12.341c-1.102-4.537-2.064-9.109-3.157-13.649c-1.021-4.237-2.637-8.398-3.086-12.687
		c-0.634-6.053-3.708-9.897-8.533-13.23c-7.222-4.986-14.02-10.58-21.13-15.735c-1.42-1.029-3.419-1.702-5.173-1.749
		c-7.289-0.194-14.587-0.159-21.879-0.025c-1.359,0.025-2.945,0.582-4.014,1.42c-8.558,6.715-17.113,13.444-25.432,20.448
		c-1.819,1.531-3.281,4.03-3.894,6.351c-2.005,7.596-3.451,15.338-5.29,22.981c-1.452,6.031-3.229,11.983-4.742,18
		c-1.063,4.227-1.875,8.516-2.891,12.756c-1.084,4.521-2.335,9.001-3.403,13.525c-1.031,4.36-1.829,8.776-2.896,13.126
		c-1.551,6.317-3.338,12.579-4.86,18.905c-1.067,4.436-1.774,8.957-2.798,13.406c-0.954,4.146-2.137,8.24-3.178,12.369
		c-1.033,4.099-2.237,8.171-2.953,12.326c-0.683,3.966,1.144,5.807,5.016,6.841c4.07,1.087,8.009,2.673,11.996,4.064
		c6.882,2.404,13.762,4.817,20.635,7.246c3.8,1.344,7.704,2.473,11.345,4.162c3.716,1.725,5.188,5.36,5.21,9.161
		c0.109,18.279-0.019,36.562-0.04,54.842c-0.004,2.854-0.101,5.734,0.27,8.547c0.154,1.172,1.297,3.001,2.207,3.144
		c3.328,0.518,6.747,0.453,10.132,0.602c1.151,0.05,2.309,0.03,3.454,0.14c0.502,0.048,0.987,0.509,1.469,0.492
		c5.146-0.181,10.291-0.437,15.437-0.628c1.147-0.044,2.307,0.179,3.451,0.115c3.07-0.168,6.266,0.015,9.141-0.847
		c1.222-0.365,2.462-2.972,2.505-4.59c0.25-9.399,0.159-18.809,0.16-28.214c0.002-11.52-0.031-23.039-0.025-34.56
		c0.004-5.765,2.57-8.231,7.823-9.906c7.907-2.523,15.616-5.664,23.453-8.418c6.433-2.261,12.905-4.415,19.406-6.469
		c2.746-0.868,3.522-2.881,3.203-5.25c-0.457-3.383-1.172-6.759-2.12-10.04c-1.367-4.734,0.889-10.036,5.183-11.502
		c4.361-1.489,10.279,0.949,11.727,5.243c1.223,3.626,1.827,7.462,2.704,11.204c0.404,1.727,1.239,3.476,1.141,5.171
		c-0.493,8.445-4.507,17.94-14.8,21.526c-9.266,3.228-18.505,6.537-27.78,9.736c-3.221,1.111-6.55,1.914-9.769,3.033
		c-1.868,0.649-3.354,1.53-3.334,4.156c0.122,15.535,0.041,31.071,0.024,46.606c-0.004,4.124,0.498,8.33-0.153,12.35
		c-1.23,7.574-5.319,13.57-12.5,16.666c-3.431,1.478-7.35,2.4-11.077,2.505c-11.728,0.331-23.471,0.328-35.203,0.127
		c-12.504-0.215-20.688-5.089-24.677-17.83c-0.701-2.24-0.41-4.822-0.41-7.246c0.001-17.867-0.035-35.732,0.161-53.596
		c0.028-2.561-1.664-3.048-3.069-3.547c-8.815-3.138-17.781-5.856-26.543-9.129c-5.803-2.167-12.114-3.218-17.06-7.486
		c-5.429-4.688-7.866-10.87-7.831-17.646c0.024-4.577,1.84-9.148,2.877-13.718c0.636-2.805,1.317-5.6,1.978-8.397
		c0.455-1.927,0.871-3.865,1.369-5.782c1.588-6.118,3.318-12.204,4.78-18.353c1.482-6.238,2.614-12.561,4.081-18.804
		c1.036-4.402,2.466-8.713,3.556-13.105c1.001-4.03,1.697-8.135,2.684-12.17c1.523-6.227,3.231-12.409,4.761-18.634
		c1.065-4.334,1.91-8.721,2.949-13.062c1.057-4.418,2.257-8.803,3.343-13.215c0.521-2.116,1.089-4.242,1.354-6.398
		c1.12-9.146,6.789-14.963,13.919-19.993c5.511-3.889,10.571-8.414,16.002-12.425c2.057-1.52,1.881-2.556,0.112-3.844
		c-6.853-4.987-11.932-11.526-15.084-19.235c-4.068-9.946-5.725-20.224-3.519-31.152c2.521-12.491,8.771-22.479,18.346-30.41
		c5.535-4.585,11.635-8.542,19.083-9.588c5.137-0.721,10.316-2.421,15.379-2.109c10.016,0.619,19.553,3.178,27.999,9.333
		c6.875,5.009,12.582,10.848,16.434,18.354c4.907,9.562,7.349,19.796,5.773,30.513C343.153,300.285,336.597,312.58,323.847,321.918z
		 M293.077,244.94c-9.122-0.4-16.751,3.803-23.477,10.231c-7.001,6.692-10.421,15.412-9.918,24.482
		c0.979,17.626,13.298,34.537,37.982,33.758c15.285-0.481,31.584-17.627,31.136-33.695
		C328.254,260.148,313.573,244.34,293.077,244.94z"/>
	
		<path fill-rule="evenodd" clip-rule="evenodd" fill="#C20E1A" stroke="#C20E1A" stroke-width="1.4387" stroke-linecap="round" stroke-linejoin="round" d="
		M356.894,447.883c-0.741-7.697,5.915-12.02,11.451-12.486c6.068-0.512,12.949,5.445,12.938,12.355
		c-0.01,5.297-4.911,12.321-11.978,12.277C362.25,459.986,356.469,455.374,356.894,447.883z"/>
	
		<path fill-rule="evenodd" clip-rule="evenodd" fill="#C20E1A" stroke="#C20E1A" stroke-width="1.4387" stroke-linecap="round" stroke-linejoin="round" d="
		M292.198,549.888c0-11.834,0-23.671,0-35.506c0-0.527-0.184-1.164,0.044-1.564c0.507-0.889,1.222-1.659,1.852-2.479
		c0.654,0.813,1.838,1.605,1.874,2.445c0.189,4.431,0.089,8.875,0.088,13.313c-0.001,19.021-0.002,38.04-0.003,57.061
		c0,1.269,0.259,2.608-0.07,3.785c-0.319,1.14-1.245,2.108-1.904,3.154c-0.629-1.039-1.764-2.06-1.802-3.12
		c-0.206-5.806-0.155-11.621-0.168-17.434c-0.015-6.551-0.003-13.103-0.003-19.654C292.136,549.888,292.166,549.888,292.198,549.888
		z"/>
	<path fill-rule="evenodd" clip-rule="evenodd" fill="#FFFFFF" d="M293.077,244.94c20.496-0.6,35.177,15.208,35.723,34.777
		c0.448,16.068-15.851,33.213-31.136,33.695c-24.684,0.778-37.003-16.132-37.982-33.758c-0.503-9.07,2.917-17.79,9.918-24.482
		C276.326,248.743,283.955,244.54,293.077,244.94z"/>
</g>
</svg>
