<?xml version="1.0" encoding="UTF-8"?>
<svg xmlns="http://www.w3.org/2000/svg" xmlns:xlink="http://www.w3.org/1999/xlink" width="40px" height="40px" viewBox="0 0 40 40" version="1.1">
<g id="surface1">
<path style=" stroke:none;fill-rule:nonzero;fill:rgb(0%,0%,0%);fill-opacity:1;" d="M 35.894531 22.273438 C 35.894531 21.160156 35.128906 20.21875 34.097656 19.953125 C 33.890625 17.496094 33.011719 6.925781 32.703125 3.132812 C 32.566406 1.40625 31.042969 0 29.316406 0 L 16.089844 0 C 14.359375 0 12.839844 1.40625 12.699219 3.132812 C 12.617188 4.152344 12.492188 5.660156 12.351562 7.359375 C 12.324219 7.710938 12.585938 8.019531 12.9375 8.046875 C 13.289062 8.074219 13.597656 7.816406 13.625 7.464844 C 13.765625 5.761719 13.890625 4.257812 13.972656 3.234375 C 14.058594 2.175781 15.027344 1.277344 16.089844 1.277344 L 29.316406 1.277344 C 30.375 1.277344 31.347656 2.175781 31.429688 3.234375 C 31.730469 6.945312 32.578125 17.121094 32.808594 19.878906 L 12.597656 19.878906 C 12.671875 18.957031 12.820312 17.195312 12.992188 15.121094 C 13.019531 14.773438 12.757812 14.464844 12.410156 14.433594 C 12.058594 14.40625 11.746094 14.667969 11.71875 15.019531 C 11.535156 17.234375 11.378906 19.09375 11.308594 19.953125 C 10.480469 20.164062 9.824219 20.8125 9.597656 21.632812 L 8.347656 21.632812 C 7.289062 21.632812 6.429688 20.773438 6.429688 19.71875 L 6.429688 13.15625 L 25.449219 13.15625 C 25.804688 13.15625 26.089844 12.871094 26.089844 12.519531 L 26.089844 9.964844 C 26.089844 9.613281 25.804688 9.324219 25.449219 9.324219 L 4.742188 9.324219 C 4.390625 9.324219 4.105469 9.613281 4.105469 9.964844 L 4.105469 12.519531 C 4.105469 12.871094 4.390625 13.15625 4.742188 13.15625 L 5.152344 13.15625 L 5.152344 19.71875 C 5.152344 21.480469 6.585938 22.910156 8.347656 22.910156 L 9.597656 22.910156 C 9.820312 23.71875 10.457031 24.355469 11.261719 24.582031 L 11.261719 39.363281 C 11.261719 39.714844 11.550781 40 11.902344 40 C 12.253906 40 12.539062 39.714844 12.539062 39.363281 L 12.539062 28.070312 L 13.957031 28.070312 L 14.378906 29.753906 C 14.617188 30.71875 15.585938 31.476562 16.582031 31.476562 L 28.820312 31.476562 C 29.816406 31.476562 30.785156 30.71875 31.027344 29.753906 L 31.445312 28.070312 L 32.863281 28.070312 L 32.863281 39.363281 C 32.863281 39.714844 33.148438 40 33.503906 40 C 33.855469 40 34.140625 39.714844 34.140625 39.363281 L 34.140625 24.582031 C 35.152344 24.300781 35.894531 23.371094 35.894531 22.273438 Z M 5.382812 10.601562 L 24.8125 10.601562 L 24.8125 11.878906 L 5.382812 11.878906 Z M 15.617188 29.445312 L 15.273438 28.070312 L 19.316406 28.070312 L 19.316406 30.199219 L 16.582031 30.199219 C 16.175781 30.199219 15.714844 29.839844 15.617188 29.445312 Z M 24.8125 28.070312 L 24.8125 30.199219 L 20.589844 30.199219 L 20.589844 28.070312 Z M 29.789062 29.445312 C 29.691406 29.839844 29.226562 30.199219 28.820312 30.199219 L 26.089844 30.199219 L 26.089844 28.070312 L 30.132812 28.070312 Z M 12.539062 26.792969 L 12.539062 24.667969 L 32.863281 24.667969 L 32.863281 26.792969 Z M 33.503906 23.390625 L 11.902344 23.390625 C 11.285156 23.390625 10.785156 22.886719 10.785156 22.273438 C 10.785156 21.65625 11.285156 21.15625 11.902344 21.15625 C 11.902344 21.15625 33.421875 21.15625 33.421875 21.15625 C 33.449219 21.160156 33.476562 21.160156 33.503906 21.160156 C 33.519531 21.160156 33.539062 21.160156 33.554688 21.160156 C 34.148438 21.1875 34.617188 21.675781 34.617188 22.273438 C 34.617188 22.886719 34.117188 23.390625 33.503906 23.390625 Z M 33.503906 23.390625 "/>
</g>
</svg>
