<?xml version="1.0" encoding="utf-8"?>
<!-- Generator: Adobe Illustrator 16.0.0, SVG Export Plug-In . SVG Version: 6.00 Build 0)  -->
<!DOCTYPE svg PUBLIC "-//W3C//DTD SVG 1.1//EN" "http://www.w3.org/Graphics/SVG/1.1/DTD/svg11.dtd">
<svg version="1.1" id="Ebene_1" xmlns="http://www.w3.org/2000/svg" xmlns:xlink="http://www.w3.org/1999/xlink" x="0px" y="0px"
	 width="40px" height="40px" viewBox="0 0 40 40" enable-background="new 0 0 40 40" xml:space="preserve">
<image display="none" overflow="visible" enable-background="new    " width="170" height="170" xlink:href="62D4E875.png"  transform="matrix(0.266 0 0 0.266 -4.2246 1)">
</image>
<rect x="19.425" y="22.175" fill="#EF0C23" width="3.196" height="13.363"/>
<g>
	<path d="M19.82,18.513c0.667,0,1.334,0,2,0c0.111,0.012,0.224,0.027,0.336,0.037c0.787,0.08,1.576,0.146,2.363,0.242
		c0.447,0.055,0.838,0.391,0.846,0.807c0.006,0.408,0.219,0.479,0.525,0.517c0.059,0.007,0.116,0.024,0.176,0.04
		c0.266,0.07,0.52,0.193,0.638,0.441c0.114,0.239,0.286,0.303,0.515,0.322c0.066,0.005,0.133,0.021,0.195,0.037
		c0.518,0.122,1.039,0.236,1.552,0.371c0.298,0.078,0.371,0.232,0.298,0.523c-0.033,0.131-0.072,0.256-0.109,0.385
		c-0.41,1.383-0.986,2.699-1.637,3.982c-0.041,0.079-0.074,0.176-0.07,0.262c0.015,0.414,0.048,0.824,0.068,1.238
		c0.09,1.797,0.188,3.594,0.264,5.391c0.049,1.119,0.062,2.238,0.097,3.356c0.002,0.065,0.045,0.158,0.099,0.188
		c0.621,0.367,0.838,1.246,0.453,1.861c-0.16,0.258-0.408,0.39-0.685,0.485c-4.615,0-9.23,0-13.845,0
		c-0.396-0.141-0.726-0.366-0.799-0.806c-0.044-0.266-0.035-0.545-0.002-0.813c0.038-0.317,0.238-0.553,0.522-0.688
		c0.137-0.066,0.157-0.146,0.161-0.276c0.031-1.232,0.07-2.467,0.098-3.699c0.001-0.091-0.047-0.209-0.113-0.27
		c-0.677-0.613-1.36-1.221-2.045-1.825c-0.717-0.633-1.124-1.422-1.133-2.379c-0.016-1.828-0.017-3.655-0.002-5.481
		c0.008-1.033,0.767-1.76,1.799-1.771c0.22-0.002,0.44,0,0.66,0c0.573,0,1.146,0,1.72,0c0.13-0.52,0.471-0.784,0.969-0.874
		c0.104-0.021,0.207-0.058,0.312-0.068c0.153-0.016,0.207-0.079,0.21-0.241c0.015-0.56,0.35-0.942,0.905-1.021
		c0.561-0.08,1.124-0.137,1.687-0.196C19.17,18.558,19.495,18.537,19.82,18.513z M27.211,36.558c0-0.104,0.002-0.189-0.001-0.274
		c-0.022-0.84-0.036-1.681-0.069-2.521c-0.064-1.646-0.125-3.293-0.22-4.937c-0.091-1.552-0.211-3.101-0.343-4.647
		c-0.086-0.988-0.221-1.973-0.331-2.959c-0.026-0.254-0.163-0.38-0.412-0.441c-1.194-0.295-2.413-0.453-3.64-0.494
		c-1.084-0.036-2.172-0.008-3.257,0.038c-1.066,0.044-2.121,0.211-3.159,0.468c-0.222,0.055-0.343,0.178-0.371,0.408
		c-0.09,0.788-0.213,1.572-0.276,2.363c-0.17,2.119-0.35,4.238-0.462,6.361c-0.115,2.15-0.155,4.305-0.228,6.457
		c-0.002,0.057,0,0.114,0,0.18C18.706,36.558,22.945,36.558,27.211,36.558z M20.842,37.234c-1.467,0-2.934,0-4.401,0
		c-0.767,0-1.534-0.001-2.3,0.002c-0.23,0.001-0.37,0.114-0.405,0.308c-0.07,0.387,0.001,0.67,0.208,0.751
		c0.095,0.038,0.208,0.039,0.313,0.039c4.38,0.001,8.763,0.001,13.142,0.001c0.067,0,0.142,0.012,0.199-0.014
		c0.094-0.039,0.213-0.084,0.256-0.162c0.125-0.232,0.119-0.492,0.015-0.73c-0.091-0.207-0.296-0.193-0.485-0.193
		C25.203,37.234,23.021,37.234,20.842,37.234z M14.471,23.087c-0.597,0-1.199,0-1.8,0c-0.005,0.034-0.011,0.055-0.011,0.073
		c0,1.7-0.001,3.399,0,5.099c0,0.241,0.099,0.438,0.278,0.596c0.21,0.188,0.418,0.373,0.628,0.558
		c0.137,0.121,0.274,0.241,0.418,0.367C14.148,27.532,14.309,25.315,14.471,23.087z M14.671,21.662c-0.824,0-1.61-0.021-2.396,0.006
		c-0.604,0.021-1.02,0.463-1.022,1.066c-0.009,1.854-0.006,3.708,0.002,5.562c0.004,0.604,0.218,1.153,0.647,1.569
		c0.631,0.612,1.303,1.183,1.959,1.771c0.008,0.008,0.025,0.004,0.093,0.016c0-0.271-0.011-0.535,0.004-0.797
		c0.008-0.141-0.022-0.233-0.131-0.327c-0.424-0.365-0.835-0.748-1.259-1.112c-0.398-0.339-0.579-0.762-0.573-1.283
		c0.01-0.74,0.002-1.479,0.002-2.221c0-1.02-0.001-2.041,0-3.061c0.001-0.33,0.119-0.444,0.446-0.447c0.28-0.002,0.561,0,0.841,0
		c0.425,0,0.851,0,1.294,0C14.609,22.153,14.638,21.918,14.671,21.662z M16.909,19.879c2.62-0.403,5.224-0.399,7.831-0.002
		c-0.029-0.296-0.129-0.413-0.379-0.442c-0.568-0.069-1.137-0.153-1.707-0.191c-1.786-0.118-3.569-0.081-5.343,0.188
		C17.042,19.472,16.949,19.563,16.909,19.879z M26.973,21.536c0.125,1.182,0.246,2.32,0.368,3.484
		c0.343-0.564,1.181-2.768,1.193-3.146C28.025,21.765,27.516,21.653,26.973,21.536z"/>
	<path fill="#FFFFFF" d="M27.211,36.558c-4.266,0-8.506,0-12.768,0c0-0.063-0.002-0.121,0-0.179
		c0.072-2.151,0.113-4.307,0.228-6.457c0.113-2.123,0.292-4.241,0.462-6.362c0.063-0.789,0.186-1.574,0.276-2.362
		c0.027-0.231,0.147-0.353,0.37-0.408c1.038-0.256,2.092-0.423,3.159-0.468c1.085-0.044,2.173-0.074,3.257-0.038
		c1.227,0.042,2.443,0.198,3.641,0.495c0.248,0.062,0.385,0.188,0.412,0.441c0.109,0.986,0.246,1.971,0.33,2.959
		c0.134,1.547,0.253,3.098,0.344,4.647c0.096,1.644,0.154,3.29,0.221,4.937c0.032,0.84,0.045,1.68,0.068,2.521
		C27.213,36.367,27.211,36.452,27.211,36.558z M22.221,28.776c0-0.561,0-1.12,0-1.68c0-1.082,0.006-2.162-0.003-3.242
		c-0.003-0.617-0.28-1.086-0.851-1.33c-0.535-0.229-1.046-0.133-1.485,0.259c-0.343,0.306-0.455,0.707-0.455,1.151
		c0,2.533,0,5.067,0,7.604c0,0.699-0.007,1.4,0.001,2.1c0.013,1.049,0.933,1.717,1.882,1.375c0.563-0.203,0.906-0.727,0.907-1.396
		C22.223,32.004,22.221,30.392,22.221,28.776z"/>
	<path fill="#FFFFFF" d="M20.842,37.234c2.18,0,4.361,0,6.541,0c0.19,0,0.396-0.015,0.485,0.192c0.104,0.238,0.11,0.498-0.015,0.73
		c-0.043,0.077-0.162,0.123-0.256,0.163c-0.059,0.024-0.133,0.013-0.199,0.013c-4.379,0.001-8.76,0.001-13.142-0.001
		c-0.104,0-0.218-0.002-0.313-0.038c-0.207-0.081-0.279-0.365-0.208-0.751c0.036-0.192,0.175-0.307,0.405-0.308
		c0.767-0.004,1.533-0.002,2.3-0.002C17.908,37.234,19.375,37.234,20.842,37.234z"/>
	<path fill="#FFFFFF" d="M14.671,21.662c-0.032,0.257-0.062,0.491-0.093,0.741c-0.443,0-0.869,0-1.294,0
		c-0.28,0-0.561-0.002-0.841,0c-0.328,0.002-0.445,0.117-0.446,0.447c-0.002,1.021,0,2.041,0,3.061c0,0.74,0.007,1.48-0.002,2.221
		c-0.007,0.521,0.175,0.943,0.573,1.283c0.425,0.365,0.835,0.748,1.259,1.112c0.109,0.094,0.14,0.188,0.131,0.327
		c-0.016,0.262-0.004,0.524-0.004,0.797c-0.069-0.012-0.085-0.01-0.093-0.016c-0.655-0.588-1.328-1.156-1.959-1.771
		c-0.429-0.416-0.643-0.966-0.647-1.569c-0.009-1.854-0.011-3.708-0.002-5.562c0.002-0.604,0.418-1.046,1.022-1.066
		C13.06,21.642,13.847,21.662,14.671,21.662z"/>
	<rect x="18.756" y="21.655" display="none" width="4.455" height="13.447"/>
	<path fill="#FFFFFF" d="M16.909,19.879c0.041-0.315,0.133-0.409,0.402-0.448c1.773-0.269,3.557-0.307,5.343-0.188
		c0.57,0.038,1.139,0.122,1.707,0.19c0.25,0.03,0.35,0.146,0.379,0.443C22.132,19.479,19.528,19.476,16.909,19.879z"/>
	<path fill="#FFFFFF" d="M26.973,21.536c0.543,0.118,1.055,0.229,1.563,0.338c-0.014,0.379-0.852,2.582-1.194,3.146
		C27.219,23.856,27.098,22.718,26.973,21.536z"/>
	<path d="M22.221,28.776c0,1.613,0.002,3.228,0,4.841c-0.002,0.669-0.346,1.192-0.908,1.396c-0.95,0.342-1.87-0.326-1.882-1.375
		c-0.008-0.699-0.001-1.399-0.001-2.1c0-2.535,0-5.068,0-7.604c0-0.444,0.112-0.846,0.455-1.151c0.439-0.392,0.95-0.487,1.485-0.259
		c0.572,0.244,0.848,0.714,0.852,1.33c0.008,1.08,0.002,2.16,0.002,3.242C22.221,27.656,22.221,28.218,22.221,28.776z M21.544,31.92
		c-0.117,0-0.217,0.003-0.313-0.001c-0.235-0.007-0.373-0.129-0.375-0.328c-0.002-0.197,0.131-0.318,0.367-0.334
		c0.104-0.007,0.209-0.001,0.313-0.001c0-0.267,0-0.502,0-0.751c-0.121,0-0.229,0.01-0.334-0.001
		c-0.222-0.018-0.349-0.147-0.347-0.337s0.138-0.314,0.356-0.327c0.108-0.006,0.222-0.001,0.321-0.001c0-0.269,0-0.505,0-0.744
		c-0.268-0.045-0.656,0.101-0.666-0.326c-0.012-0.463,0.406-0.299,0.666-0.354c0-0.25,0-0.491,0-0.729
		c-0.545-0.037-0.688-0.103-0.674-0.332c0.029-0.455,0.41-0.31,0.68-0.362c0-0.242,0-0.478,0-0.735c-0.126,0-0.238,0.008-0.35-0.002
		c-0.219-0.018-0.342-0.15-0.334-0.344c0.01-0.184,0.139-0.303,0.349-0.313c0.11-0.006,0.222,0,0.335,0c0-0.264,0-0.5,0-0.759
		c-0.125,0-0.234,0.005-0.348,0c-0.205-0.011-0.334-0.137-0.336-0.321c-0.002-0.188,0.119-0.315,0.326-0.33
		c0.115-0.01,0.234-0.002,0.363-0.002c0-0.172,0.01-0.312-0.002-0.449c-0.035-0.456-0.482-0.758-0.921-0.626
		c-0.35,0.104-0.524,0.368-0.525,0.798c0,3.234,0,6.468,0,9.704c0,0.053,0,0.104,0.003,0.159c0.031,0.461,0.487,0.776,0.929,0.643
		c0.421-0.129,0.613-0.537,0.488-1.074c-0.088,0-0.179,0.002-0.271-0.001c-0.255-0.007-0.394-0.123-0.394-0.327
		c0-0.207,0.139-0.324,0.391-0.33c0.098-0.002,0.193,0,0.299,0C21.544,32.414,21.544,32.183,21.544,31.92z"/>
</g>
</svg>
