<?xml version="1.0" encoding="utf-8"?>
<!-- Generator: Adobe Illustrator 16.0.0, SVG Export Plug-In . SVG Version: 6.00 Build 0)  -->
<!DOCTYPE svg PUBLIC "-//W3C//DTD SVG 1.1//EN" "http://www.w3.org/Graphics/SVG/1.1/DTD/svg11.dtd">
<svg version="1.1" id="Ebene_1" xmlns="http://www.w3.org/2000/svg" xmlns:xlink="http://www.w3.org/1999/xlink" x="0px" y="0px"
	 width="40px" height="40px" viewBox="0 0 40 40" enable-background="new 0 0 40 40" xml:space="preserve">
<image display="none" overflow="visible" enable-background="new    " width="170" height="170" xlink:href="9538C71E.png"  transform="matrix(0.266 0 0 0.266 -4.2246 1)">
</image>
<g display="none">
	<path display="inline" d="M18.774,6.099c0.941,0,1.883,0,2.822,0c0.159,0.018,0.315,0.039,0.475,0.054
		c1.111,0.112,2.228,0.207,3.334,0.341c0.634,0.077,1.186,0.552,1.193,1.139c0.008,0.575,0.311,0.675,0.741,0.727
		c0.083,0.01,0.165,0.035,0.247,0.056c0.376,0.099,0.734,0.273,0.9,0.623c0.162,0.337,0.404,0.427,0.727,0.454
		c0.094,0.008,0.186,0.031,0.275,0.053c0.729,0.172,1.465,0.333,2.188,0.523c0.42,0.11,0.523,0.328,0.422,0.74
		c-0.05,0.183-0.104,0.362-0.154,0.542c-0.58,1.951-1.395,3.807-2.313,5.619c-0.057,0.112-0.104,0.248-0.1,0.369
		c0.021,0.584,0.066,1.164,0.098,1.747c0.127,2.535,0.266,5.069,0.372,7.605c0.065,1.578,0.085,3.158,0.138,4.734
		c0.002,0.094,0.063,0.225,0.137,0.268c0.877,0.519,1.185,1.759,0.642,2.627c-0.228,0.363-0.578,0.549-0.966,0.685
		c-6.512,0-13.022,0-19.533,0c-0.559-0.198-1.024-0.516-1.128-1.137c-0.062-0.373-0.049-0.769-0.003-1.146
		c0.054-0.447,0.335-0.779,0.737-0.974c0.193-0.093,0.222-0.205,0.227-0.392c0.044-1.737,0.099-3.479,0.138-5.219
		c0.002-0.129-0.066-0.297-0.159-0.381c-0.955-0.865-1.919-1.721-2.886-2.574c-1.012-0.894-1.585-2.006-1.598-3.355
		c-0.023-2.578-0.024-5.156-0.003-7.733c0.012-1.459,1.082-2.483,2.539-2.5c0.31-0.003,0.621,0,0.931,0c0.808,0,1.616,0,2.426,0
		c0.184-0.732,0.665-1.105,1.367-1.233c0.148-0.027,0.292-0.08,0.44-0.096c0.215-0.023,0.291-0.112,0.296-0.341
		c0.021-0.789,0.494-1.329,1.277-1.44c0.791-0.113,1.586-0.193,2.38-0.276C17.858,6.163,18.316,6.136,18.774,6.099z M29.201,31.559
		c0-0.146,0.003-0.269-0.001-0.389c-0.032-1.186-0.052-2.371-0.099-3.555c-0.094-2.322-0.178-4.646-0.312-6.965
		c-0.128-2.188-0.297-4.375-0.481-6.558c-0.121-1.395-0.313-2.784-0.469-4.176c-0.039-0.357-0.229-0.535-0.582-0.622
		C25.573,8.88,23.855,8.658,22.127,8.6c-1.529-0.051-3.066-0.011-4.596,0.053c-1.505,0.063-2.992,0.298-4.457,0.66
		c-0.313,0.077-0.484,0.25-0.522,0.575c-0.128,1.112-0.301,2.219-0.39,3.333c-0.24,2.991-0.493,5.981-0.652,8.976
		c-0.162,3.033-0.219,6.072-0.321,9.109c-0.003,0.078,0,0.159,0,0.252C17.202,31.559,23.184,31.559,29.201,31.559z M20.215,32.514
		c-2.069,0-4.139,0-6.208,0c-1.082,0-2.164-0.002-3.245,0.002c-0.324,0.002-0.521,0.161-0.571,0.437
		c-0.099,0.544,0.002,0.942,0.294,1.06c0.134,0.055,0.294,0.057,0.442,0.057c6.18,0.002,12.361,0.002,18.541,0.002
		c0.095,0,0.198,0.017,0.279-0.021c0.132-0.056,0.302-0.117,0.36-0.229c0.177-0.328,0.168-0.694,0.021-1.031
		c-0.127-0.291-0.417-0.271-0.687-0.271C26.368,32.514,23.291,32.514,20.215,32.514z M11.228,12.554c-0.842,0-1.691,0-2.54,0
		c-0.007,0.048-0.015,0.076-0.015,0.103c0,2.398-0.001,4.796,0,7.193c0,0.34,0.139,0.618,0.393,0.841
		c0.296,0.263,0.59,0.522,0.886,0.785c0.193,0.17,0.387,0.34,0.59,0.518C10.772,18.825,10.999,15.698,11.228,12.554z M11.51,10.543
		c-1.163,0-2.272-0.028-3.38,0.009c-0.852,0.029-1.439,0.654-1.443,1.504c-0.012,2.615-0.009,5.23,0.004,7.847
		c0.005,0.852,0.307,1.626,0.912,2.214c0.89,0.865,1.839,1.668,2.764,2.497c0.011,0.01,0.035,0.006,0.131,0.021
		c0-0.384-0.016-0.756,0.006-1.125c0.012-0.195-0.032-0.328-0.185-0.461c-0.599-0.516-1.178-1.056-1.777-1.568
		c-0.561-0.479-0.817-1.074-0.808-1.812c0.013-1.045,0.003-2.089,0.003-3.133c0-1.439-0.002-2.879,0.001-4.318
		c0.001-0.464,0.167-0.627,0.629-0.631c0.395-0.003,0.791,0,1.186,0c0.601,0,1.201,0,1.826,0
		C11.423,11.236,11.464,10.905,11.51,10.543z M14.667,8.028c3.696-0.57,7.37-0.563,11.047-0.003
		c-0.041-0.418-0.181-0.583-0.532-0.625c-0.804-0.097-1.604-0.216-2.408-0.27c-2.521-0.167-5.038-0.114-7.54,0.265
		C14.855,7.452,14.724,7.583,14.667,8.028z M28.865,10.366c0.176,1.667,0.347,3.273,0.52,4.916c0.482-0.796,1.665-3.904,1.684-4.439
		C30.352,10.688,29.631,10.531,28.865,10.366z"/>
	<path display="inline" fill="#FFFFFF" d="M29.201,31.559c-6.018,0-12,0-18.012,0c0-0.091-0.003-0.172,0-0.252
		c0.102-3.037,0.159-6.076,0.321-9.107c0.16-2.995,0.412-5.985,0.652-8.976c0.089-1.114,0.262-2.221,0.39-3.333
		c0.038-0.326,0.208-0.498,0.522-0.575c1.465-0.361,2.952-0.597,4.457-0.66c1.53-0.063,3.067-0.104,4.596-0.053
		c1.729,0.059,3.446,0.281,5.135,0.698c0.35,0.087,0.541,0.265,0.581,0.622c0.155,1.392,0.347,2.781,0.466,4.176
		c0.188,2.183,0.356,4.369,0.484,6.554c0.135,2.318,0.219,4.644,0.311,6.966c0.047,1.184,0.064,2.366,0.1,3.555
		C29.204,31.29,29.201,31.41,29.201,31.559z M22.16,20.58c0-0.789,0-1.58,0-2.37c0-1.524,0.008-3.048-0.003-4.572
		c-0.005-0.871-0.396-1.533-1.2-1.876c-0.756-0.323-1.476-0.189-2.095,0.364c-0.484,0.431-0.642,0.997-0.642,1.624
		c0.001,3.575,0.001,7.15,0.001,10.727c0,0.986-0.01,1.978,0.002,2.963c0.018,1.479,1.316,2.42,2.657,1.938
		c0.793-0.284,1.278-1.022,1.279-1.967C22.162,25.134,22.16,22.857,22.16,20.58z"/>
	<path display="inline" fill="#FFFFFF" d="M20.215,32.514c3.076,0,6.153,0,9.229,0c0.271,0,0.561-0.02,0.688,0.271
		c0.146,0.337,0.155,0.703-0.021,1.031c-0.061,0.107-0.229,0.174-0.359,0.229c-0.081,0.035-0.188,0.02-0.277,0.02
		c-6.182,0.002-12.362,0.002-18.542-0.002c-0.147,0-0.308-0.002-0.442-0.055c-0.292-0.113-0.393-0.516-0.294-1.06
		c0.05-0.272,0.247-0.433,0.571-0.435c1.082-0.006,2.163-0.003,3.245-0.003C16.077,32.514,18.146,32.514,20.215,32.514z"/>
	<path display="inline" fill="#FFFFFF" d="M11.51,10.543c-0.045,0.362-0.087,0.693-0.131,1.045c-0.625,0-1.226,0-1.826,0
		c-0.395,0-0.791-0.003-1.186,0c-0.462,0.004-0.628,0.167-0.629,0.631c-0.003,1.439-0.001,2.879-0.001,4.318
		c0,1.044,0.01,2.088-0.003,3.133c-0.01,0.734,0.247,1.331,0.808,1.811c0.6,0.517,1.178,1.057,1.777,1.569
		c0.153,0.132,0.197,0.265,0.185,0.461c-0.022,0.369-0.006,0.741-0.006,1.125c-0.097-0.017-0.12-0.013-0.131-0.021
		c-0.924-0.829-1.874-1.633-2.764-2.497c-0.605-0.588-0.907-1.362-0.912-2.214c-0.013-2.617-0.016-5.232-0.004-7.847
		c0.003-0.85,0.591-1.475,1.443-1.504C9.237,10.515,10.347,10.543,11.51,10.543z"/>
	<rect x="17.274" y="10.533" display="inline" width="6.285" height="18.971"/>
	<path display="inline" fill="#FFFFFF" d="M14.667,8.028c0.058-0.445,0.188-0.577,0.567-0.634c2.502-0.378,5.018-0.431,7.54-0.265
		c0.807,0.054,1.604,0.172,2.408,0.27c0.354,0.042,0.491,0.207,0.532,0.625C22.036,7.465,18.362,7.458,14.667,8.028z"/>
	<path display="inline" fill="#FFFFFF" d="M28.865,10.366c0.766,0.166,1.486,0.322,2.203,0.477
		c-0.021,0.535-1.201,3.643-1.687,4.439C29.212,13.639,29.041,12.032,28.865,10.366z"/>
	<path display="inline" d="M22.16,20.58c0,2.277,0.002,4.554-0.001,6.83c-0.001,0.943-0.486,1.683-1.279,1.967
		c-1.34,0.482-2.639-0.459-2.657-1.938c-0.012-0.987-0.002-1.979-0.002-2.963c0-3.576,0-7.15-0.001-10.729
		c0-0.627,0.158-1.193,0.642-1.624c0.619-0.553,1.339-0.687,2.095-0.364c0.807,0.343,1.195,1.006,1.2,1.876
		c0.011,1.523,0.003,3.047,0.003,4.572C22.16,19,22.16,19.791,22.16,20.58z M21.206,25.016c-0.165,0-0.306,0.004-0.442-0.002
		c-0.333-0.01-0.526-0.182-0.529-0.462c-0.003-0.278,0.184-0.45,0.519-0.472c0.146-0.01,0.294-0.001,0.439-0.001
		c0-0.376,0-0.708,0-1.06c-0.17,0-0.322,0.012-0.471-0.002c-0.313-0.024-0.494-0.209-0.49-0.478
		c0.003-0.269,0.193-0.442,0.501-0.461c0.154-0.011,0.313-0.001,0.453-0.001c0-0.379,0-0.713,0-1.051
		c-0.377-0.064-0.923,0.141-0.938-0.463c-0.017-0.65,0.572-0.418,0.938-0.5c0-0.353,0-0.692,0-1.029
		c-0.769-0.054-0.97-0.145-0.951-0.468c0.042-0.644,0.578-0.437,0.958-0.513c0-0.341,0-0.673,0-1.037
		c-0.178,0-0.336,0.011-0.492-0.003c-0.308-0.026-0.482-0.213-0.47-0.486c0.012-0.258,0.194-0.427,0.492-0.44
		c0.154-0.008,0.313-0.002,0.475-0.002c0-0.371,0-0.706,0-1.069c-0.178,0-0.333,0.007-0.49-0.001
		c-0.29-0.015-0.471-0.193-0.475-0.454c-0.003-0.263,0.168-0.444,0.459-0.466c0.164-0.014,0.332-0.003,0.515-0.003
		c0-0.241,0.015-0.438-0.003-0.634c-0.051-0.643-0.684-1.069-1.299-0.884c-0.494,0.147-0.74,0.519-0.741,1.126
		c0,4.562,0,9.126,0,13.688c0,0.073,0,0.147,0.004,0.227c0.044,0.65,0.687,1.096,1.311,0.904c0.593-0.182,0.866-0.758,0.689-1.516
		c-0.123,0-0.252,0.003-0.381-0.001c-0.36-0.011-0.553-0.175-0.555-0.462c0-0.293,0.195-0.459,0.551-0.466
		c0.138-0.003,0.272,0,0.421,0C21.206,25.713,21.206,25.385,21.206,25.016z"/>
</g>
<g id="Ebene_2">
	<circle fill="#FFFFFF" cx="19.732" cy="25.5" r="13.304"/>
</g>
<circle fill="none" stroke="#010101" stroke-width="0.5" stroke-miterlimit="10" cx="19.742" cy="25.562" r="13.438"/>
<path fill="none" stroke="#C20E1A" stroke-width="0.5" stroke-linecap="round" stroke-linejoin="round" d="M26.223,19.742
	c3.231,3.603,2.999,9.125-0.521,12.444"/>
<path fill="none" stroke="#C20E1A" stroke-width="0.5" stroke-linecap="round" stroke-linejoin="round" d="M16.251,17.45
	c1.826-0.74,3.844-0.857,5.743-0.333"/>
<path fill="none" stroke="#C20E1A" stroke-width="0.5" stroke-linecap="round" stroke-linejoin="round" d="M13.514,32.199
	c-3.299-3.089-3.761-8.156-1.076-11.79"/>
<path fill="none" stroke="#C20E1A" stroke-width="0.5" stroke-linecap="round" stroke-linejoin="round" d="M20.859,34.515
	c-0.417,0.059-0.837,0.088-1.258,0.088c-0.496,0-0.99-0.04-1.479-0.122"/>
<path fill="none" stroke="#010101" stroke-width="0.5" stroke-linecap="round" stroke-linejoin="round" d="M13.876,18.994
	l0.234,4.299l1.21,1.263l-0.345,8.51c0,0,0.234,1.116,1.123,0.976c0.557-0.055,1.03-0.426,1.216-0.952
	c0.07-0.234-0.491-8.3-0.491-8.3l1.357-1.496l0.046-4.299"/>
<line fill="none" stroke="#010101" stroke-width="0.5" stroke-linecap="round" stroke-linejoin="round" x1="15.344" y1="19.018" x2="15.462" y2="23.012"/>
<line fill="none" stroke="#010101" stroke-width="0.5" stroke-linecap="round" stroke-linejoin="round" x1="16.702" y1="19.088" x2="16.818" y2="22.918"/>
<path fill="none" stroke="#010101" stroke-width="0.5" stroke-linecap="round" stroke-linejoin="round" d="M22.379,25.07
	l-0.49,7.409c0,0-0.07,1.305,1.029,1.445c1.1,0.14,1.334-0.702,1.239-1.754c-0.094-1.054-0.326-7.218-0.326-7.218
	c0.913-0.503,1.458-1.484,1.401-2.526c-0.139-1.755-1.238-3.315-2.244-3.292s-1.918,1.281-1.896,3.105
	C21.116,24.064,21.373,24.648,22.379,25.07z"/>
</svg>
