<?xml version="1.0" encoding="utf-8"?>
<!-- Generator: Adobe Illustrator 16.0.0, SVG Export Plug-In . SVG Version: 6.00 Build 0)  -->
<!DOCTYPE svg PUBLIC "-//W3C//DTD SVG 1.1//EN" "http://www.w3.org/Graphics/SVG/1.1/DTD/svg11.dtd">
<svg version="1.1" id="Ebene_1" xmlns="http://www.w3.org/2000/svg" xmlns:xlink="http://www.w3.org/1999/xlink" x="0px" y="0px"
	 width="40px" height="40px" viewBox="0 0 40 40" enable-background="new 0 0 40 40" xml:space="preserve">
<image display="none" overflow="visible" enable-background="new    " width="170" height="170" xlink:href="E9078D14.png"  transform="matrix(0.266 0 0 0.266 -4.2246 1)">
</image>
<g>
	<path d="M10.59,23.612c-0.322,0-0.634,0-0.946,0c-0.201,0-0.403,0.005-0.604-0.001c-0.284-0.012-0.449-0.17-0.442-0.41
		c0.007-0.233,0.165-0.373,0.444-0.377c0.411-0.005,0.823,0,1.234,0c0.102,0,0.205,0,0.312,0c0.01-0.079,0.021-0.121,0.021-0.162
		c0.001-0.315,0.001-0.629,0.001-0.988c-0.307,0-0.601,0-0.894,0c-0.21,0-0.42,0.004-0.631,0.001
		c-0.308-0.002-0.483-0.145-0.488-0.392c-0.006-0.25,0.162-0.393,0.474-0.395c0.499-0.003,0.996,0,1.514,0c0-0.386,0-0.748,0-1.143
		c-0.085-0.004-0.178-0.012-0.271-0.013c-0.429-0.001-0.857,0.003-1.286-0.001c-0.268-0.003-0.431-0.156-0.432-0.389
		c-0.002-0.237,0.158-0.391,0.427-0.392c0.963-0.004,1.926-0.003,2.889-0.003c4.885,0,9.771,0.005,14.655-0.004
		c1.112-0.001,2.226-0.034,3.324,0.172c0.356,0.066,0.709,0.182,1.047,0.319c0.249,0.101,0.373,0.318,0.373,0.607
		c-0.004,5.018-0.004,10.034-0.005,15.05c0,0.788,0.005,1.576,0.005,2.364c0,0.433-0.23,0.755-0.597,0.917
		c-0.475,0.208-0.975,0.397-1.481,0.492c-1.376,0.256-2.751,0.216-4.108-0.167c-0.05-0.015-0.1-0.032-0.148-0.049
		c-0.92-0.32-1.131-0.597-1.192-1.588c-0.114,0-0.231,0-0.35,0c-4.745,0-9.491,0-14.235,0c-0.053,0-0.105,0.001-0.157-0.002
		c-0.287-0.012-0.451-0.164-0.445-0.406c0.005-0.237,0.155-0.373,0.438-0.379c0.43-0.008,0.859-0.002,1.288-0.004
		c0.085,0,0.17-0.009,0.269-0.013c0-0.378,0-0.732,0-1.136c-0.185,0-0.373,0-0.561,0c-0.333,0-0.666,0.005-0.999-0.002
		c-0.267-0.006-0.434-0.158-0.438-0.387c-0.004-0.241,0.161-0.396,0.449-0.399c0.506-0.004,1.013-0.001,1.542-0.001
		c0-0.382,0-0.745,0-1.152c-0.173,0-0.352,0-0.532,0c-0.324,0-0.647,0.002-0.971-0.001c-0.311-0.002-0.484-0.144-0.487-0.389
		c-0.004-0.247,0.17-0.393,0.479-0.395c0.498-0.002,0.995,0,1.514,0c0-0.367,0-0.711,0-1.102c-0.177,0-0.356,0-0.537,0
		c-0.35,0-0.7,0.003-1.05-0.004c-0.25-0.004-0.404-0.16-0.404-0.388c0-0.225,0.155-0.387,0.403-0.393
		c0.429-0.008,0.858-0.002,1.287-0.002c0.095,0,0.19,0,0.303,0c0-0.385,0-0.747,0-1.152c-0.351,0-0.697,0-1.044,0
		c-0.167,0-0.333,0.004-0.499-0.002c-0.292-0.007-0.454-0.15-0.45-0.395c0.003-0.238,0.172-0.387,0.462-0.39
		c0.412-0.005,0.823-0.001,1.234-0.001c0.094,0,0.188,0,0.299,0c0-0.385,0-0.739,0-1.126c-0.101-0.007-0.202-0.017-0.302-0.019
		c-0.394-0.002-0.789,0.002-1.182-0.002c-0.346-0.003-0.51-0.131-0.511-0.39c0-0.258,0.172-0.397,0.505-0.4
		c0.394-0.005,0.788-0.001,1.182-0.001c0.096,0,0.19,0,0.324,0c0-0.205,0-0.385,0-0.565c0-0.174,0-0.348,0-0.555
		c-0.125-0.007-0.234-0.017-0.344-0.017c-0.411-0.002-0.823,0.006-1.234-0.004c-0.276-0.008-0.432-0.158-0.433-0.392
		c-0.001-0.236,0.147-0.392,0.424-0.397c0.515-0.012,1.031-0.004,1.567-0.004C10.59,24.334,10.59,23.988,10.59,23.612z
		 M23.801,36.255c0-5.52,0-11.012,0-16.505c-4.124,0-8.251,0-12.388,0c0,5.508,0,10.999,0,16.505
		C15.544,36.255,19.653,36.255,23.801,36.255z M30.521,22.018c-1.984,0.398-3.947,0.396-5.937,0c0,0.123,0,0.226,0,0.329
		c0,4.518,0.002,9.034-0.008,13.552c0,0.282,0.103,0.402,0.354,0.435c0.658,0.083,1.314,0.191,1.976,0.232
		c1.094,0.066,2.187,0.011,3.264-0.227c0.234-0.052,0.361-0.13,0.36-0.424c-0.013-4.553-0.009-9.104-0.009-13.656
		C30.521,22.181,30.521,22.104,30.521,22.018z M24.609,37.086c-0.063,0.473-0.018,0.563,0.408,0.729
		c1.033,0.402,2.11,0.46,3.199,0.39c0.656-0.042,1.304-0.144,1.915-0.401c0.396-0.168,0.463-0.313,0.347-0.719
		C28.25,37.475,27.404,37.476,24.609,37.086z M30.504,20.712c-1.969,0.394-3.927,0.388-5.886,0.005
		c-0.08,0.428-0.067,0.479,0.331,0.547c0.594,0.102,1.19,0.193,1.789,0.231c1.136,0.075,2.271,0.034,3.389-0.218
		C30.547,21.182,30.545,21.176,30.504,20.712z M25.073,19.973c1.102,0.334,4.17,0.307,4.933-0.01
		C29.16,19.64,25.899,19.662,25.073,19.973z"/>
	<path fill="#FFFFFF" d="M23.801,36.255c-4.147,0-8.257,0-12.388,0c0-5.506,0-10.997,0-16.505c4.136,0,8.264,0,12.388,0
		C23.801,25.242,23.801,30.735,23.801,36.255z M13.507,21.674c0.113,0,0.199,0,0.286,0c2.949,0,5.899,0,8.848,0.001
		c0.421,0,0.617-0.128,0.615-0.402c-0.001-0.263-0.188-0.385-0.597-0.385c-3.151-0.002-6.301-0.001-9.453,0
		c-0.383,0-0.499,0.126-0.499,0.532c0,4.376,0,8.752,0,13.13c0,0.533,0.09,0.626,0.621,0.626c3.134,0.001,6.268,0,9.4,0
		c0.062,0,0.125,0.005,0.183-0.008c0.216-0.045,0.349-0.18,0.338-0.401c-0.009-0.217-0.137-0.354-0.364-0.372
		c-0.096-0.01-0.192-0.006-0.289-0.006c-2.932,0-5.864,0.001-8.796,0.001c-0.093,0-0.186-0.009-0.293-0.015
		C13.507,30.139,13.507,25.924,13.507,21.674z M15.714,23.826c0.106,0,0.193,0,0.279,0c2.189,0,4.377,0,6.566,0
		c0.113,0,0.229,0.008,0.34-0.007c0.221-0.03,0.379-0.213,0.354-0.417c-0.025-0.217-0.151-0.348-0.38-0.36
		c-0.069-0.003-0.14-0.003-0.209-0.003c-2.39,0-4.78,0-7.17,0c-0.485,0-0.579,0.096-0.579,0.583c0,2.959,0,5.918-0.001,8.876
		c0,0.538,0.09,0.631,0.617,0.63c2.373-0.001,4.745-0.001,7.117-0.001c0.417,0,0.616-0.131,0.609-0.401
		c-0.009-0.263-0.195-0.382-0.604-0.382c-2.188,0-4.376,0-6.565,0.001c-0.12,0-0.24,0-0.375,0
		C15.714,29.497,15.714,26.682,15.714,23.826z"/>
	<path fill="#FFFFFF" d="M30.521,22.018c0,0.086,0,0.163,0,0.24c0,4.553-0.004,9.104,0.009,13.655
		c0.001,0.295-0.126,0.373-0.36,0.425c-1.077,0.237-2.17,0.293-3.264,0.227c-0.661-0.04-1.317-0.148-1.976-0.231
		c-0.251-0.032-0.354-0.152-0.354-0.436c0.01-4.517,0.008-9.034,0.008-13.552c0-0.104,0-0.206,0-0.328
		C26.575,22.412,28.536,22.416,30.521,22.018z"/>
	<path fill="#FFFFFF" d="M24.609,37.086c2.795,0.39,3.641,0.389,5.869-0.001c0.115,0.404,0.05,0.551-0.347,0.719
		c-0.611,0.258-1.259,0.359-1.915,0.401c-1.089,0.07-2.166,0.013-3.199-0.391C24.591,37.648,24.546,37.559,24.609,37.086z"/>
	<path fill="#FFFFFF" d="M30.504,20.712c0.041,0.464,0.043,0.47-0.377,0.565c-1.118,0.251-2.253,0.292-3.389,0.217
		c-0.599-0.039-1.196-0.13-1.789-0.23c-0.398-0.068-0.41-0.12-0.331-0.549C26.577,21.1,28.535,21.105,30.504,20.712z"/>
	<path fill="#FFFFFF" d="M25.073,19.973c0.826-0.311,4.087-0.333,4.933-0.01C29.243,20.279,26.175,20.307,25.073,19.973z"/>
	<path d="M13.507,21.674c0,4.25,0,8.463,0,12.701c0.107,0.006,0.2,0.015,0.294,0.015c2.932,0,5.865-0.001,8.795-0.001
		c0.098,0,0.193-0.004,0.29,0.006c0.228,0.018,0.355,0.155,0.364,0.372c0.011,0.221-0.122,0.356-0.339,0.401
		c-0.058,0.013-0.12,0.008-0.183,0.008c-3.133,0-6.266,0.001-9.399,0c-0.532,0-0.621-0.092-0.621-0.626c0-4.376,0-8.753,0-13.13
		c0-0.405,0.116-0.532,0.499-0.532c3.151-0.001,6.302-0.002,9.453,0c0.41,0,0.598,0.122,0.598,0.385
		c0.001,0.274-0.195,0.402-0.615,0.402c-2.949-0.001-5.899-0.001-8.849-0.001C13.706,21.674,13.62,21.674,13.507,21.674z"/>
	<path d="M15.714,23.826c0,2.854,0,5.671,0,8.519c0.135,0,0.254,0,0.375,0c2.188-0.001,4.377-0.001,6.565-0.001
		c0.409,0,0.596,0.119,0.604,0.382c0.007,0.271-0.192,0.401-0.609,0.401c-2.373,0-4.745,0-7.117,0.001
		c-0.527,0.001-0.617-0.092-0.617-0.63c0.001-2.957,0-5.916,0.001-8.876c0-0.487,0.094-0.583,0.579-0.583c2.39,0,4.78,0,7.17,0
		c0.07,0,0.14,0,0.209,0.003c0.229,0.013,0.354,0.144,0.38,0.36c0.025,0.204-0.133,0.387-0.354,0.417
		c-0.111,0.015-0.227,0.007-0.34,0.007c-2.189,0-4.377,0-6.566,0C15.907,23.826,15.82,23.826,15.714,23.826z"/>
</g>
<rect x="15.714" y="23.791" fill="#EF0C23" width="7.273" height="8.553"/>
<g display="none">
	<path display="inline" d="M18.774,6.099c0.941,0,1.883,0,2.822,0c0.159,0.018,0.315,0.039,0.475,0.054
		c1.111,0.112,2.226,0.207,3.334,0.341c0.632,0.077,1.184,0.552,1.193,1.139c0.008,0.575,0.309,0.675,0.741,0.727
		c0.083,0.01,0.165,0.035,0.247,0.056c0.376,0.099,0.734,0.273,0.9,0.623c0.162,0.337,0.404,0.427,0.727,0.454
		c0.094,0.008,0.186,0.031,0.275,0.053c0.729,0.172,1.465,0.333,2.189,0.523c0.418,0.11,0.523,0.328,0.42,0.74
		c-0.048,0.183-0.102,0.362-0.154,0.542c-0.58,1.951-1.393,3.807-2.311,5.619c-0.057,0.112-0.104,0.248-0.1,0.369
		c0.021,0.584,0.068,1.164,0.098,1.747c0.127,2.535,0.264,5.069,0.372,7.605c0.067,1.578,0.085,3.158,0.136,4.736
		c0.002,0.092,0.063,0.223,0.137,0.266c0.877,0.519,1.185,1.759,0.642,2.627c-0.228,0.363-0.578,0.549-0.966,0.685
		c-6.512,0-13.022,0-19.533,0c-0.559-0.198-1.024-0.516-1.128-1.137c-0.062-0.373-0.049-0.769-0.003-1.146
		c0.054-0.447,0.335-0.779,0.737-0.972c0.193-0.093,0.222-0.205,0.227-0.39c0.044-1.739,0.099-3.479,0.138-5.219
		c0.002-0.129-0.066-0.297-0.159-0.381c-0.955-0.865-1.919-1.721-2.886-2.574c-1.012-0.894-1.585-2.006-1.598-3.357
		c-0.023-2.578-0.024-5.156-0.003-7.733c0.012-1.459,1.082-2.483,2.539-2.5c0.31-0.003,0.621,0,0.931,0c0.808,0,1.616,0,2.426,0
		c0.184-0.732,0.665-1.106,1.367-1.233c0.148-0.027,0.292-0.08,0.44-0.096c0.215-0.023,0.291-0.112,0.296-0.341
		c0.021-0.789,0.494-1.329,1.277-1.44c0.791-0.113,1.586-0.193,2.38-0.276C17.858,6.163,18.316,6.136,18.774,6.099z M29.201,31.559
		c0-0.147,0.003-0.269-0.001-0.389c-0.032-1.186-0.052-2.371-0.099-3.555c-0.092-2.322-0.176-4.646-0.31-6.965
		c-0.128-2.188-0.297-4.373-0.483-6.556c-0.121-1.395-0.312-2.784-0.467-4.176c-0.039-0.357-0.23-0.535-0.582-0.622
		C25.573,8.88,23.855,8.658,22.127,8.6c-1.529-0.051-3.066-0.011-4.596,0.053c-1.505,0.063-2.992,0.298-4.457,0.66
		c-0.313,0.077-0.484,0.25-0.522,0.575c-0.128,1.112-0.301,2.219-0.39,3.333c-0.24,2.991-0.493,5.981-0.652,8.976
		c-0.162,3.033-0.219,6.072-0.321,9.109c-0.003,0.08,0,0.161,0,0.252C17.202,31.559,23.184,31.559,29.201,31.559z M20.215,32.514
		c-2.069,0-4.139,0-6.208,0c-1.082,0-2.164-0.002-3.245,0.002c-0.324,0.002-0.521,0.161-0.571,0.435
		c-0.099,0.544,0.002,0.944,0.294,1.06c0.134,0.053,0.294,0.055,0.442,0.055c6.18,0.002,12.361,0.002,18.541,0.002
		c0.095,0,0.198,0.017,0.279-0.02c0.132-0.056,0.302-0.119,0.36-0.229c0.177-0.329,0.168-0.695,0.021-1.032
		c-0.127-0.291-0.417-0.272-0.686-0.272C26.368,32.514,23.291,32.514,20.215,32.514z M11.228,12.554c-0.842,0-1.691,0-2.54,0
		c-0.007,0.048-0.015,0.076-0.015,0.103c0,2.398-0.001,4.796,0,7.193c0,0.34,0.139,0.618,0.393,0.841
		c0.296,0.263,0.59,0.524,0.886,0.785c0.193,0.17,0.387,0.34,0.59,0.518C10.772,18.825,10.999,15.698,11.228,12.554z M11.51,10.543
		c-1.163,0-2.272-0.028-3.38,0.009c-0.852,0.029-1.439,0.654-1.443,1.504c-0.012,2.615-0.009,5.23,0.004,7.847
		c0.005,0.852,0.307,1.626,0.912,2.214c0.89,0.865,1.839,1.668,2.764,2.497c0.011,0.01,0.035,0.006,0.131,0.021
		c0-0.384-0.016-0.756,0.006-1.125c0.012-0.196-0.032-0.329-0.185-0.461c-0.599-0.516-1.178-1.056-1.777-1.569
		c-0.561-0.479-0.817-1.075-0.808-1.811c0.013-1.045,0.003-2.089,0.003-3.133c0-1.439-0.002-2.879,0.001-4.318
		c0.001-0.464,0.167-0.627,0.629-0.631c0.395-0.003,0.791,0,1.186,0c0.601,0,1.201,0,1.826,0
		C11.423,11.236,11.464,10.905,11.51,10.543z M14.667,8.028c3.696-0.57,7.37-0.563,11.047-0.003
		c-0.041-0.418-0.181-0.583-0.532-0.625c-0.804-0.097-1.604-0.216-2.408-0.27c-2.521-0.167-5.038-0.114-7.54,0.265
		C14.855,7.452,14.724,7.583,14.667,8.028z M28.865,10.366c0.176,1.667,0.347,3.273,0.52,4.916c0.482-0.796,1.665-3.904,1.684-4.439
		C30.352,10.688,29.631,10.531,28.865,10.366z"/>
	<path display="inline" fill="#FFFFFF" d="M29.201,31.559c-6.018,0-12,0-18.012,0c0-0.091-0.003-0.172,0-0.252
		c0.102-3.037,0.159-6.076,0.321-9.109c0.16-2.995,0.412-5.985,0.652-8.976c0.089-1.114,0.262-2.221,0.39-3.333
		c0.038-0.326,0.208-0.498,0.522-0.575c1.465-0.361,2.952-0.597,4.457-0.66c1.53-0.063,3.067-0.104,4.596-0.053
		c1.729,0.059,3.446,0.281,5.135,0.698c0.35,0.087,0.541,0.265,0.581,0.622c0.155,1.392,0.347,2.781,0.466,4.176
		c0.188,2.183,0.356,4.369,0.484,6.556c0.135,2.318,0.219,4.642,0.311,6.964c0.047,1.184,0.064,2.368,0.098,3.555
		C29.204,31.29,29.201,31.41,29.201,31.559z M22.16,20.58c0-0.789,0-1.58,0-2.37c0-1.524,0.008-3.048-0.003-4.572
		c-0.005-0.871-0.396-1.533-1.2-1.876c-0.756-0.323-1.476-0.189-2.095,0.364c-0.484,0.431-0.642,0.997-0.642,1.624
		c0.001,3.575,0.001,7.15,0.001,10.727c0,0.986-0.01,1.976,0.002,2.963c0.018,1.479,1.316,2.42,2.657,1.938
		c0.793-0.284,1.278-1.023,1.279-1.967C22.162,25.134,22.16,22.857,22.16,20.58z"/>
	<path display="inline" fill="#FFFFFF" d="M20.215,32.514c3.076,0,6.153,0,9.229,0c0.269,0,0.559-0.02,0.686,0.271
		c0.146,0.337,0.155,0.703-0.021,1.031c-0.06,0.109-0.229,0.174-0.36,0.229c-0.081,0.035-0.187,0.019-0.279,0.019
		c-6.18,0.002-12.36,0.002-18.541-0.002c-0.147,0-0.308-0.002-0.442-0.054c-0.292-0.114-0.393-0.516-0.294-1.06
		c0.05-0.272,0.247-0.432,0.571-0.434c1.082-0.005,2.163-0.002,3.245-0.002C16.077,32.514,18.146,32.514,20.215,32.514z"/>
	<path display="inline" fill="#FFFFFF" d="M11.51,10.543c-0.045,0.362-0.087,0.693-0.131,1.045c-0.625,0-1.226,0-1.826,0
		c-0.395,0-0.791-0.003-1.186,0c-0.462,0.004-0.628,0.167-0.629,0.631c-0.003,1.439-0.001,2.879-0.001,4.318
		c0,1.044,0.01,2.088-0.003,3.133c-0.01,0.734,0.247,1.331,0.808,1.811c0.6,0.515,1.178,1.055,1.777,1.569
		c0.153,0.132,0.197,0.265,0.185,0.461c-0.022,0.369-0.006,0.741-0.006,1.125c-0.097-0.017-0.12-0.013-0.131-0.021
		c-0.924-0.829-1.874-1.632-2.764-2.497c-0.605-0.588-0.907-1.362-0.912-2.214c-0.013-2.617-0.016-5.232-0.004-7.847
		c0.003-0.85,0.591-1.475,1.443-1.504C9.237,10.515,10.347,10.543,11.51,10.543z"/>
	<rect x="17.274" y="10.533" display="inline" width="6.285" height="18.971"/>
	<path display="inline" fill="#FFFFFF" d="M14.667,8.028c0.058-0.445,0.188-0.577,0.567-0.634c2.502-0.378,5.018-0.431,7.54-0.265
		c0.805,0.054,1.604,0.172,2.408,0.27c0.353,0.042,0.491,0.207,0.532,0.625C22.036,7.465,18.362,7.458,14.667,8.028z"/>
	<path display="inline" fill="#FFFFFF" d="M28.865,10.366c0.766,0.166,1.486,0.322,2.203,0.477c-0.02,0.535-1.201,3.643-1.685,4.439
		C29.212,13.639,29.041,12.032,28.865,10.366z"/>
	<path display="inline" d="M22.16,20.58c0,2.277,0.002,4.554-0.001,6.83c-0.001,0.943-0.486,1.683-1.279,1.967
		c-1.34,0.482-2.639-0.459-2.657-1.938c-0.012-0.987-0.002-1.977-0.002-2.963c0-3.576,0-7.15-0.001-10.727
		c0-0.627,0.158-1.193,0.642-1.624c0.619-0.553,1.339-0.687,2.095-0.364c0.807,0.343,1.195,1.006,1.2,1.876
		c0.011,1.523,0.003,3.047,0.003,4.572C22.16,19,22.16,19.791,22.16,20.58z M21.206,25.016c-0.165,0-0.306,0.004-0.442-0.002
		c-0.333-0.01-0.526-0.182-0.529-0.462c-0.003-0.278,0.184-0.45,0.519-0.472c0.146-0.01,0.294-0.001,0.439-0.001
		c0-0.376,0-0.708,0-1.06c-0.17,0-0.322,0.012-0.471-0.002c-0.312-0.024-0.492-0.209-0.488-0.476
		c0.003-0.267,0.193-0.444,0.503-0.461c0.154-0.009,0.312-0.001,0.453-0.001c0-0.379,0-0.713,0-1.05
		c-0.377-0.065-0.925,0.14-0.939-0.462c-0.017-0.652,0.573-0.42,0.939-0.5c0-0.353,0-0.692,0-1.029
		c-0.769-0.054-0.971-0.145-0.951-0.468c0.042-0.644,0.578-0.437,0.959-0.513c0-0.341,0-0.673,0-1.037
		c-0.178,0-0.336,0.011-0.493-0.003c-0.308-0.026-0.482-0.213-0.47-0.486c0.012-0.258,0.194-0.427,0.491-0.44
		c0.155-0.008,0.313-0.002,0.474-0.002c0-0.371,0-0.706,0-1.069c-0.177,0-0.333,0.007-0.49-0.001
		c-0.29-0.015-0.471-0.193-0.475-0.454c-0.003-0.263,0.168-0.444,0.46-0.466c0.164-0.014,0.332-0.003,0.514-0.003
		c0-0.241,0.014-0.439-0.003-0.634c-0.05-0.643-0.683-1.069-1.299-0.884c-0.494,0.147-0.74,0.519-0.741,1.126
		c0,4.562,0,9.126,0,13.689c0,0.074,0,0.148,0.004,0.226c0.044,0.651,0.687,1.096,1.311,0.905c0.593-0.181,0.865-0.758,0.689-1.515
		c-0.123,0-0.252,0.003-0.381-0.001c-0.36-0.011-0.553-0.175-0.555-0.462c0-0.293,0.195-0.459,0.551-0.466
		c0.138-0.003,0.273,0,0.421,0C21.206,25.713,21.206,25.385,21.206,25.016z"/>
</g>
<g display="none">
	<path display="inline" d="M7.389,9.724C8.231,8.413,9.38,7.813,10.83,7.802c2.271-0.017,4.542-0.007,6.813-0.009
		c3.125-0.003,6.251-0.012,9.376-0.01c1.643,0.001,2.896,0.698,3.707,2.141c0.301,0.536,0.428,1.129,0.436,1.732
		c0.018,1.63,0.002,3.26,0.004,4.891c0,1.397,0.009,2.794,0.009,4.192c0,1.407-0.009,2.813-0.009,4.222
		c-0.002,1.396,0.006,2.794,0.005,4.189c-0.003,1.396-0.007,2.795-0.013,4.191c-0.001,0.368-0.001,0.738-0.024,1.104
		c-0.022,0.356-0.161,0.521-0.516,0.561c-0.413,0.043-0.831,0.049-1.247,0.049c-2.021,0.002-4.039-0.008-6.059-0.008
		c-2.019,0-4.038,0.008-6.056,0.01c-0.99,0.002-1.98,0.006-2.97,0.004c-0.635-0.002-0.861-0.211-0.87-0.855
		c-0.017-1.407-0.013-2.813-0.015-4.223c-0.002-2.021-0.001-4.039-0.001-6.06s0-4.039,0-6.058c0-2,0.012-4.001-0.001-6.001
		c-0.008-1.156-0.497-2.05-1.58-2.532c-0.833-0.37-1.671-0.311-2.454,0.164C9.097,9.661,8.83,9.74,8.519,9.728
		C8.164,9.714,7.808,9.724,7.389,9.724z M13.747,9.098c0.047,0.101,0.057,0.14,0.08,0.168c0.706,0.893,0.899,1.933,0.897,3.038
		c-0.009,4.573-0.01,9.146-0.014,13.721c0,0.092,0,0.184,0,0.279c5.074,0,10.101,0,15.149,0c0.007-0.115,0.02-0.221,0.02-0.326
		c0.002-0.648,0.001-1.299,0.002-1.948c0.003-2.021,0.01-4.038,0.008-6.055c-0.002-2.027-0.025-4.055-0.021-6.083
		c0.005-1.633-1.106-2.786-2.737-2.788C23.157,9.1,19.187,9.1,15.215,9.098C14.742,9.098,14.268,9.098,13.747,9.098z M14.745,33.739
		c0.08,0.008,0.118,0.017,0.155,0.017c2.3-0.002,4.599-0.011,6.899-0.011c2.581,0,5.161,0.011,7.742,0.002
		c0.105,0,0.299-0.14,0.303-0.222c0.026-0.568,0.016-1.139,0.016-1.717c-5.047,0-10.077,0-15.114,0
		C14.745,32.464,14.745,33.091,14.745,33.739z M14.702,28.398c0.282,0,0.515,0,0.747,0c1.748,0,3.495,0,5.242,0
		c1.697,0.002,3.396,0.004,5.097,0.008c1.28,0.002,2.562,0,3.844,0.004c0.192,0,0.257-0.092,0.255-0.27
		c-0.004-0.23-0.008-0.466,0.008-0.697c0.015-0.241-0.072-0.37-0.324-0.37c-0.303,0-0.604-0.003-0.903-0.003
		c-1.737,0-3.476,0.003-5.212,0.005c-2.038,0-4.076,0-6.116,0c-0.767,0-1.534,0-2.3,0.002c-0.16,0-0.331,0.004-0.334,0.229
		C14.697,27.661,14.702,28.018,14.702,28.398z"/>
	<path display="inline" d="M8.873,12.694c-1.067,0-2.134,0.006-3.202-0.002c-0.396-0.004-0.729,0.05-1.063,0.34
		c-0.863,0.749-2.11,0.378-2.614-0.664c-0.347-0.716,0.075-1.65,0.612-2.028c0.625-0.44,1.482-0.376,2.077,0.118
		c0.186,0.154,0.464,0.276,0.701,0.278c2.008,0.017,4.018,0.002,6.027-0.001c0.262-0.001,0.524,0.011,0.786,0.008
		c0.222-0.002,0.363,0.11,0.387,0.316c0.055,0.471,0.085,0.945,0.125,1.419c0.018,0.214-0.129,0.232-0.284,0.232
		c-0.65,0-1.3-0.002-1.951-0.003c-0.533,0-1.067,0-1.601,0C8.873,12.703,8.873,12.698,8.873,12.694z"/>
	<path display="inline" d="M6.828,13.759c0.431,0,0.835,0,1.284,0c0,0.308,0,0.604,0,0.899c-0.002,2.017-0.005,4.035-0.006,6.052
		c0,0.504,0.01,1.009,0.002,1.513c-0.004,0.28,0.12,0.367,0.392,0.361c0.708-0.018,1.416-0.014,2.124-0.009
		c0.437,0.002,0.714,0.204,0.751,0.53c0.05,0.439-0.205,0.758-0.666,0.764c-1.047,0.015-2.095,0.015-3.143-0.004
		c-0.533-0.01-0.745-0.243-0.75-0.791c-0.012-1.311-0.011-2.618-0.011-3.927c0-1.727,0.004-3.453,0.008-5.179
		C6.815,13.912,6.821,13.854,6.828,13.759z"/>
	<path display="inline" d="M31.85,10.739c0.377,0,0.754-0.021,1.129,0.006c0.445,0.03,0.813-0.132,1.158-0.385
		c0.807-0.594,1.889-0.334,2.398,0.535c0.525,0.897,0.188,1.553-0.458,2.164c-0.609,0.578-1.466,0.497-2.134-0.102
		c-0.215-0.192-0.447-0.28-0.74-0.263c-0.366,0.022-0.737,0.021-1.104,0.004c-0.084-0.003-0.168-0.104-0.238-0.173
		c-0.024-0.026-0.01-0.094-0.01-0.142C31.85,11.851,31.85,11.319,31.85,10.739z"/>
	<path display="inline" fill="#FFFFFF" d="M13.747,9.098c0.521,0,0.995,0,1.469,0C19.187,9.1,23.157,9.1,27.129,9.104
		c1.63,0.002,2.742,1.155,2.737,2.788c-0.005,2.028,0.019,4.056,0.021,6.083c0.002,2.018-0.005,4.036-0.008,6.055
		c-0.001,0.649,0,1.3-0.002,1.948c0,0.105-0.014,0.211-0.02,0.326c-5.049,0-10.075,0-15.149,0c0-0.097,0-0.188,0-0.279
		c0.003-4.574,0.004-9.147,0.014-13.721c0.002-1.104-0.191-2.145-0.897-3.038C13.803,9.238,13.793,9.199,13.747,9.098z"/>
</g>
</svg>
