<?xml version="1.0" encoding="utf-8"?>
<!-- Generator: Adobe Illustrator 16.0.0, SVG Export Plug-In . SVG Version: 6.00 Build 0)  -->
<!DOCTYPE svg PUBLIC "-//W3C//DTD SVG 1.1//EN" "http://www.w3.org/Graphics/SVG/1.1/DTD/svg11.dtd">
<svg version="1.1" id="Layer_1" xmlns="http://www.w3.org/2000/svg" xmlns:xlink="http://www.w3.org/1999/xlink" x="0px" y="0px"
	 width="595.279px" height="841.891px" viewBox="0 0 595.279 841.891" enable-background="new 0 0 595.279 841.891"
	 xml:space="preserve">
<title>Icons</title>
<path fill-rule="evenodd" clip-rule="evenodd" d="M287.268,431.594c6.816,1.706,14.56,3.612,22.285,5.583
	c15.63,3.986,31.173,8.351,46.905,11.875c8.248,1.849,16.851,2.051,25.238,3.35c16.075,2.488,27.932,11.511,35.96,25.229
	c6.722,11.486,12.452,23.552,18.672,35.334c1.793,3.396,2.058,6.535-1.756,8.52c-3.847,2.001-6.273-0.138-7.998-3.494
	c-4.72-9.18-9.612-18.274-14.142-27.548c-8.141-16.667-20.465-27.154-39.709-28.197c-25.037-1.356-48.417-10.259-72.451-16.18
	c-3.556-0.876-7.072-2.228-10.673-2.505c-3.368-0.26-7.153-0.115-10.132,1.23c-2.301,1.039-4.818,4.119-5,6.465
	c-0.125,1.619,3.279,4.362,5.606,5.178c11.457,4.015,23.081,7.554,34.647,11.259c3.328,1.066,6.657,2.134,9.989,3.19
	c4.684,1.485,6.967,4.805,7.444,9.58c1.185,11.857-8.807,21.571-20.669,20.563c-19.916-1.691-39.878-2.865-59.781-4.676
	c-4.642-0.422-9.583-1.716-13.61-3.985c-18.857-10.624-37.441-21.733-56.129-32.658c-1.579-0.924-3.158-1.869-4.818-2.631
	c-3.065-1.409-5.564-0.464-7.307,2.28c-1.905,3.001,0.692,4.141,2.543,5.435c20.343,14.219,40.613,28.544,61.152,42.472
	c3.098,2.101,7.408,2.835,11.27,3.322c32.705,4.129,65.438,8.032,98.155,12.075c3.127,0.387,6.26,1.053,9.272,1.973
	c4.986,1.522,8.805,4.49,10.864,9.529c2.581,6.318,5.357,12.558,8.054,18.828c1.549,3.603,1.815,7.055-2.452,8.796
	c-4.08,1.664-6.132-1.067-7.571-4.406c-2.372-5.503-4.97-10.924-7.021-16.544c-1.448-3.968-4.021-5.903-7.993-6.436
	c-16.991-2.279-33.969-4.66-50.975-6.823c-18.991-2.415-38.031-4.461-56.992-7.084c-3.938-0.545-8.049-2.291-11.353-4.549
	c-20.354-13.91-40.477-28.157-60.725-42.223c-7.257-5.041-9.595-10.382-6.981-16.691c3.226-7.789,12.266-13.222,19.699-10.831
	c5.455,1.754,10.592,4.725,15.588,7.637c17.113,9.974,33.826,20.685,51.308,29.953c5.323,2.822,12.618,2.11,19.041,2.64
	c15.769,1.301,31.55,2.502,47.345,3.421c2.313,0.134,5.381-0.845,6.967-2.437c3.647-3.661,2.765-6.079-2.131-7.636
	c-13.008-4.135-26.033-8.215-39.039-12.354c-9.723-3.094-14.857-8.861-14.818-16.532c0.042-7.945,6.41-15.184,15.768-17.733
	C281.211,432.506,283.71,432.238,287.268,431.594z"/>
<path fill-rule="evenodd" clip-rule="evenodd" d="M323.989,320.35c-0.019,22.508-18.568,41.106-41.026,41.133
	c-22.532,0.026-41.547-18.659-41.497-40.778c0.052-23.221,18.672-42.074,41.392-41.913
	C305.725,278.953,324.007,297.425,323.989,320.35z M313.071,320.382c0.08-16.646-13.273-30.308-29.923-30.613
	c-16.615-0.304-30.734,13.688-30.673,30.397c0.062,16.643,13.656,30.307,30.195,30.348
	C299.23,350.556,312.992,336.915,313.071,320.382z"/>
<path fill-rule="evenodd" clip-rule="evenodd" d="M348.069,409.172c0,2.618,0.622,4.917-0.161,6.537
	c-0.936,1.938-2.979,4.444-4.714,4.584c-1.777,0.145-4.132-1.974-5.52-3.683c-0.854-1.053-0.669-3.235-0.433-4.835
	c0.87-5.89-1.419-10.163-6.684-12.498c-12.736-5.649-25.388-11.605-38.493-16.255c-5.176-1.836-11.62-1.437-17.219-0.484
	c-16.203,2.757-31.441,8.475-45.58,17.01c-4.348,2.624-7.192,5.806-6.267,11.285c0.219,1.295,0.029,2.66,0.018,3.993
	c-0.031,3.597-1.81,5.755-5.431,5.757c-3.687,0.001-5.036-2.451-5.518-5.84c-1.582-11.131,2.296-19.345,12.196-25.002
	c16.665-9.522,34.336-16.168,53.345-18.772c5.003-0.686,10.435-0.316,15.356,0.868c16.107,3.878,31.435,9.891,45.21,19.291
	C344.643,395.54,349.658,400.99,348.069,409.172z"/>
<path fill="#C20E1A" stroke="#C20E1A" stroke-width="1.4387" stroke-linecap="round" stroke-linejoin="round" d="M251.817,320.607
	c-1.883-19.557,15.028-30.539,29.094-31.725c15.415-1.3,32.902,13.835,32.871,31.392c-0.023,13.458-12.479,31.303-30.432,31.194
	C265.426,351.358,250.738,339.637,251.817,320.607z"/>
</svg>
