<?xml version="1.0" encoding="utf-8"?>
<!-- Generator: Adobe Illustrator 16.0.0, SVG Export Plug-In . SVG Version: 6.00 Build 0)  -->
<!DOCTYPE svg PUBLIC "-//W3C//DTD SVG 1.1//EN" "http://www.w3.org/Graphics/SVG/1.1/DTD/svg11.dtd">
<svg version="1.1" id="Ebene_1" xmlns="http://www.w3.org/2000/svg" xmlns:xlink="http://www.w3.org/1999/xlink" x="0px" y="0px"
	 width="40px" height="40px" viewBox="0 0 40 40" enable-background="new 0 0 40 40" xml:space="preserve">
<image display="none" overflow="visible" enable-background="new    " width="170" height="170" xlink:href="949B4706.png"  transform="matrix(0.266 0 0 0.266 -4.2246 1)">
</image>
<g>
	<path d="M10.692,23.928c-0.286,0-0.563,0-0.84,0c-0.179,0-0.358,0.005-0.537-0.001c-0.252-0.011-0.399-0.15-0.393-0.364
		c0.006-0.207,0.146-0.331,0.394-0.333c0.365-0.005,0.731-0.001,1.096,0c0.091,0,0.182,0,0.277,0
		c0.009-0.069,0.019-0.106,0.019-0.146c0.001-0.278,0.001-0.558,0.001-0.877c-0.272,0-0.533,0-0.793,0
		c-0.187,0-0.373,0.004-0.56,0.002c-0.274-0.002-0.429-0.129-0.433-0.349c-0.005-0.222,0.144-0.349,0.421-0.351
		c0.442-0.002,0.884,0,1.345,0c0-0.342,0-0.665,0-1.014c-0.076-0.004-0.158-0.012-0.24-0.013c-0.381-0.001-0.762,0.002-1.142-0.001
		c-0.238-0.002-0.383-0.138-0.384-0.345c-0.001-0.21,0.14-0.347,0.379-0.349c0.855-0.004,1.71-0.002,2.565-0.002
		c4.337,0,8.675,0.004,13.014-0.002c0.987-0.002,1.977-0.031,2.951,0.152c0.316,0.059,0.63,0.161,0.93,0.283
		c0.221,0.089,0.331,0.283,0.331,0.54c-0.003,4.455-0.003,8.909-0.004,13.364c0,0.699,0.004,1.397,0.004,2.099
		c0,0.385-0.204,0.671-0.528,0.813c-0.422,0.186-0.866,0.354-1.316,0.438c-1.223,0.229-2.443,0.191-3.646-0.146
		c-0.045-0.014-0.09-0.028-0.133-0.045c-0.816-0.283-1.004-0.528-1.059-1.41c-0.102,0-0.206,0-0.311,0c-4.213,0-8.429,0-12.642,0
		c-0.046,0-0.093,0.002-0.14,0c-0.254-0.013-0.4-0.146-0.395-0.361c0.005-0.21,0.138-0.332,0.389-0.336
		c0.381-0.008,0.763-0.002,1.144-0.004c0.076,0,0.151-0.008,0.239-0.012c0-0.336,0-0.65,0-1.009c-0.164,0-0.331,0-0.498,0
		c-0.295,0-0.59,0.005-0.887-0.002c-0.237-0.005-0.385-0.141-0.389-0.344c-0.004-0.214,0.143-0.351,0.398-0.354
		c0.45-0.004,0.9-0.002,1.37-0.002c0-0.339,0-0.66,0-1.021c-0.153,0-0.313,0-0.472,0c-0.288,0-0.575,0.001-0.863-0.001
		c-0.275-0.002-0.43-0.127-0.433-0.345c-0.003-0.222,0.151-0.351,0.425-0.353c0.442-0.001,0.884,0,1.344,0c0-0.325,0-0.632,0-0.978
		c-0.157,0-0.316,0-0.477,0c-0.311,0-0.622,0.003-0.933-0.004c-0.222-0.004-0.359-0.143-0.359-0.344
		c0-0.199,0.138-0.344,0.358-0.349c0.381-0.008,0.762-0.003,1.143-0.003c0.084,0,0.168,0,0.269,0c0-0.342,0-0.663,0-1.021
		c-0.311,0-0.619,0-0.927,0c-0.147,0-0.295,0.002-0.443-0.002c-0.26-0.008-0.402-0.135-0.4-0.352
		c0.003-0.212,0.153-0.344,0.411-0.346c0.365-0.006,0.73-0.002,1.096-0.002c0.084,0,0.167,0,0.265,0c0-0.342,0-0.655,0-1
		c-0.089-0.006-0.179-0.016-0.268-0.017c-0.35-0.002-0.7,0.002-1.049-0.002c-0.307-0.002-0.453-0.116-0.454-0.346
		c0-0.229,0.153-0.354,0.448-0.355c0.351-0.004,0.7-0.002,1.05-0.002c0.084,0,0.169,0,0.287,0c0-0.181,0-0.341,0-0.501
		c0-0.154,0-0.31,0-0.492c-0.111-0.006-0.208-0.015-0.305-0.015c-0.365-0.003-0.73,0.005-1.096-0.005
		c-0.245-0.006-0.383-0.141-0.385-0.348c-0.001-0.209,0.13-0.349,0.377-0.354c0.458-0.01,0.916-0.003,1.391-0.003
		C10.692,24.567,10.692,24.261,10.692,23.928z M22.424,35.154c0-4.902,0-9.779,0-14.656c-3.662,0-7.327,0-11,0
		c0,4.891,0,9.768,0,14.656C15.092,35.154,18.74,35.154,22.424,35.154z M28.391,22.512c-1.763,0.354-3.504,0.352-5.271,0
		c0,0.107,0,0.199,0,0.292c0,4.011,0.002,8.022-0.007,12.032c0,0.25,0.091,0.357,0.313,0.387c0.586,0.073,1.167,0.17,1.756,0.206
		c0.971,0.06,1.94,0.01,2.896-0.201c0.208-0.045,0.32-0.114,0.32-0.377c-0.012-4.042-0.008-8.084-0.008-12.125
		C28.391,22.656,28.391,22.588,28.391,22.512z M23.143,35.892c-0.057,0.419-0.018,0.499,0.361,0.646
		c0.918,0.357,1.874,0.41,2.842,0.348c0.582-0.038,1.157-0.128,1.699-0.357c0.354-0.147,0.412-0.277,0.309-0.638
		C26.375,36.236,25.623,36.238,23.143,35.892z M28.376,21.352c-1.749,0.35-3.487,0.346-5.226,0.004
		c-0.072,0.38-0.062,0.426,0.293,0.486c0.527,0.09,1.058,0.171,1.589,0.206c1.009,0.065,2.017,0.03,3.009-0.193
		C28.414,21.769,28.412,21.764,28.376,21.352z M23.555,20.695c0.978,0.297,3.702,0.271,4.379-0.01
		C27.182,20.399,24.287,20.42,23.555,20.695z"/>
	<path fill="#FFFFFF" d="M22.424,35.154c-3.684,0-7.332,0-11,0c0-4.89,0-9.767,0-14.656c3.672,0,7.338,0,11,0
		C22.424,25.373,22.424,30.252,22.424,35.154z M13.283,22.205c0.1,0,0.176,0,0.253,0c2.619,0,5.239,0,7.856,0.002
		c0.373,0,0.549-0.113,0.547-0.357c-0.002-0.232-0.166-0.342-0.529-0.342c-2.798-0.001-5.596-0.001-8.394,0
		c-0.34,0-0.443,0.111-0.443,0.472c0,3.886,0,7.772,0,11.66c0,0.474,0.08,0.556,0.552,0.556c2.782,0,5.565,0,8.348,0
		c0.055,0,0.109,0.004,0.161-0.007c0.192-0.04,0.31-0.159,0.302-0.356c-0.01-0.191-0.123-0.314-0.324-0.33
		c-0.086-0.008-0.172-0.006-0.258-0.006c-2.604,0-5.207,0.002-7.811,0.002c-0.083,0-0.166-0.008-0.261-0.014
		C13.283,29.723,13.283,25.979,13.283,22.205z M15.242,24.117c0.096,0,0.172,0,0.248,0c1.944,0,3.887,0,5.83,0
		c0.102,0,0.203,0.008,0.303-0.007c0.195-0.026,0.336-0.188,0.314-0.37c-0.023-0.192-0.136-0.309-0.338-0.319
		c-0.062-0.003-0.125-0.003-0.187-0.003c-2.121,0-4.245,0-6.367,0c-0.431,0-0.514,0.084-0.514,0.518c0,2.627,0,5.254-0.001,7.881
		c0,0.479,0.08,0.561,0.548,0.561c2.107,0,4.213,0,6.319,0c0.371,0,0.547-0.117,0.541-0.358c-0.006-0.233-0.174-0.338-0.537-0.338
		c-1.941,0-3.884,0-5.828,0c-0.106,0-0.213,0-0.333,0C15.242,29.152,15.242,26.652,15.242,24.117z"/>
	<path fill="#FFFFFF" d="M28.391,22.512c0,0.076,0,0.145,0,0.213c0,4.042-0.004,8.084,0.008,12.125c0,0.262-0.111,0.331-0.319,0.378
		c-0.956,0.21-1.927,0.261-2.897,0.201c-0.586-0.036-1.17-0.133-1.754-0.206c-0.224-0.027-0.314-0.137-0.314-0.387
		c0.01-4.012,0.008-8.021,0.008-12.033c0-0.092,0-0.184,0-0.292C24.887,22.861,26.628,22.865,28.391,22.512z"/>
	<path fill="#FFFFFF" d="M23.143,35.892c2.48,0.347,3.232,0.345,5.211-0.001c0.104,0.359,0.043,0.489-0.309,0.639
		c-0.542,0.229-1.117,0.319-1.699,0.355c-0.968,0.063-1.924,0.012-2.842-0.348C23.125,36.391,23.086,36.311,23.143,35.892z"/>
	<path fill="#FFFFFF" d="M28.376,21.352c0.036,0.412,0.038,0.417-0.335,0.502c-0.992,0.223-2,0.26-3.009,0.193
		c-0.531-0.034-1.063-0.115-1.589-0.205c-0.354-0.061-0.364-0.106-0.293-0.486C24.889,21.697,26.627,21.701,28.376,21.352z"/>
	<path fill="#FFFFFF" d="M23.555,20.695c0.732-0.275,3.627-0.296,4.379-0.01C27.257,20.967,24.531,20.992,23.555,20.695z"/>
	<path d="M13.283,22.205c0,3.774,0,7.516,0,11.279c0.095,0.006,0.178,0.014,0.261,0.014c2.604,0,5.208-0.002,7.812-0.002
		c0.086,0,0.172-0.002,0.256,0.006c0.203,0.016,0.316,0.139,0.324,0.33c0.01,0.197-0.107,0.316-0.301,0.356
		c-0.051,0.011-0.107,0.007-0.162,0.007c-2.782,0-5.563,0-8.347,0c-0.473,0-0.552-0.082-0.552-0.556c0-3.888,0-7.772,0-11.66
		c0-0.36,0.103-0.472,0.443-0.472c2.798-0.001,5.596-0.001,8.394,0c0.364,0,0.53,0.109,0.53,0.342c0,0.243-0.174,0.357-0.547,0.357
		c-2.619-0.002-5.237-0.002-7.856-0.002C13.459,22.205,13.383,22.205,13.283,22.205z"/>
	<path d="M15.242,24.117c0,2.534,0,5.035,0,7.563c0.12,0,0.227,0,0.333,0c1.944,0,3.887,0,5.829,0c0.363,0,0.529,0.104,0.537,0.338
		c0.006,0.242-0.172,0.358-0.541,0.358c-2.107,0-4.213,0-6.32,0c-0.468,0-0.548-0.082-0.548-0.561c0.001-2.626,0-5.253,0.001-7.881
		c0-0.434,0.083-0.518,0.514-0.518c2.122,0,4.244,0,6.367,0c0.063,0,0.125,0,0.186,0.003c0.203,0.011,0.314,0.127,0.338,0.319
		c0.021,0.182-0.119,0.344-0.313,0.37c-0.101,0.015-0.201,0.007-0.302,0.007c-1.944,0-3.887,0-5.831,0
		C15.414,24.117,15.338,24.117,15.242,24.117z"/>
	<g>
		<path d="M8.16,39c0-0.303,0-0.59,0-0.902c0.456,0,0.907,0,1.375,0c0-5.438,0-10.85,0-16.283c-0.448,0-0.896,0-1.362,0
			c0-1.288,0-2.553,0-3.834c7.461,0,14.923,0,22.401,0c0,1.263,0,2.53,0,3.82c-0.449,0-0.896,0-1.359,0c0,5.433,0,10.844,0,16.281
			c0.447,0,0.901,0,1.365,0c0,0.317,0,0.609,0,0.918C23.116,39,15.648,39,8.16,39z M12.424,38.067c4.646,0,9.271,0,13.896,0
			c0-1.876,0-3.735,0-5.598c-4.639,0-9.264,0-13.896,0C12.424,34.341,12.424,36.192,12.424,38.067z M11.486,38.08
			c0-4.976,0-9.929,0-14.892c5.27,0,10.516,0,15.788,0c0,4.974,0,9.925,0,14.884c0.343,0,0.656,0,0.979,0c0-5.423,0-10.832,0-16.25
			c-5.928,0-11.842,0-17.753,0c0,5.43,0,10.84,0,16.256C10.826,38.08,11.136,38.08,11.486,38.08z M29.654,18.916
			c-6.866,0-13.711,0-20.555,0c0,0.659,0,1.298,0,1.939c6.859,0,13.704,0,20.555,0C29.654,20.203,29.654,19.567,29.654,18.916z
			 M12.425,25.272c4.646,0,9.267,0,13.896,0c0-0.396,0-0.772,0-1.151c-4.639,0-9.263,0-13.896,0
			C12.425,24.511,12.425,24.881,12.425,25.272z M26.322,26.236c-4.641,0-9.26,0-13.888,0c0,0.383,0,0.749,0,1.123
			c4.637,0,9.257,0,13.888,0C26.322,26.984,26.322,26.621,26.322,26.236z M26.325,30.39c-4.644,0-9.261,0-13.893,0
			c0,0.379,0,0.745,0,1.112c4.641,0,9.265,0,13.893,0C26.325,31.13,26.325,30.774,26.325,30.39z M26.323,28.317
			c-4.64,0-9.259,0-13.888,0c0,0.38,0,0.745,0,1.109c4.639,0,9.258,0,13.888,0C26.323,29.051,26.323,28.697,26.323,28.317z"/>
		<path fill="#FFFFFF" d="M12.424,38.067c0-1.875,0-3.727,0-5.598c4.633,0,9.258,0,13.896,0c0,1.862,0,3.722,0,5.598
			C21.693,38.067,17.069,38.067,12.424,38.067z"/>
		<path fill="#FFFFFF" d="M11.486,38.08c-0.35,0-0.66,0-0.987,0c0-5.416,0-10.828,0-16.256c5.912,0,11.826,0,17.753,0
			c0,5.416,0,10.826,0,16.25c-0.322,0-0.637,0-0.979,0c0-4.959,0-9.912,0-14.885c-5.273,0-10.519,0-15.789,0
			C11.486,28.152,11.486,33.105,11.486,38.08z"/>
		<path fill="#FFFFFF" d="M29.654,18.916c0,0.652,0,1.286,0,1.939c-6.853,0-13.695,0-20.555,0c0-0.641,0-1.28,0-1.939
			C15.943,18.916,22.788,18.916,29.654,18.916z"/>
		<path fill="#FFFFFF" d="M12.425,25.272c0-0.392,0-0.762,0-1.151c4.632,0,9.257,0,13.896,0c0,0.379,0,0.756,0,1.151
			C21.691,25.272,17.07,25.272,12.425,25.272z"/>
		<path fill="#FFFFFF" d="M26.322,26.236c0,0.387,0,0.748,0,1.123c-4.631,0-9.251,0-13.888,0c0-0.374,0-0.74,0-1.123
			C17.063,26.236,21.682,26.236,26.322,26.236z"/>
		<path fill="#FFFFFF" d="M26.325,30.39c0,0.385,0,0.74,0,1.112c-4.628,0-9.252,0-13.893,0c0-0.367,0-0.733,0-1.112
			C17.064,30.39,21.684,30.39,26.325,30.39z"/>
		<path fill="#FFFFFF" d="M26.323,28.317c0,0.38,0,0.733,0,1.109c-4.63,0-9.248,0-13.888,0c0-0.364,0-0.729,0-1.109
			C17.064,28.317,21.686,28.317,26.323,28.317z"/>
	</g>
</g>
<rect x="12.437" y="32.271" fill="#EF0C23" width="13.89" height="5.796"/>
<g display="none">
	<path display="inline" d="M18.774,6.099c0.941,0,1.883,0,2.822,0c0.159,0.018,0.315,0.039,0.475,0.054
		c1.111,0.112,2.227,0.207,3.334,0.341c0.633,0.077,1.185,0.552,1.193,1.139c0.008,0.575,0.31,0.675,0.741,0.727
		c0.083,0.01,0.165,0.035,0.247,0.056c0.376,0.099,0.734,0.273,0.9,0.623c0.162,0.337,0.404,0.427,0.727,0.454
		c0.094,0.008,0.186,0.031,0.275,0.053c0.729,0.172,1.465,0.333,2.188,0.523c0.419,0.11,0.523,0.328,0.421,0.74
		c-0.049,0.183-0.103,0.362-0.154,0.542c-0.58,1.951-1.394,3.807-2.312,5.619c-0.057,0.112-0.104,0.248-0.1,0.369
		c0.021,0.584,0.067,1.164,0.098,1.747c0.127,2.535,0.265,5.069,0.372,7.605c0.066,1.578,0.085,3.158,0.137,4.735
		c0.002,0.093,0.063,0.224,0.137,0.267c0.877,0.519,1.185,1.759,0.642,2.627c-0.228,0.363-0.578,0.549-0.966,0.685
		c-6.512,0-13.022,0-19.533,0c-0.559-0.198-1.024-0.516-1.128-1.137c-0.062-0.373-0.049-0.769-0.003-1.146
		c0.054-0.447,0.335-0.779,0.737-0.973c0.193-0.093,0.222-0.205,0.227-0.391c0.044-1.738,0.099-3.479,0.138-5.219
		c0.002-0.129-0.066-0.297-0.159-0.381c-0.955-0.865-1.919-1.721-2.886-2.574c-1.012-0.894-1.585-2.006-1.598-3.356
		c-0.023-2.578-0.024-5.156-0.003-7.733c0.012-1.459,1.082-2.483,2.539-2.5c0.31-0.003,0.621,0,0.931,0c0.808,0,1.616,0,2.426,0
		c0.184-0.732,0.665-1.106,1.367-1.233c0.148-0.027,0.292-0.08,0.44-0.096c0.215-0.023,0.291-0.112,0.296-0.341
		c0.021-0.789,0.494-1.329,1.277-1.44c0.791-0.113,1.586-0.193,2.38-0.276C17.858,6.163,18.316,6.136,18.774,6.099z M29.201,31.559
		c0-0.146,0.003-0.269-0.001-0.389c-0.032-1.186-0.052-2.371-0.099-3.555c-0.093-2.322-0.177-4.646-0.311-6.965
		c-0.128-2.188-0.297-4.374-0.482-6.557c-0.121-1.395-0.313-2.784-0.468-4.176c-0.039-0.357-0.229-0.535-0.582-0.622
		C25.573,8.88,23.855,8.658,22.127,8.6c-1.529-0.051-3.066-0.011-4.596,0.053c-1.505,0.063-2.992,0.298-4.457,0.66
		c-0.313,0.077-0.484,0.25-0.522,0.575c-0.128,1.112-0.301,2.219-0.39,3.333c-0.24,2.991-0.493,5.981-0.652,8.976
		c-0.162,3.033-0.219,6.072-0.321,9.109c-0.003,0.079,0,0.16,0,0.252C17.202,31.559,23.184,31.559,29.201,31.559z M20.215,32.514
		c-2.069,0-4.139,0-6.208,0c-1.082,0-2.164-0.002-3.245,0.002c-0.324,0.002-0.521,0.161-0.571,0.436
		c-0.099,0.544,0.002,0.943,0.294,1.06c0.134,0.054,0.294,0.056,0.442,0.056c6.18,0.002,12.361,0.002,18.541,0.002
		c0.095,0,0.198,0.017,0.279-0.021c0.132-0.056,0.302-0.118,0.36-0.229c0.177-0.328,0.168-0.694,0.021-1.031
		c-0.127-0.291-0.417-0.271-0.687-0.271C26.368,32.514,23.291,32.514,20.215,32.514z M11.228,12.554c-0.842,0-1.691,0-2.54,0
		c-0.007,0.048-0.015,0.076-0.015,0.103c0,2.398-0.001,4.796,0,7.193c0,0.34,0.139,0.618,0.393,0.841
		c0.296,0.263,0.59,0.523,0.886,0.785c0.193,0.17,0.387,0.34,0.59,0.518C10.772,18.825,10.999,15.698,11.228,12.554z M11.51,10.543
		c-1.163,0-2.272-0.028-3.38,0.009c-0.852,0.029-1.439,0.654-1.443,1.504c-0.012,2.615-0.009,5.23,0.004,7.847
		c0.005,0.852,0.307,1.626,0.912,2.214c0.89,0.865,1.839,1.668,2.764,2.497c0.011,0.01,0.035,0.006,0.131,0.021
		c0-0.384-0.016-0.756,0.006-1.125c0.012-0.195-0.032-0.328-0.185-0.461c-0.599-0.516-1.178-1.056-1.777-1.568
		c-0.561-0.479-0.817-1.075-0.808-1.812c0.013-1.045,0.003-2.089,0.003-3.133c0-1.439-0.002-2.879,0.001-4.318
		c0.001-0.464,0.167-0.627,0.629-0.631c0.395-0.003,0.791,0,1.186,0c0.601,0,1.201,0,1.826,0
		C11.423,11.236,11.464,10.905,11.51,10.543z M14.667,8.028c3.696-0.57,7.37-0.563,11.047-0.003
		c-0.041-0.418-0.181-0.583-0.532-0.625c-0.804-0.097-1.604-0.216-2.408-0.27c-2.521-0.167-5.038-0.114-7.54,0.265
		C14.855,7.452,14.724,7.583,14.667,8.028z M28.865,10.366c0.176,1.667,0.347,3.273,0.52,4.916c0.482-0.796,1.665-3.904,1.684-4.439
		C30.352,10.688,29.631,10.531,28.865,10.366z"/>
	<path display="inline" fill="#FFFFFF" d="M29.201,31.559c-6.018,0-12,0-18.012,0c0-0.091-0.003-0.172,0-0.252
		c0.102-3.037,0.159-6.076,0.321-9.108c0.16-2.995,0.412-5.985,0.652-8.976c0.089-1.114,0.262-2.221,0.39-3.333
		c0.038-0.326,0.208-0.498,0.522-0.575c1.465-0.361,2.952-0.597,4.457-0.66c1.53-0.063,3.067-0.104,4.596-0.053
		c1.729,0.059,3.446,0.281,5.135,0.698c0.35,0.087,0.541,0.265,0.581,0.622c0.155,1.392,0.347,2.781,0.466,4.176
		c0.188,2.183,0.356,4.369,0.484,6.555c0.135,2.318,0.219,4.643,0.311,6.965c0.047,1.184,0.064,2.367,0.099,3.555
		C29.204,31.29,29.201,31.41,29.201,31.559z M22.16,20.58c0-0.789,0-1.58,0-2.37c0-1.524,0.008-3.048-0.003-4.572
		c-0.005-0.871-0.396-1.533-1.2-1.876c-0.756-0.323-1.476-0.189-2.095,0.364c-0.484,0.431-0.642,0.997-0.642,1.624
		c0.001,3.575,0.001,7.15,0.001,10.727c0,0.986-0.01,1.977,0.002,2.963c0.018,1.479,1.316,2.42,2.657,1.938
		c0.793-0.284,1.278-1.022,1.279-1.967C22.162,25.134,22.16,22.857,22.16,20.58z"/>
	<path display="inline" fill="#FFFFFF" d="M20.215,32.514c3.076,0,6.153,0,9.229,0c0.27,0,0.56-0.02,0.687,0.271
		c0.146,0.337,0.155,0.703-0.021,1.031c-0.061,0.108-0.229,0.174-0.36,0.229c-0.081,0.035-0.187,0.02-0.278,0.02
		c-6.181,0.002-12.361,0.002-18.542-0.002c-0.147,0-0.308-0.002-0.442-0.055c-0.292-0.113-0.393-0.516-0.294-1.06
		c0.05-0.272,0.247-0.433,0.571-0.435c1.082-0.005,2.163-0.002,3.245-0.002C16.077,32.514,18.146,32.514,20.215,32.514z"/>
	<path display="inline" fill="#FFFFFF" d="M11.51,10.543c-0.045,0.362-0.087,0.693-0.131,1.045c-0.625,0-1.226,0-1.826,0
		c-0.395,0-0.791-0.003-1.186,0c-0.462,0.004-0.628,0.167-0.629,0.631c-0.003,1.439-0.001,2.879-0.001,4.318
		c0,1.044,0.01,2.088-0.003,3.133c-0.01,0.734,0.247,1.331,0.808,1.811c0.6,0.516,1.178,1.056,1.777,1.569
		c0.153,0.132,0.197,0.265,0.185,0.461c-0.022,0.369-0.006,0.741-0.006,1.125c-0.097-0.017-0.12-0.013-0.131-0.021
		c-0.924-0.829-1.874-1.633-2.764-2.497c-0.605-0.588-0.907-1.362-0.912-2.214c-0.013-2.617-0.016-5.232-0.004-7.847
		c0.003-0.85,0.591-1.475,1.443-1.504C9.237,10.515,10.347,10.543,11.51,10.543z"/>
	<rect x="17.274" y="10.533" display="inline" width="6.285" height="18.971"/>
	<path display="inline" fill="#FFFFFF" d="M14.667,8.028c0.058-0.445,0.188-0.577,0.567-0.634c2.502-0.378,5.018-0.431,7.54-0.265
		c0.806,0.054,1.604,0.172,2.408,0.27c0.354,0.042,0.491,0.207,0.532,0.625C22.036,7.465,18.362,7.458,14.667,8.028z"/>
	<path display="inline" fill="#FFFFFF" d="M28.865,10.366c0.766,0.166,1.486,0.322,2.203,0.477
		c-0.021,0.535-1.201,3.643-1.686,4.439C29.212,13.639,29.041,12.032,28.865,10.366z"/>
	<path display="inline" d="M22.16,20.58c0,2.277,0.002,4.554-0.001,6.83c-0.001,0.943-0.486,1.683-1.279,1.967
		c-1.34,0.482-2.639-0.459-2.657-1.938c-0.012-0.987-0.002-1.978-0.002-2.963c0-3.576,0-7.15-0.001-10.728
		c0-0.627,0.158-1.193,0.642-1.624c0.619-0.553,1.339-0.687,2.095-0.364c0.807,0.343,1.195,1.006,1.2,1.876
		c0.011,1.523,0.003,3.047,0.003,4.572C22.16,19,22.16,19.791,22.16,20.58z M21.206,25.016c-0.165,0-0.306,0.004-0.442-0.002
		c-0.333-0.01-0.526-0.182-0.529-0.462c-0.003-0.278,0.184-0.45,0.519-0.472c0.146-0.01,0.294-0.001,0.439-0.001
		c0-0.376,0-0.708,0-1.06c-0.17,0-0.322,0.012-0.471-0.002c-0.313-0.024-0.493-0.209-0.489-0.477
		c0.003-0.268,0.193-0.443,0.502-0.461c0.154-0.01,0.313-0.001,0.453-0.001c0-0.379,0-0.713,0-1.05
		c-0.377-0.065-0.924,0.14-0.938-0.463c-0.017-0.651,0.573-0.419,0.938-0.5c0-0.353,0-0.692,0-1.029
		c-0.769-0.054-0.97-0.145-0.951-0.468c0.042-0.644,0.578-0.437,0.958-0.513c0-0.341,0-0.673,0-1.037
		c-0.178,0-0.336,0.011-0.492-0.003c-0.308-0.026-0.482-0.213-0.47-0.486c0.012-0.258,0.194-0.427,0.492-0.44
		c0.154-0.008,0.313-0.002,0.474-0.002c0-0.371,0-0.706,0-1.069c-0.177,0-0.333,0.007-0.49-0.001
		c-0.29-0.015-0.471-0.193-0.475-0.454c-0.003-0.263,0.168-0.444,0.46-0.466c0.164-0.014,0.332-0.003,0.514-0.003
		c0-0.241,0.014-0.439-0.003-0.634c-0.05-0.643-0.683-1.069-1.299-0.884c-0.494,0.147-0.74,0.519-0.741,1.126
		c0,4.562,0,9.126,0,13.688c0,0.074,0,0.148,0.004,0.227c0.044,0.65,0.687,1.096,1.311,0.904c0.593-0.181,0.865-0.758,0.689-1.515
		c-0.123,0-0.252,0.003-0.381-0.001c-0.36-0.011-0.553-0.175-0.555-0.462c0-0.293,0.195-0.459,0.551-0.466
		c0.138-0.003,0.273,0,0.421,0C21.206,25.713,21.206,25.385,21.206,25.016z"/>
</g>
<g display="none">
	<path display="inline" d="M7.389,9.724C8.231,8.413,9.38,7.813,10.83,7.802c2.271-0.017,4.542-0.007,6.813-0.009
		c3.125-0.003,6.251-0.012,9.376-0.01c1.643,0.001,2.896,0.698,3.707,2.141c0.301,0.536,0.428,1.129,0.436,1.732
		c0.018,1.63,0.002,3.26,0.004,4.891c0,1.397,0.009,2.794,0.009,4.192c0,1.407-0.009,2.813-0.009,4.222
		c-0.002,1.396,0.006,2.794,0.005,4.189c-0.003,1.396-0.007,2.795-0.013,4.19c-0.001,0.368-0.001,0.738-0.024,1.104
		c-0.022,0.355-0.161,0.521-0.516,0.561c-0.413,0.043-0.831,0.049-1.247,0.049c-2.021,0.002-4.039-0.008-6.059-0.008
		s-4.039,0.008-6.057,0.01c-0.99,0.002-1.98,0.006-2.97,0.004c-0.635-0.002-0.861-0.211-0.87-0.854
		c-0.017-1.407-0.013-2.813-0.015-4.224c-0.002-2.021-0.001-4.039-0.001-6.06s0-4.039,0-6.058c0-2,0.012-4.001-0.001-6.001
		c-0.008-1.156-0.497-2.05-1.58-2.532c-0.833-0.37-1.671-0.311-2.454,0.164C9.097,9.661,8.83,9.74,8.519,9.728
		C8.164,9.714,7.808,9.724,7.389,9.724z M13.747,9.098c0.047,0.101,0.057,0.14,0.08,0.168c0.706,0.893,0.899,1.933,0.897,3.038
		c-0.009,4.573-0.01,9.146-0.014,13.721c0,0.092,0,0.184,0,0.279c5.074,0,10.101,0,15.149,0c0.007-0.115,0.02-0.222,0.02-0.326
		c0.002-0.648,0.001-1.299,0.002-1.948c0.003-2.021,0.01-4.038,0.008-6.055c-0.002-2.027-0.025-4.055-0.021-6.083
		c0.005-1.633-1.106-2.786-2.737-2.788C23.157,9.1,19.187,9.1,15.215,9.098C14.742,9.098,14.268,9.098,13.747,9.098z M14.745,33.739
		c0.08,0.008,0.118,0.017,0.155,0.017c2.3-0.002,4.599-0.011,6.899-0.011c2.581,0,5.161,0.011,7.742,0.002
		c0.105,0,0.299-0.14,0.303-0.222c0.026-0.568,0.016-1.14,0.016-1.717c-5.047,0-10.076,0-15.113,0
		C14.745,32.464,14.745,33.091,14.745,33.739z M14.702,28.398c0.282,0,0.515,0,0.747,0c1.748,0,3.495,0,5.242,0
		c1.697,0.002,3.396,0.004,5.097,0.008c1.28,0.002,2.562,0,3.844,0.004c0.192,0,0.257-0.092,0.255-0.27
		c-0.004-0.23-0.008-0.467,0.008-0.697c0.016-0.241-0.072-0.37-0.324-0.37c-0.303,0-0.604-0.003-0.902-0.003
		c-1.736,0-3.477,0.003-5.212,0.005c-2.038,0-4.076,0-6.116,0c-0.767,0-1.534,0-2.3,0.002c-0.16,0-0.331,0.004-0.334,0.229
		C14.697,27.661,14.702,28.018,14.702,28.398z"/>
	<path display="inline" d="M8.873,12.694c-1.067,0-2.134,0.006-3.202-0.002c-0.396-0.004-0.729,0.05-1.063,0.34
		c-0.863,0.749-2.11,0.378-2.614-0.664c-0.347-0.716,0.075-1.65,0.612-2.028c0.625-0.44,1.482-0.376,2.077,0.118
		c0.186,0.154,0.464,0.276,0.701,0.278c2.008,0.017,4.018,0.002,6.027-0.001c0.262-0.001,0.524,0.011,0.786,0.008
		c0.222-0.002,0.363,0.11,0.387,0.316c0.055,0.471,0.085,0.945,0.125,1.419c0.018,0.214-0.129,0.232-0.284,0.232
		c-0.65,0-1.3-0.002-1.951-0.003c-0.533,0-1.067,0-1.601,0C8.873,12.703,8.873,12.698,8.873,12.694z"/>
	<path display="inline" d="M6.828,13.759c0.431,0,0.835,0,1.284,0c0,0.308,0,0.604,0,0.899c-0.002,2.017-0.005,4.035-0.006,6.052
		c0,0.504,0.01,1.009,0.002,1.513c-0.004,0.28,0.12,0.367,0.392,0.361c0.708-0.018,1.416-0.014,2.124-0.009
		c0.437,0.002,0.714,0.204,0.751,0.53c0.05,0.438-0.205,0.758-0.666,0.764c-1.047,0.015-2.095,0.015-3.143-0.004
		c-0.533-0.01-0.745-0.243-0.75-0.791c-0.012-1.311-0.011-2.618-0.011-3.927c0-1.727,0.004-3.453,0.008-5.179
		C6.815,13.912,6.821,13.854,6.828,13.759z"/>
	<path display="inline" d="M31.85,10.739c0.377,0,0.754-0.021,1.129,0.006c0.445,0.03,0.813-0.132,1.158-0.385
		c0.807-0.594,1.889-0.334,2.398,0.535c0.525,0.897,0.188,1.553-0.458,2.164c-0.609,0.578-1.466,0.497-2.134-0.102
		c-0.215-0.192-0.447-0.28-0.74-0.263c-0.366,0.022-0.737,0.021-1.104,0.004c-0.084-0.003-0.168-0.104-0.238-0.173
		c-0.024-0.026-0.01-0.094-0.01-0.142C31.85,11.851,31.85,11.319,31.85,10.739z"/>
	<path display="inline" fill="#FFFFFF" d="M13.747,9.098c0.521,0,0.995,0,1.469,0C19.187,9.1,23.157,9.1,27.129,9.104
		c1.63,0.002,2.742,1.155,2.737,2.788c-0.005,2.028,0.019,4.056,0.021,6.083c0.002,2.018-0.005,4.036-0.008,6.055
		c-0.001,0.649,0,1.3-0.002,1.948c0,0.104-0.014,0.211-0.02,0.326c-5.049,0-10.075,0-15.149,0c0-0.098,0-0.188,0-0.279
		c0.003-4.574,0.004-9.147,0.014-13.721c0.002-1.104-0.191-2.145-0.897-3.038C13.803,9.238,13.793,9.199,13.747,9.098z"/>
</g>
</svg>
