<?xml version="1.0" encoding="utf-8"?>
<!-- Generator: Adobe Illustrator 16.0.0, SVG Export Plug-In . SVG Version: 6.00 Build 0)  -->
<!DOCTYPE svg PUBLIC "-//W3C//DTD SVG 1.1//EN" "http://www.w3.org/Graphics/SVG/1.1/DTD/svg11.dtd">
<svg version="1.1" id="Ebene_1" xmlns="http://www.w3.org/2000/svg" xmlns:xlink="http://www.w3.org/1999/xlink" x="0px" y="0px"
	 width="40px" height="40px" viewBox="0 0 40 40" enable-background="new 0 0 40 40" xml:space="preserve">
<image display="none" overflow="visible" enable-background="new    " width="170" height="170" xlink:href="E1DA09CF.png"  transform="matrix(0.266 0 0 0.266 -4.2246 1)">
</image>
<g display="none">
	<path display="inline" d="M7.847,13.039c-0.416,0-0.819,0-1.223,0c-0.26,0-0.521,0.007-0.781-0.002
		c-0.367-0.014-0.582-0.219-0.572-0.53c0.01-0.301,0.213-0.482,0.574-0.486c0.532-0.007,1.064-0.002,1.596-0.001
		c0.132,0,0.265,0,0.403,0c0.014-0.102,0.027-0.156,0.028-0.21c0.001-0.407,0.001-0.813,0.001-1.277c-0.396,0-0.776,0-1.155,0
		c-0.272,0-0.543,0.004-0.815,0.001c-0.399-0.003-0.625-0.187-0.631-0.506C5.264,9.704,5.481,9.52,5.885,9.517
		c0.644-0.003,1.287,0,1.958,0c0-0.498,0-0.967,0-1.476c-0.111-0.006-0.23-0.016-0.35-0.017C6.938,8.022,6.384,8.028,5.83,8.022
		C5.484,8.019,5.273,7.821,5.271,7.52C5.269,7.214,5.475,7.015,5.823,7.013C7.068,7.008,8.313,7.01,9.558,7.01
		c6.316,0,12.631,0.006,18.948-0.005c1.438-0.002,2.877-0.045,4.297,0.222c0.461,0.086,0.918,0.235,1.354,0.412
		c0.321,0.13,0.481,0.412,0.481,0.786c-0.006,6.485-0.006,12.972-0.007,19.457c0,1.019,0.007,2.037,0.007,3.056
		c0,0.562-0.298,0.978-0.771,1.187c-0.614,0.271-1.262,0.515-1.916,0.636c-1.779,0.331-3.559,0.28-5.313-0.215
		c-0.063-0.02-0.129-0.041-0.19-0.063c-1.189-0.414-1.464-0.771-1.542-2.053c-0.147,0-0.301,0-0.452,0c-6.134,0-12.27,0-18.404,0
		c-0.068,0-0.136,0.002-0.204-0.003c-0.37-0.017-0.582-0.212-0.575-0.524c0.007-0.307,0.201-0.483,0.567-0.489
		c0.555-0.011,1.11-0.003,1.665-0.006c0.11,0,0.22-0.011,0.348-0.017c0-0.488,0-0.947,0-1.469c-0.239,0-0.482,0-0.725,0
		c-0.43,0-0.86,0.005-1.291-0.003c-0.346-0.008-0.561-0.205-0.566-0.5c-0.006-0.313,0.208-0.512,0.58-0.517
		C6.505,26.896,7.16,26.9,7.844,26.9c0-0.494,0-0.963,0-1.489c-0.223,0-0.455,0-0.687,0c-0.419,0-0.837,0.002-1.256-0.001
		c-0.401-0.003-0.625-0.186-0.63-0.503c-0.005-0.32,0.22-0.509,0.619-0.511c0.643-0.002,1.287,0,1.957,0c0-0.476,0-0.92,0-1.424
		c-0.229,0-0.461,0-0.694,0c-0.452,0-0.905,0.004-1.358-0.006c-0.323-0.006-0.522-0.207-0.522-0.501c0-0.291,0.201-0.5,0.521-0.507
		c0.554-0.011,1.109-0.004,1.664-0.004c0.123,0,0.245,0,0.392,0c0-0.497,0-0.966,0-1.489c-0.453,0-0.901,0-1.35,0
		c-0.215,0-0.43,0.004-0.645-0.002c-0.378-0.01-0.586-0.195-0.582-0.511c0.005-0.309,0.223-0.5,0.598-0.504
		c0.532-0.006,1.064-0.001,1.596-0.001c0.122-0.001,0.243,0,0.386,0c0-0.497,0-0.956,0-1.456c-0.13-0.008-0.26-0.022-0.39-0.023
		c-0.509-0.003-1.019,0.002-1.528-0.003c-0.447-0.004-0.659-0.17-0.66-0.504c-0.001-0.333,0.222-0.515,0.652-0.518
		c0.51-0.005,1.019-0.002,1.528-0.002c0.123,0,0.246,0,0.418,0c0-0.264,0-0.497,0-0.73c0-0.225,0-0.45,0-0.717
		c-0.161-0.008-0.302-0.021-0.444-0.021c-0.532-0.004-1.064,0.007-1.596-0.006c-0.357-0.009-0.558-0.205-0.56-0.506
		c-0.002-0.306,0.19-0.507,0.549-0.514c0.666-0.015,1.333-0.005,2.025-0.005C7.847,13.971,7.847,13.525,7.847,13.039z
		 M24.928,29.384c0-7.137,0-14.237,0-21.338c-5.332,0-10.668,0-16.016,0c0,7.12,0,14.22,0,21.338
		C14.252,29.384,19.565,29.384,24.928,29.384z M33.615,10.977c-2.566,0.515-5.104,0.512-7.676,0.001c0,0.158,0,0.291,0,0.425
		c0,5.84,0.004,11.68-0.01,17.52c0,0.364,0.133,0.521,0.457,0.562c0.852,0.107,1.698,0.248,2.555,0.302
		c1.414,0.086,2.826,0.014,4.219-0.293c0.303-0.066,0.467-0.168,0.466-0.55c-0.017-5.885-0.011-11.771-0.011-17.653
		C33.615,11.188,33.615,11.088,33.615,10.977z M25.973,30.458c-0.082,0.61-0.022,0.728,0.528,0.942
		c1.335,0.521,2.728,0.595,4.136,0.504c0.848-0.055,1.686-0.187,2.475-0.521c0.515-0.217,0.601-0.403,0.449-0.929
		C30.68,30.961,29.586,30.962,25.973,30.458z M33.594,9.289c-2.546,0.509-5.078,0.502-7.609,0.006
		c-0.104,0.553-0.088,0.62,0.429,0.708c0.769,0.131,1.539,0.249,2.313,0.299c1.469,0.097,2.937,0.044,4.381-0.281
		C33.648,9.897,33.646,9.888,33.594,9.289z M26.572,8.333c1.424,0.432,5.392,0.396,6.377-0.013
		C31.855,7.903,27.641,7.932,26.572,8.333z"/>
	<path display="inline" fill="#FFFFFF" d="M24.928,29.384c-5.363,0-10.676,0-16.016,0c0-7.118,0-14.218,0-21.338
		c5.347,0,10.684,0,16.016,0C24.928,15.146,24.928,22.247,24.928,29.384z M11.619,10.532c0.146,0,0.257,0,0.369,0
		c3.813,0.001,7.627,0.001,11.44,0.002c0.543,0,0.797-0.165,0.795-0.52c-0.002-0.339-0.242-0.498-0.771-0.498
		c-4.073-0.002-8.146-0.001-12.221,0c-0.495,0-0.645,0.163-0.645,0.688c0,5.658,0,11.315,0,16.976c0,0.689,0.116,0.81,0.803,0.81
		c4.051,0.001,8.103,0,12.153,0c0.08,0,0.161,0.007,0.235-0.011c0.279-0.058,0.451-0.231,0.438-0.519
		c-0.012-0.28-0.178-0.459-0.472-0.481c-0.124-0.012-0.249-0.008-0.374-0.008c-3.79,0-7.581,0.002-11.372,0.002
		c-0.121,0-0.241-0.012-0.38-0.019C11.619,21.477,11.619,16.027,11.619,10.532z M14.472,13.315c0.138,0,0.25,0,0.361,0
		c2.83,0,5.659,0.001,8.489,0.001c0.146,0,0.296,0.01,0.439-0.01c0.284-0.038,0.488-0.275,0.456-0.538
		c-0.032-0.281-0.194-0.45-0.489-0.466c-0.09-0.005-0.183-0.004-0.271-0.004c-3.089,0-6.18-0.001-9.27,0
		c-0.627,0-0.748,0.123-0.748,0.754c0,3.825,0,7.65-0.001,11.476c0,0.695,0.116,0.815,0.798,0.814
		c3.067-0.001,6.134-0.001,9.202-0.001c0.539,0,0.797-0.17,0.787-0.521c-0.01-0.34-0.252-0.493-0.781-0.493
		c-2.827,0-5.656,0-8.486,0.001c-0.155,0-0.31,0-0.484,0C14.472,20.646,14.472,17.007,14.472,13.315z"/>
	<path display="inline" fill="#FFFFFF" d="M33.615,10.977c0,0.111,0,0.211,0,0.311c0,5.885-0.006,11.771,0.011,17.653
		c0.001,0.382-0.163,0.481-0.466,0.55c-1.393,0.307-2.805,0.379-4.219,0.293c-0.854-0.052-1.703-0.192-2.555-0.3
		c-0.324-0.041-0.457-0.197-0.457-0.563c0.014-5.84,0.01-11.68,0.01-17.52c0-0.134,0-0.267,0-0.425
		C28.514,11.488,31.049,11.491,33.615,10.977z"/>
	<path display="inline" fill="#FFFFFF" d="M25.973,30.458c3.613,0.504,4.707,0.503,7.588-0.001c0.149,0.523,0.063,0.712-0.449,0.929
		c-0.789,0.334-1.627,0.466-2.475,0.521c-1.408,0.091-2.801,0.017-4.136-0.506C25.948,31.186,25.891,31.068,25.973,30.458z"/>
	<path display="inline" fill="#FFFFFF" d="M33.594,9.289c0.053,0.599,0.055,0.608-0.488,0.731c-1.443,0.325-2.912,0.378-4.381,0.281
		c-0.772-0.05-1.547-0.168-2.313-0.299c-0.516-0.088-0.53-0.155-0.428-0.708C28.516,9.791,31.048,9.798,33.594,9.289z"/>
	<path display="inline" fill="#FFFFFF" d="M26.572,8.333c1.068-0.401,5.283-0.43,6.377-0.013
		C31.964,8.729,27.996,8.765,26.572,8.333z"/>
	<path display="inline" d="M11.619,10.532c0,5.495,0,10.942,0,16.422c0.139,0.007,0.259,0.019,0.38,0.019
		c3.791,0,7.582-0.002,11.372-0.002c0.125,0,0.25-0.004,0.374,0.008c0.294,0.022,0.46,0.201,0.472,0.481
		c0.014,0.285-0.158,0.461-0.438,0.519c-0.075,0.018-0.156,0.011-0.236,0.011c-4.051,0-8.102,0.001-12.153,0
		c-0.688,0-0.803-0.118-0.803-0.81c0-5.658,0-11.317,0-16.976c0-0.524,0.15-0.688,0.645-0.688c4.074-0.001,8.147-0.002,12.221,0
		c0.529,0,0.771,0.159,0.771,0.498c0.002,0.354-0.252,0.52-0.795,0.52c-3.813-0.001-7.626-0.001-11.439-0.002
		C11.876,10.532,11.765,10.532,11.619,10.532z"/>
	<path display="inline" d="M14.472,13.315c0,3.691,0,7.332,0,11.013c0.174,0,0.329,0,0.484,0c2.83-0.001,5.659-0.001,8.487-0.001
		c0.529,0,0.771,0.153,0.781,0.493c0.01,0.352-0.248,0.521-0.787,0.521c-3.067,0-6.134,0-9.203,0.001
		c-0.682,0.001-0.798-0.119-0.798-0.814c0.001-3.823,0-7.648,0.001-11.476c0-0.631,0.121-0.754,0.748-0.754
		c3.09-0.001,6.18,0,9.27,0c0.091,0,0.183-0.001,0.271,0.004c0.295,0.016,0.457,0.185,0.49,0.466c0.032,0.263-0.172,0.5-0.457,0.538
		c-0.145,0.02-0.293,0.01-0.439,0.01c-2.829,0-5.658-0.001-8.488-0.001C14.721,13.315,14.61,13.315,14.472,13.315z"/>
	<g display="inline">
		<path d="M4.16,34.984c0-0.441,0-0.858,0-1.313c0.663,0,1.321,0,2.002,0c0-7.918,0-15.797,0-23.708c-0.652,0-1.304,0-1.983,0
			c0-1.875,0-3.718,0-5.582c10.864,0,21.727,0,32.616,0c0,1.839,0,3.683,0,5.561c-0.654,0-1.307,0-1.98,0c0,7.911,0,15.789,0,23.705
			c0.652,0,1.313,0,1.988,0c0,0.463,0,0.89,0,1.338C25.936,34.984,15.063,34.984,4.16,34.984z M10.368,33.626
			c6.764,0,13.497,0,20.233,0c0-2.731,0-5.438,0-8.149c-6.754,0-13.489,0-20.233,0C10.368,28.2,10.368,30.896,10.368,33.626z
			 M9.002,33.645c0-7.242,0-14.454,0-21.68c7.673,0,15.311,0,22.986,0c0,7.24,0,14.45,0,21.67c0.498,0,0.955,0,1.425,0
			c0-7.895,0-15.772,0-23.659c-8.631,0-17.241,0-25.848,0c0,7.905,0,15.783,0,23.668C8.042,33.645,8.492,33.645,9.002,33.645z
			 M35.455,5.743c-9.997,0-19.963,0-29.927,0c0,0.957,0,1.89,0,2.823c9.986,0,19.953,0,29.927,0
			C35.455,7.615,35.455,6.692,35.455,5.743z M10.369,14.997c6.764,0,13.492,0,20.23,0c0-0.575,0-1.124,0-1.676
			c-6.754,0-13.487,0-20.23,0C10.369,13.888,10.369,14.428,10.369,14.997z M30.604,16.401c-6.756,0-13.48,0-20.221,0
			c0,0.556,0,1.09,0,1.635c6.752,0,13.479,0,20.221,0C30.604,17.49,30.604,16.962,30.604,16.401z M30.607,22.448
			c-6.76,0-13.483,0-20.229,0c0,0.552,0,1.084,0,1.62c6.757,0,13.49,0,20.229,0C30.607,23.525,30.607,23.008,30.607,22.448z
			 M30.605,19.43c-6.754,0-13.481,0-20.222,0c0,0.552,0,1.085,0,1.616c6.754,0,13.479,0,20.222,0
			C30.605,20.499,30.605,19.982,30.605,19.43z"/>
		<path fill="#FFFFFF" d="M10.368,33.626c0-2.729,0-5.426,0-8.149c6.746,0,13.479,0,20.233,0c0,2.711,0,5.418,0,8.149
			C23.865,33.626,17.132,33.626,10.368,33.626z"/>
		<path fill="#FFFFFF" d="M9.002,33.645c-0.51,0-0.96,0-1.437,0c0-7.886,0-15.764,0-23.667c8.606,0,17.217,0,25.848,0
			c0,7.887,0,15.764,0,23.659c-0.47,0-0.927,0-1.425,0c0-7.22,0-14.43,0-21.67c-7.678,0-15.313,0-22.986,0
			C9.002,19.19,9.002,26.402,9.002,33.645z"/>
		<path fill="#FFFFFF" d="M35.455,5.743c0,0.949,0,1.872,0,2.823c-9.977,0-19.941,0-29.927,0c0-0.933,0-1.866,0-2.823
			C15.492,5.743,25.458,5.743,35.455,5.743z"/>
		<path fill="#FFFFFF" d="M10.369,14.997c0-0.569,0-1.109,0-1.676c6.745,0,13.479,0,20.23,0c0,0.553,0,1.101,0,1.676
			C23.861,14.997,17.133,14.997,10.369,14.997z"/>
		<path fill="#FFFFFF" d="M30.604,16.401c0,0.561,0,1.089,0,1.635c-6.742,0-13.469,0-20.221,0c0-0.545,0-1.079,0-1.635
			C17.122,16.401,23.848,16.401,30.604,16.401z"/>
		<path fill="#FFFFFF" d="M30.607,22.448c0,0.56,0,1.077,0,1.62c-6.737,0-13.47,0-20.229,0c0-0.536,0-1.068,0-1.62
			C17.125,22.448,23.85,22.448,30.607,22.448z"/>
		<path fill="#FFFFFF" d="M30.605,19.43c0,0.552,0,1.069,0,1.616c-6.74,0-13.465,0-20.222,0c0-0.53,0-1.064,0-1.616
			C17.125,19.43,23.852,19.43,30.605,19.43z"/>
	</g>
</g>
<rect x="10.386" y="25.188" display="none" fill="#EF0C23" width="20.223" height="8.438"/>
<g display="none">
	<path display="inline" d="M18.774,6.099c0.941,0,1.883,0,2.822,0c0.159,0.018,0.315,0.039,0.475,0.054
		c1.111,0.112,2.227,0.207,3.334,0.341c0.633,0.077,1.185,0.552,1.193,1.139c0.008,0.575,0.31,0.675,0.741,0.727
		c0.083,0.01,0.165,0.035,0.247,0.056c0.376,0.099,0.734,0.273,0.9,0.623c0.162,0.337,0.404,0.427,0.727,0.454
		c0.094,0.008,0.186,0.031,0.275,0.053c0.729,0.172,1.465,0.333,2.188,0.523c0.419,0.11,0.523,0.328,0.421,0.74
		c-0.049,0.183-0.103,0.362-0.154,0.542c-0.58,1.951-1.394,3.807-2.312,5.619c-0.057,0.112-0.104,0.248-0.1,0.369
		c0.021,0.584,0.067,1.164,0.098,1.747c0.127,2.535,0.265,5.069,0.372,7.605c0.066,1.578,0.085,3.158,0.137,4.735
		c0.002,0.093,0.063,0.224,0.137,0.267c0.877,0.519,1.185,1.759,0.642,2.627c-0.228,0.363-0.578,0.549-0.966,0.685
		c-6.512,0-13.022,0-19.533,0c-0.559-0.198-1.024-0.516-1.128-1.137c-0.062-0.373-0.049-0.769-0.003-1.146
		c0.054-0.447,0.335-0.779,0.737-0.973c0.193-0.093,0.222-0.205,0.227-0.391c0.044-1.738,0.099-3.479,0.138-5.219
		c0.002-0.129-0.066-0.297-0.159-0.381c-0.955-0.865-1.919-1.721-2.886-2.574c-1.012-0.894-1.585-2.006-1.598-3.356
		c-0.023-2.578-0.024-5.156-0.003-7.733c0.012-1.459,1.082-2.483,2.539-2.5c0.31-0.003,0.621,0,0.931,0c0.808,0,1.616,0,2.426,0
		c0.184-0.732,0.665-1.106,1.367-1.233c0.148-0.027,0.292-0.08,0.44-0.096c0.215-0.023,0.291-0.112,0.296-0.341
		c0.021-0.789,0.494-1.329,1.277-1.44c0.791-0.113,1.586-0.193,2.38-0.276C17.858,6.163,18.316,6.136,18.774,6.099z M29.201,31.559
		c0-0.146,0.003-0.269-0.001-0.389c-0.032-1.186-0.052-2.371-0.099-3.555c-0.093-2.322-0.177-4.646-0.311-6.965
		c-0.128-2.188-0.297-4.374-0.482-6.557c-0.121-1.395-0.313-2.784-0.468-4.176c-0.039-0.357-0.229-0.535-0.582-0.622
		C25.573,8.88,23.855,8.658,22.127,8.6c-1.529-0.051-3.066-0.011-4.596,0.053c-1.505,0.063-2.992,0.298-4.457,0.66
		c-0.313,0.077-0.484,0.25-0.522,0.575c-0.128,1.112-0.301,2.219-0.39,3.333c-0.24,2.991-0.493,5.981-0.652,8.976
		c-0.162,3.033-0.219,6.072-0.321,9.109c-0.003,0.079,0,0.16,0,0.252C17.202,31.559,23.184,31.559,29.201,31.559z M20.215,32.514
		c-2.069,0-4.139,0-6.208,0c-1.082,0-2.164-0.002-3.245,0.002c-0.324,0.002-0.521,0.161-0.571,0.436
		c-0.099,0.544,0.002,0.943,0.294,1.06c0.134,0.054,0.294,0.056,0.442,0.056c6.18,0.002,12.361,0.002,18.541,0.002
		c0.095,0,0.198,0.017,0.279-0.021c0.132-0.056,0.302-0.118,0.36-0.229c0.177-0.328,0.168-0.694,0.021-1.031
		c-0.127-0.291-0.417-0.271-0.687-0.271C26.368,32.514,23.291,32.514,20.215,32.514z M11.228,12.554c-0.842,0-1.691,0-2.54,0
		c-0.007,0.048-0.015,0.076-0.015,0.103c0,2.398-0.001,4.796,0,7.193c0,0.34,0.139,0.618,0.393,0.841
		c0.296,0.263,0.59,0.523,0.886,0.785c0.193,0.17,0.387,0.34,0.59,0.518C10.772,18.825,10.999,15.698,11.228,12.554z M11.51,10.543
		c-1.163,0-2.272-0.028-3.38,0.009c-0.852,0.029-1.439,0.654-1.443,1.504c-0.012,2.615-0.009,5.23,0.004,7.847
		c0.005,0.852,0.307,1.626,0.912,2.214c0.89,0.865,1.839,1.668,2.764,2.497c0.011,0.01,0.035,0.006,0.131,0.021
		c0-0.384-0.016-0.756,0.006-1.125c0.012-0.195-0.032-0.328-0.185-0.461c-0.599-0.516-1.178-1.056-1.777-1.568
		c-0.561-0.479-0.817-1.075-0.808-1.812c0.013-1.045,0.003-2.089,0.003-3.133c0-1.439-0.002-2.879,0.001-4.318
		c0.001-0.464,0.167-0.627,0.629-0.631c0.395-0.003,0.791,0,1.186,0c0.601,0,1.201,0,1.826,0
		C11.423,11.236,11.464,10.905,11.51,10.543z M14.667,8.028c3.696-0.57,7.37-0.563,11.047-0.003
		c-0.041-0.418-0.181-0.583-0.532-0.625c-0.804-0.097-1.604-0.216-2.408-0.27c-2.521-0.167-5.038-0.114-7.54,0.265
		C14.855,7.452,14.724,7.583,14.667,8.028z M28.865,10.366c0.176,1.667,0.347,3.273,0.52,4.916c0.482-0.796,1.665-3.904,1.684-4.439
		C30.352,10.688,29.631,10.531,28.865,10.366z"/>
	<path display="inline" fill="#FFFFFF" d="M29.201,31.559c-6.018,0-12,0-18.012,0c0-0.091-0.003-0.172,0-0.252
		c0.102-3.037,0.159-6.076,0.321-9.108c0.16-2.995,0.412-5.985,0.652-8.976c0.089-1.114,0.262-2.221,0.39-3.333
		c0.038-0.326,0.208-0.498,0.522-0.575c1.465-0.361,2.952-0.597,4.457-0.66c1.53-0.063,3.067-0.104,4.596-0.053
		c1.729,0.059,3.446,0.281,5.135,0.698c0.35,0.087,0.541,0.265,0.581,0.622c0.155,1.392,0.347,2.781,0.466,4.176
		c0.188,2.183,0.356,4.369,0.484,6.555c0.135,2.318,0.219,4.643,0.311,6.965c0.047,1.184,0.064,2.367,0.099,3.555
		C29.204,31.29,29.201,31.41,29.201,31.559z M22.16,20.58c0-0.789,0-1.58,0-2.37c0-1.524,0.008-3.048-0.003-4.572
		c-0.005-0.871-0.396-1.533-1.2-1.876c-0.756-0.323-1.476-0.189-2.095,0.364c-0.484,0.431-0.642,0.997-0.642,1.624
		c0.001,3.575,0.001,7.15,0.001,10.727c0,0.986-0.01,1.977,0.002,2.963c0.018,1.479,1.316,2.42,2.657,1.938
		c0.793-0.284,1.278-1.022,1.279-1.967C22.162,25.134,22.16,22.857,22.16,20.58z"/>
	<path display="inline" fill="#FFFFFF" d="M20.215,32.514c3.076,0,6.153,0,9.229,0c0.27,0,0.56-0.02,0.687,0.271
		c0.146,0.337,0.155,0.703-0.021,1.031c-0.061,0.108-0.229,0.174-0.36,0.229c-0.081,0.035-0.187,0.02-0.278,0.02
		c-6.181,0.002-12.361,0.002-18.542-0.002c-0.147,0-0.308-0.002-0.442-0.055c-0.292-0.113-0.393-0.516-0.294-1.06
		c0.05-0.272,0.247-0.433,0.571-0.435c1.082-0.005,2.163-0.002,3.245-0.002C16.077,32.514,18.146,32.514,20.215,32.514z"/>
	<path display="inline" fill="#FFFFFF" d="M11.51,10.543c-0.045,0.362-0.087,0.693-0.131,1.045c-0.625,0-1.226,0-1.826,0
		c-0.395,0-0.791-0.003-1.186,0c-0.462,0.004-0.628,0.167-0.629,0.631c-0.003,1.439-0.001,2.879-0.001,4.318
		c0,1.044,0.01,2.088-0.003,3.133c-0.01,0.734,0.247,1.331,0.808,1.811c0.6,0.516,1.178,1.056,1.777,1.569
		c0.153,0.132,0.197,0.265,0.185,0.461c-0.022,0.369-0.006,0.741-0.006,1.125c-0.097-0.017-0.12-0.013-0.131-0.021
		c-0.924-0.829-1.874-1.633-2.764-2.497c-0.605-0.588-0.907-1.362-0.912-2.214c-0.013-2.617-0.016-5.232-0.004-7.847
		c0.003-0.85,0.591-1.475,1.443-1.504C9.237,10.515,10.347,10.543,11.51,10.543z"/>
	<rect x="17.274" y="10.533" display="inline" width="6.285" height="18.971"/>
	<path display="inline" fill="#FFFFFF" d="M14.667,8.028c0.058-0.445,0.188-0.577,0.567-0.634c2.502-0.378,5.018-0.431,7.54-0.265
		c0.806,0.054,1.604,0.172,2.408,0.27c0.354,0.042,0.491,0.207,0.532,0.625C22.036,7.465,18.362,7.458,14.667,8.028z"/>
	<path display="inline" fill="#FFFFFF" d="M28.865,10.366c0.766,0.166,1.486,0.322,2.203,0.477
		c-0.021,0.535-1.201,3.643-1.686,4.439C29.212,13.639,29.041,12.032,28.865,10.366z"/>
	<path display="inline" d="M22.16,20.58c0,2.277,0.002,4.554-0.001,6.83c-0.001,0.943-0.486,1.683-1.279,1.967
		c-1.34,0.482-2.639-0.459-2.657-1.938c-0.012-0.987-0.002-1.978-0.002-2.963c0-3.576,0-7.15-0.001-10.728
		c0-0.627,0.158-1.193,0.642-1.624c0.619-0.553,1.339-0.687,2.095-0.364c0.807,0.343,1.195,1.006,1.2,1.876
		c0.011,1.523,0.003,3.047,0.003,4.572C22.16,19,22.16,19.791,22.16,20.58z M21.206,25.016c-0.165,0-0.306,0.004-0.442-0.002
		c-0.333-0.01-0.526-0.182-0.529-0.462c-0.003-0.278,0.184-0.45,0.519-0.472c0.146-0.01,0.294-0.001,0.439-0.001
		c0-0.376,0-0.708,0-1.06c-0.17,0-0.322,0.012-0.471-0.002c-0.313-0.024-0.493-0.209-0.489-0.477
		c0.003-0.268,0.193-0.443,0.502-0.461c0.154-0.01,0.313-0.001,0.453-0.001c0-0.379,0-0.713,0-1.05
		c-0.377-0.065-0.924,0.14-0.938-0.463c-0.017-0.651,0.573-0.419,0.938-0.5c0-0.353,0-0.692,0-1.029
		c-0.769-0.054-0.97-0.145-0.951-0.468c0.042-0.644,0.578-0.437,0.958-0.513c0-0.341,0-0.673,0-1.037
		c-0.178,0-0.336,0.011-0.492-0.003c-0.308-0.026-0.482-0.213-0.47-0.486c0.012-0.258,0.194-0.427,0.492-0.44
		c0.154-0.008,0.313-0.002,0.474-0.002c0-0.371,0-0.706,0-1.069c-0.177,0-0.333,0.007-0.49-0.001
		c-0.29-0.015-0.471-0.193-0.475-0.454c-0.003-0.263,0.168-0.444,0.46-0.466c0.164-0.014,0.332-0.003,0.514-0.003
		c0-0.241,0.014-0.439-0.003-0.634c-0.05-0.643-0.683-1.069-1.299-0.884c-0.494,0.147-0.74,0.519-0.741,1.126
		c0,4.562,0,9.126,0,13.688c0,0.074,0,0.148,0.004,0.227c0.044,0.65,0.687,1.096,1.311,0.904c0.593-0.181,0.865-0.758,0.689-1.515
		c-0.123,0-0.252,0.003-0.381-0.001c-0.36-0.011-0.553-0.175-0.555-0.462c0-0.293,0.195-0.459,0.551-0.466
		c0.138-0.003,0.273,0,0.421,0C21.206,25.713,21.206,25.385,21.206,25.016z"/>
</g>
<g display="none">
	<path display="inline" d="M7.389,9.724C8.231,8.413,9.38,7.813,10.83,7.802c2.271-0.017,4.542-0.007,6.813-0.009
		c3.125-0.003,6.251-0.012,9.376-0.01c1.643,0.001,2.896,0.698,3.707,2.141c0.301,0.536,0.428,1.129,0.436,1.732
		c0.018,1.63,0.002,3.26,0.004,4.891c0,1.397,0.009,2.794,0.009,4.192c0,1.407-0.009,2.813-0.009,4.222
		c-0.002,1.396,0.006,2.794,0.005,4.189c-0.003,1.396-0.007,2.795-0.013,4.19c-0.001,0.368-0.001,0.738-0.024,1.104
		c-0.022,0.355-0.161,0.521-0.516,0.561c-0.413,0.043-0.831,0.049-1.247,0.049c-2.021,0.002-4.039-0.008-6.059-0.008
		s-4.039,0.008-6.057,0.01c-0.99,0.002-1.98,0.006-2.97,0.004c-0.635-0.002-0.861-0.211-0.87-0.854
		c-0.017-1.407-0.013-2.813-0.015-4.224c-0.002-2.021-0.001-4.039-0.001-6.06s0-4.039,0-6.058c0-2,0.012-4.001-0.001-6.001
		c-0.008-1.156-0.497-2.05-1.58-2.532c-0.833-0.37-1.671-0.311-2.454,0.164C9.097,9.661,8.83,9.74,8.519,9.728
		C8.164,9.714,7.808,9.724,7.389,9.724z M13.747,9.098c0.047,0.101,0.057,0.14,0.08,0.168c0.706,0.893,0.899,1.933,0.897,3.038
		c-0.009,4.573-0.01,9.146-0.014,13.721c0,0.092,0,0.184,0,0.279c5.074,0,10.101,0,15.149,0c0.007-0.115,0.02-0.222,0.02-0.326
		c0.002-0.648,0.001-1.299,0.002-1.948c0.003-2.021,0.01-4.038,0.008-6.055c-0.002-2.027-0.025-4.055-0.021-6.083
		c0.005-1.633-1.106-2.786-2.737-2.788C23.157,9.1,19.187,9.1,15.215,9.098C14.742,9.098,14.268,9.098,13.747,9.098z M14.745,33.739
		c0.08,0.008,0.118,0.017,0.155,0.017c2.3-0.002,4.599-0.011,6.899-0.011c2.581,0,5.161,0.011,7.742,0.002
		c0.105,0,0.299-0.14,0.303-0.222c0.026-0.568,0.016-1.14,0.016-1.717c-5.047,0-10.076,0-15.113,0
		C14.745,32.464,14.745,33.091,14.745,33.739z M14.702,28.398c0.282,0,0.515,0,0.747,0c1.748,0,3.495,0,5.242,0
		c1.697,0.002,3.396,0.004,5.097,0.008c1.28,0.002,2.562,0,3.844,0.004c0.192,0,0.257-0.092,0.255-0.27
		c-0.004-0.23-0.008-0.467,0.008-0.697c0.016-0.241-0.072-0.37-0.324-0.37c-0.303,0-0.604-0.003-0.902-0.003
		c-1.736,0-3.477,0.003-5.212,0.005c-2.038,0-4.076,0-6.116,0c-0.767,0-1.534,0-2.3,0.002c-0.16,0-0.331,0.004-0.334,0.229
		C14.697,27.661,14.702,28.018,14.702,28.398z"/>
	<path display="inline" d="M8.873,12.694c-1.067,0-2.134,0.006-3.202-0.002c-0.396-0.004-0.729,0.05-1.063,0.34
		c-0.863,0.749-2.11,0.378-2.614-0.664c-0.347-0.716,0.075-1.65,0.612-2.028c0.625-0.44,1.482-0.376,2.077,0.118
		c0.186,0.154,0.464,0.276,0.701,0.278c2.008,0.017,4.018,0.002,6.027-0.001c0.262-0.001,0.524,0.011,0.786,0.008
		c0.222-0.002,0.363,0.11,0.387,0.316c0.055,0.471,0.085,0.945,0.125,1.419c0.018,0.214-0.129,0.232-0.284,0.232
		c-0.65,0-1.3-0.002-1.951-0.003c-0.533,0-1.067,0-1.601,0C8.873,12.703,8.873,12.698,8.873,12.694z"/>
	<path display="inline" d="M6.828,13.759c0.431,0,0.835,0,1.284,0c0,0.308,0,0.604,0,0.899c-0.002,2.017-0.005,4.035-0.006,6.052
		c0,0.504,0.01,1.009,0.002,1.513c-0.004,0.28,0.12,0.367,0.392,0.361c0.708-0.018,1.416-0.014,2.124-0.009
		c0.437,0.002,0.714,0.204,0.751,0.53c0.05,0.438-0.205,0.758-0.666,0.764c-1.047,0.015-2.095,0.015-3.143-0.004
		c-0.533-0.01-0.745-0.243-0.75-0.791c-0.012-1.311-0.011-2.618-0.011-3.927c0-1.727,0.004-3.453,0.008-5.179
		C6.815,13.912,6.821,13.854,6.828,13.759z"/>
	<path display="inline" d="M31.85,10.739c0.377,0,0.754-0.021,1.129,0.006c0.445,0.03,0.813-0.132,1.158-0.385
		c0.807-0.594,1.889-0.334,2.398,0.535c0.525,0.897,0.188,1.553-0.458,2.164c-0.609,0.578-1.466,0.497-2.134-0.102
		c-0.215-0.192-0.447-0.28-0.74-0.263c-0.366,0.022-0.737,0.021-1.104,0.004c-0.084-0.003-0.168-0.104-0.238-0.173
		c-0.024-0.026-0.01-0.094-0.01-0.142C31.85,11.851,31.85,11.319,31.85,10.739z"/>
	<path display="inline" fill="#FFFFFF" d="M13.747,9.098c0.521,0,0.995,0,1.469,0C19.187,9.1,23.157,9.1,27.129,9.104
		c1.63,0.002,2.742,1.155,2.737,2.788c-0.005,2.028,0.019,4.056,0.021,6.083c0.002,2.018-0.005,4.036-0.008,6.055
		c-0.001,0.649,0,1.3-0.002,1.948c0,0.104-0.014,0.211-0.02,0.326c-5.049,0-10.075,0-15.149,0c0-0.098,0-0.188,0-0.279
		c0.003-4.574,0.004-9.147,0.014-13.721c0.002-1.104-0.191-2.145-0.897-3.038C13.803,9.238,13.793,9.199,13.747,9.098z"/>
</g>
<g>
	<path fill="#EF0C23" d="M18.007,30.288l-0.857-1.409c0,0-0.184-1.592-0.184-1.714s0.551-1.53,0.644-1.622
		c0.092-0.092,0.795-1.193,0.887-1.255c0.092-0.062,2.144-1.929,2.144-1.929l1.226-1.286l1.071-0.857l0.949-0.888l1.04-0.184h1.47
		l1.438,0.643l0.274,0.459L18.007,30.288z"/>
	<path fill="#FFFFFF" d="M14.914,39.594h2.816h8.511l-0.949-1.713l-1.591-1.563l-2.053-0.551h-2.144h-1.254l-1.286,0.979
		c0,0-1.255,1.408-1.317,1.5C15.588,38.34,14.914,39.594,14.914,39.594z"/>
	<path d="M16.44,36.827c-0.103-0.067-0.183-0.104-0.24-0.162c-0.985-0.989-1.992-1.957-2.945-2.979
		c-1.615-1.726-1.647-4.447-0.065-6.199c0.859-0.953,1.792-1.839,2.697-2.752c0.426-0.431,0.859-0.859,1.293-1.282
		c0.094-0.09,0.112-0.175,0.08-0.297c-0.506-1.895,0.993-3.679,2.658-3.916c0.88-0.125,1.691,0.08,2.396,0.642
		c0.047,0.039,0.098,0.076,0.139,0.107c0.322-0.238,0.621-0.492,0.951-0.696c1.324-0.818,2.688-0.833,4.059-0.123
		c0.35,0.182,0.668,0.427,0.98,0.669c0.263,0.202,0.26,0.398,0.031,0.636c-0.185,0.191-0.377,0.375-0.563,0.563
		c-1.963,1.964-3.929,3.929-5.894,5.894c-1.18,1.18-2.358,2.358-3.539,3.539c-0.294,0.293-0.474,0.289-0.739-0.033
		c-0.658-0.799-1.074-1.701-1.122-2.739c-0.054-1.144,0.406-2.104,1.14-2.951c0.054-0.063,0.11-0.126,0.164-0.188
		c0.01-0.012,0.016-0.024,0.03-0.051c-0.114-0.154-0.231-0.314-0.373-0.506c-0.236,0.248-0.456,0.481-0.681,0.711
		c-1.072,1.088-2.183,2.144-3.212,3.272c-1.323,1.45-1.268,3.81,0.089,5.233c1.012,1.06,2.061,2.084,3.094,3.125
		c0.019,0.019,0.042,0.033,0.042,0.033c0.457-0.24,0.884-0.513,1.345-0.695c1.909-0.769,3.773-0.619,5.551,0.397
		c1.327,0.761,2.25,1.877,2.754,3.327c0.137,0.391-0.011,0.59-0.426,0.59c-3.658,0-7.316-0.005-10.975,0.004
		c-0.398,0.002-0.585-0.226-0.448-0.613c0.304-0.867,0.78-1.613,1.415-2.271C16.203,37.037,16.29,36.965,16.44,36.827z
		 M27.756,20.153c-0.227-0.135-0.445-0.283-0.681-0.402c-0.843-0.427-1.714-0.515-2.611-0.198c-0.64,0.224-1.165,0.621-1.639,1.095
		c-1.406,1.406-2.818,2.807-4.214,4.224c-0.301,0.306-0.579,0.647-0.805,1.013c-0.836,1.354-0.539,2.85,0.319,3.896
		C21.326,26.582,24.525,23.381,27.756,20.153z M25.734,39.283c-0.623-1.708-2.614-3.443-5.275-3.373
		c-1.35,0.036-2.528,0.523-3.537,1.417c-0.609,0.539-1.098,1.174-1.41,1.956C18.935,39.283,22.324,39.283,25.734,39.283z
		 M21.926,20.502c-1.025-0.902-2.467-0.771-3.443,0.317c-0.889,0.989-0.76,2.423-0.025,3.144
		C19.611,22.812,20.764,21.66,21.926,20.502z"/>
</g>
</svg>
