<svg xmlns="http://www.w3.org/2000/svg" width="40" height="40" viewBox="0 0 40 40">
  <g id="Study_Desk" data-name="Study Desk" transform="translate(-628 -96)">
    <rect id="Rectangle_475" data-name="Rectangle 475" width="20" height="4" transform="translate(632 120)" fill="#fff"/>
    <rect id="Rectangle_483" data-name="Rectangle 483" width="40" height="40" transform="translate(628 96)" fill="none"/>
    <g id="Study_Desk-2" data-name="Study Desk" transform="translate(536 -416)">
      <g id="Rectangle_83" data-name="Rectangle 83" transform="translate(115 536)" fill="#fff" stroke="#000" stroke-width="1">
        <rect width="13" height="16" stroke="none"/>
        <rect x="0.5" y="0.5" width="12" height="15" fill="none"/>
      </g>
      <path id="Path_108" data-name="Path 108" d="M2643.565,795.225v-15.5h23.325" transform="translate(-2547.081 -243.225)" fill="none" stroke="#000" stroke-width="1"/>
      <path id="Path_109" data-name="Path 109" d="M2641.613,746.84h18.568" transform="translate(-2544.732 -207)" fill="none" stroke="#000" stroke-width="1"/>
      <path id="Path_110" data-name="Path 110" d="M2639.123,519.776V509.661l4.613,4.038" transform="translate(-2537.5 16.79)" fill="none" stroke="#000" stroke-width="1"/>
      <g id="Path_111" data-name="Path 111" transform="matrix(0.719, 0.695, -0.695, 0.719, 106.323, 528.445)" fill="#fff">
        <path d="M 2.311999559402466 4.114715099334717 L 0.5000011324882507 3.470202445983887 L 0.5000011324882507 -0.06090239062905312 L 2.338961839675903 -0.7069824934005737 L 2.311999559402466 4.114715099334717 Z" stroke="none"/>
        <path d="M 1.835002779960632 4.220008850097656e-05 L 1.000001072883606 0.2934024333953857 L 1.000001072883606 3.117368698120117 L 1.815948128700256 3.407594203948975 L 1.835002779960632 4.220008850097656e-05 M 2.842921018600464 -1.413993835449219 L 2.808051109313965 4.821846485137939 L 1.192092895507813e-06 3.823046207427979 L 1.192092895507813e-06 -0.4151935577392578 L 2.842921018600464 -1.413993835449219 Z" stroke="none" fill="#c20e1a"/>
      </g>
      <g id="Rectangle_84" data-name="Rectangle 84" transform="translate(121 530)" fill="#fff" stroke="#c20e1a" stroke-width="1">
        <rect width="3" height="6" stroke="none"/>
        <rect x="0.5" y="0.5" width="2" height="5" fill="none"/>
      </g>
      <g id="Rectangle_85" data-name="Rectangle 85" transform="translate(123 530)" fill="#fff" stroke="#c20e1a" stroke-width="1">
        <rect width="3" height="6" stroke="none"/>
        <rect x="0.5" y="0.5" width="2" height="5" fill="none"/>
      </g>
      <g id="Rectangle_86" data-name="Rectangle 86" transform="translate(125 530)" fill="#fff" stroke="#c20e1a" stroke-width="1">
        <rect width="3" height="6" stroke="none"/>
        <rect x="0.5" y="0.5" width="2" height="5" fill="none"/>
      </g>
    </g>
  </g>
</svg>
