<?xml version="1.0" encoding="UTF-8"?>
<svg xmlns="http://www.w3.org/2000/svg" xmlns:xlink="http://www.w3.org/1999/xlink" width="30px" height="30px" viewBox="0 0 30 30" version="1.1">
<g id="surface1">
<path style=" stroke:none;fill-rule:evenodd;fill:rgb(96.862745%,4.313725%,4.313725%);fill-opacity:1;" d="M 6.433594 16.003906 L 13.878906 16.003906 L 13.878906 17.351562 L 6.433594 17.351562 Z M 6.433594 16.003906 "/>
<path style=" stroke:none;fill-rule:evenodd;fill:rgb(0%,0%,0%);fill-opacity:1;" d="M 10.140625 24.355469 C 10.140625 24.410156 10.140625 24.453125 10.140625 24.496094 C 10.140625 26.210938 10.144531 27.929688 10.140625 29.644531 C 10.140625 29.710938 10.136719 29.777344 10.113281 29.839844 C 10.066406 29.976562 9.929688 30.054688 9.78125 30.039062 C 9.628906 30.019531 9.515625 29.914062 9.5 29.765625 C 9.496094 29.722656 9.496094 29.683594 9.496094 29.640625 C 9.496094 27.453125 9.492188 25.261719 9.492188 23.070312 C 9.492188 23.039062 9.492188 23.011719 9.492188 22.980469 C 9.386719 22.96875 9.289062 22.964844 9.195312 22.945312 C 8.777344 22.859375 8.484375 22.617188 8.316406 22.226562 C 8.289062 22.167969 8.253906 22.140625 8.1875 22.125 C 7.433594 21.9375 6.949219 21.476562 6.761719 20.714844 C 6.726562 20.585938 6.71875 20.445312 6.71875 20.308594 C 6.71875 19.480469 6.71875 18.65625 6.722656 17.832031 C 6.722656 17.746094 6.695312 17.691406 6.617188 17.640625 C 6.273438 17.429688 6.085938 17.125 6.097656 16.714844 C 6.113281 16.207031 6.539062 15.753906 7.046875 15.722656 C 7.332031 15.707031 7.617188 15.710938 7.898438 15.707031 C 8.414062 15.707031 8.925781 15.707031 9.441406 15.710938 C 9.464844 15.710938 9.492188 15.710938 9.523438 15.710938 C 9.527344 15.621094 9.535156 15.539062 9.539062 15.460938 C 9.566406 14.730469 9.59375 14.003906 9.621094 13.277344 C 9.648438 12.601562 9.671875 11.921875 9.703125 11.242188 C 9.714844 10.929688 9.753906 10.621094 9.90625 10.339844 C 10.261719 9.6875 10.800781 9.308594 11.542969 9.253906 C 11.929688 9.222656 12.320312 9.238281 12.707031 9.238281 C 14.441406 9.234375 16.171875 9.234375 17.902344 9.238281 C 18.753906 9.238281 19.507812 9.761719 19.792969 10.53125 C 19.878906 10.769531 19.90625 11.015625 19.914062 11.261719 C 19.953125 12.253906 19.984375 13.242188 20.023438 14.226562 C 20.070312 15.308594 20.117188 16.386719 20.164062 17.464844 C 20.195312 18.246094 20.226562 19.023438 20.257812 19.800781 C 20.257812 19.820312 20.257812 19.835938 20.261719 19.855469 C 20.332031 19.871094 20.402344 19.882812 20.464844 19.898438 C 21.011719 20.019531 21.390625 20.492188 21.394531 21.046875 C 21.398438 21.328125 21.40625 21.613281 21.382812 21.890625 C 21.34375 22.386719 20.972656 22.804688 20.488281 22.925781 C 20.410156 22.945312 20.332031 22.957031 20.25 22.964844 C 20.207031 22.96875 20.1875 22.984375 20.1875 23.03125 C 20.191406 23.261719 20.191406 23.488281 20.191406 23.722656 C 20.191406 25.707031 20.191406 27.695312 20.191406 29.679688 C 20.191406 29.875 20.113281 29.984375 19.949219 30.027344 C 19.753906 30.078125 19.558594 29.941406 19.550781 29.742188 C 19.546875 29.621094 19.546875 29.5 19.546875 29.378906 C 19.546875 27.746094 19.550781 26.109375 19.550781 24.472656 C 19.550781 24.363281 19.542969 24.355469 19.433594 24.355469 C 16.363281 24.355469 13.292969 24.355469 10.222656 24.355469 C 10.199219 24.355469 10.175781 24.355469 10.140625 24.355469 Z M 19.601562 19.847656 C 19.601562 19.8125 19.601562 19.78125 19.597656 19.75 C 19.585938 19.296875 19.570312 18.847656 19.550781 18.398438 C 19.527344 17.707031 19.496094 17.011719 19.46875 16.320312 C 19.429688 15.378906 19.394531 14.4375 19.355469 13.496094 C 19.328125 12.769531 19.304688 12.042969 19.273438 11.3125 C 19.265625 11.0625 19.238281 10.816406 19.113281 10.59375 C 18.839844 10.105469 18.414062 9.867188 17.867188 9.867188 C 15.996094 9.863281 14.128906 9.863281 12.257812 9.863281 C 12.035156 9.863281 11.808594 9.859375 11.585938 9.878906 C 10.910156 9.933594 10.394531 10.464844 10.359375 11.140625 C 10.324219 11.722656 10.300781 12.300781 10.277344 12.882812 C 10.242188 13.785156 10.210938 14.6875 10.179688 15.589844 C 10.179688 15.628906 10.179688 15.667969 10.179688 15.710938 C 10.222656 15.710938 10.253906 15.710938 10.285156 15.710938 C 10.992188 15.710938 11.695312 15.710938 12.402344 15.710938 C 12.632812 15.710938 12.863281 15.707031 13.089844 15.722656 C 13.503906 15.746094 13.800781 15.960938 13.976562 16.328125 C 14.148438 16.683594 14.101562 17.035156 13.882812 17.355469 C 13.660156 17.671875 13.339844 17.804688 12.960938 17.804688 C 12.035156 17.804688 11.109375 17.804688 10.183594 17.804688 C 10.15625 17.804688 10.132812 17.804688 10.101562 17.804688 C 10.070312 18.488281 10.039062 19.167969 10.007812 19.851562 C 13.207031 19.847656 16.398438 19.847656 19.601562 19.847656 Z M 14.8125 22.339844 C 16.390625 22.339844 17.964844 22.339844 19.542969 22.339844 C 19.765625 22.339844 19.984375 22.339844 20.203125 22.339844 C 20.503906 22.332031 20.742188 22.089844 20.746094 21.792969 C 20.746094 21.539062 20.746094 21.285156 20.746094 21.03125 C 20.742188 20.816406 20.636719 20.660156 20.449219 20.554688 C 20.34375 20.5 20.226562 20.488281 20.109375 20.488281 C 16.570312 20.488281 13.035156 20.488281 9.496094 20.488281 C 9.464844 20.488281 9.433594 20.488281 9.402344 20.488281 C 9.128906 20.503906 8.894531 20.699219 8.875 20.96875 C 8.855469 21.261719 8.859375 21.5625 8.878906 21.855469 C 8.890625 22.085938 9.039062 22.238281 9.257812 22.308594 C 9.332031 22.332031 9.414062 22.335938 9.492188 22.335938 C 11.265625 22.339844 13.039062 22.339844 14.8125 22.339844 Z M 10.152344 22.976562 C 10.152344 23.234375 10.152344 23.476562 10.152344 23.722656 C 13.285156 23.722656 16.410156 23.722656 19.539062 23.722656 C 19.539062 23.472656 19.539062 23.226562 19.539062 22.976562 C 16.410156 22.976562 13.28125 22.976562 10.152344 22.976562 Z M 7.367188 17.808594 C 7.367188 17.824219 7.367188 17.832031 7.367188 17.839844 C 7.367188 18.6875 7.363281 19.539062 7.371094 20.386719 C 7.371094 20.773438 7.546875 21.074219 7.859375 21.296875 C 7.96875 21.371094 8.082031 21.4375 8.21875 21.472656 C 8.21875 21.359375 8.214844 21.25 8.21875 21.140625 C 8.222656 21.042969 8.222656 20.941406 8.238281 20.847656 C 8.332031 20.324219 8.746094 19.941406 9.273438 19.875 C 9.328125 19.871094 9.355469 19.855469 9.359375 19.792969 C 9.386719 19.160156 9.417969 18.527344 9.445312 17.890625 C 9.449219 17.863281 9.449219 17.835938 9.449219 17.808594 C 8.75 17.808594 8.0625 17.808594 7.367188 17.808594 Z M 10.089844 17.171875 C 10.089844 17.171875 10.089844 17.175781 10.089844 17.175781 C 10.996094 17.175781 11.898438 17.175781 12.800781 17.175781 C 12.886719 17.175781 12.972656 17.171875 13.058594 17.164062 C 13.234375 17.148438 13.390625 17.003906 13.417969 16.828125 C 13.449219 16.644531 13.355469 16.457031 13.183594 16.390625 C 13.105469 16.359375 13.015625 16.34375 12.929688 16.34375 C 11.023438 16.339844 9.117188 16.339844 7.210938 16.339844 C 7.191406 16.339844 7.179688 16.339844 7.164062 16.339844 C 6.992188 16.351562 6.855469 16.429688 6.785156 16.585938 C 6.71875 16.738281 6.734375 16.886719 6.84375 17.015625 C 6.941406 17.132812 7.070312 17.171875 7.21875 17.171875 C 8.175781 17.171875 9.132812 17.171875 10.089844 17.171875 Z M 10.089844 17.171875 "/>
<path style=" stroke:none;fill-rule:evenodd;fill:rgb(100%,100%,100%);fill-opacity:1;" d="M 19.601562 19.847656 C 16.398438 19.847656 13.207031 19.847656 10.007812 19.847656 C 10.039062 19.167969 10.066406 18.488281 10.097656 17.804688 C 10.132812 17.804688 10.15625 17.804688 10.179688 17.804688 C 11.105469 17.804688 12.03125 17.804688 12.957031 17.800781 C 13.335938 17.800781 13.65625 17.667969 13.878906 17.351562 C 14.101562 17.03125 14.148438 16.683594 13.976562 16.328125 C 13.800781 15.960938 13.503906 15.746094 13.089844 15.722656 C 12.859375 15.707031 12.628906 15.710938 12.402344 15.710938 C 11.695312 15.707031 10.992188 15.710938 10.285156 15.710938 C 10.253906 15.710938 10.21875 15.710938 10.179688 15.710938 C 10.179688 15.664062 10.175781 15.628906 10.179688 15.589844 C 10.210938 14.6875 10.242188 13.785156 10.277344 12.878906 C 10.296875 12.300781 10.324219 11.71875 10.355469 11.140625 C 10.390625 10.464844 10.90625 9.933594 11.582031 9.878906 C 11.808594 9.859375 12.03125 9.863281 12.257812 9.863281 C 14.125 9.863281 15.996094 9.859375 17.863281 9.863281 C 18.414062 9.867188 18.835938 10.105469 19.109375 10.589844 C 19.234375 10.8125 19.261719 11.058594 19.273438 11.3125 C 19.300781 12.039062 19.324219 12.765625 19.355469 13.496094 C 19.390625 14.4375 19.429688 15.378906 19.46875 16.316406 C 19.492188 17.011719 19.523438 17.703125 19.546875 18.398438 C 19.566406 18.847656 19.582031 19.296875 19.597656 19.746094 C 19.601562 19.78125 19.601562 19.8125 19.601562 19.847656 Z M 19.601562 19.847656 "/>
<path style=" stroke:none;fill-rule:evenodd;fill:rgb(100%,100%,100%);fill-opacity:1;" d="M 14.8125 22.339844 C 13.039062 22.339844 11.265625 22.339844 9.488281 22.335938 C 9.414062 22.335938 9.328125 22.332031 9.257812 22.308594 C 9.039062 22.238281 8.890625 22.085938 8.875 21.855469 C 8.859375 21.5625 8.855469 21.261719 8.875 20.96875 C 8.894531 20.699219 9.128906 20.503906 9.398438 20.488281 C 9.433594 20.488281 9.464844 20.488281 9.496094 20.488281 C 13.035156 20.488281 16.570312 20.488281 20.105469 20.488281 C 20.226562 20.488281 20.34375 20.5 20.449219 20.554688 C 20.636719 20.660156 20.742188 20.816406 20.746094 21.03125 C 20.746094 21.285156 20.746094 21.539062 20.746094 21.792969 C 20.742188 22.089844 20.503906 22.332031 20.203125 22.339844 C 19.984375 22.339844 19.761719 22.339844 19.542969 22.339844 C 17.964844 22.339844 16.390625 22.339844 14.8125 22.339844 Z M 14.8125 22.339844 "/>
</g>
</svg>
